<svg role="img" aria-label="SYNCHRO Žralok Bratislava" version="1.0" xmlns="http://www.w3.org/2000/svg"
 width="100%" height="100%" viewBox="0 0 1616.000000 2209.000000"
 preserveAspectRatio="xMidYMid meet">

<g transform="translate(0.000000,2209.000000) scale(0.100000,-0.100000)"
fill="currentColor" stroke="none">
<path d="M8106 21610 c-23 -105 -63 -184 -134 -260 l-57 -62 -110 11 c-300 30
-857 37 -1092 14 l-61 -6 -18 34 c-9 19 -19 65 -22 105 -4 58 0 80 21 132 13
34 21 62 17 62 -15 0 -79 -86 -102 -136 -14 -32 -23 -76 -26 -130 l-4 -80
-106 -17 c-58 -10 -159 -29 -224 -44 l-119 -26 -39 38 c-55 53 -83 124 -83
207 0 37 -4 65 -8 62 -17 -10 -39 -110 -39 -173 1 -37 9 -89 19 -119 10 -29
15 -54 12 -56 -3 -2 -51 -18 -106 -36 -771 -254 -1530 -830 -2105 -1595 -159
-212 -319 -472 -384 -622 -88 -206 -315 -841 -397 -1113 -43 -143 -55 -170
-87 -204 -20 -21 -145 -132 -277 -246 -344 -297 -451 -400 -650 -625 -249
-281 -427 -468 -531 -555 -255 -215 -357 -367 -710 -1056 -145 -282 -173 -347
-216 -504 l-23 -85 0 -835 0 -835 23 -38 c39 -61 111 -88 179 -64 22 7 71 39
109 69 168 137 422 284 578 338 33 11 83 20 112 20 230 0 725 -205 1309 -542
371 -214 362 -207 455 -338 45 -63 103 -140 129 -170 26 -30 61 -75 79 -100
30 -42 31 -48 21 -90 -22 -92 3 -217 68 -345 l28 -57 -37 -111 c-135 -409
-207 -1125 -180 -1786 46 -1112 241 -2122 571 -2951 87 -219 228 -498 308
-609 231 -320 527 -493 937 -545 160 -21 386 -30 531 -21 112 6 129 10 154 31
33 28 42 63 29 111 -11 40 -43 62 -129 88 l-60 19 1502 502 1502 503 331 -324
c818 -800 1412 -1400 1445 -1457 29 -50 111 -230 111 -243 0 -3 -24 -5 -53 -5
-243 0 -621 -252 -963 -641 -128 -145 -147 -175 -140 -224 6 -51 43 -85 92
-85 21 0 69 17 122 44 146 73 256 109 343 110 68 1 79 -2 112 -27 20 -15 55
-59 78 -97 46 -78 147 -296 204 -440 42 -110 55 -126 104 -141 29 -8 47 -6 94
10 31 11 57 18 57 16 0 -2 -23 -32 -51 -67 -28 -35 -55 -73 -60 -86 -6 -14 -5
-71 2 -145 15 -162 6 -585 -15 -747 -89 -665 -348 -1319 -718 -1809 -38 -50
-48 -72 -48 -102 0 -50 15 -82 50 -102 46 -27 89 -21 183 27 342 175 763 611
1169 1211 234 345 429 699 488 883 103 321 105 841 5 1382 l-23 125 60 165
c123 338 139 370 302 617 375 569 617 1138 725 1703 46 243 55 345 55 630 1
307 -1 317 -92 750 l-48 225 116 7 c124 7 318 36 470 69 138 31 211 69 296
153 125 125 196 308 230 591 21 169 13 808 -11 950 -44 267 -154 536 -349 858
-113 188 -180 279 -283 382 -59 59 -184 162 -231 191 -2 1 -49 161 -104 356
-55 194 -103 356 -107 360 -3 4 -208 -54 -456 -127 -247 -74 -459 -135 -469
-135 -34 0 -217 70 -366 142 -172 82 -323 180 -405 263 -99 100 -219 237 -245
280 -13 22 -53 83 -89 135 -36 52 -65 98 -63 102 1 4 11 94 22 200 11 106 25
211 31 233 6 21 42 96 79 165 91 170 213 413 244 488 35 88 49 163 50 271 l1
94 47 12 c26 6 64 23 85 37 38 25 38 25 78 7 48 -22 172 -25 228 -5 61 22 138
73 269 178 143 116 205 148 419 216 188 61 401 109 689 156 298 49 419 82 627
173 414 181 826 531 1186 1010 334 443 772 1253 1032 1908 443 1114 393 1890
-145 2252 -283 190 -677 242 -1470 192 -666 -42 -1235 -194 -1994 -535 l-217
-97 -53 59 c-64 71 -130 106 -207 112 l-57 4 -27 69 c-34 88 -107 169 -186
209 -62 32 -188 70 -229 70 -22 0 -27 6 -38 52 -42 179 -187 245 -411 188 -73
-19 -96 -21 -129 -13 -70 18 -357 203 -459 296 -218 198 -505 366 -853 502
-300 117 -561 183 -1028 261 l-33 5 32 37 c57 65 92 155 97 250 4 78 3 84 -17
89 -12 3 -21 13 -21 24 0 12 -7 19 -19 19 -15 0 -21 -15 -35 -80z m-1083 -421
c-24 -12 -43 -26 -43 -31 0 -6 -8 -7 -17 -4 -10 4 -14 4 -10 0 9 -9 -23 -45
-34 -39 -4 3 -17 -8 -29 -25 -12 -17 -26 -28 -31 -25 -5 4 -6 -1 -3 -9 4 -9 0
-18 -10 -22 -35 -13 -132 -185 -170 -302 -11 -31 -22 -50 -28 -46 -7 4 -8 2
-4 -5 4 -6 -4 -60 -18 -119 -13 -59 -28 -128 -32 -154 -4 -29 -10 -45 -17 -41
-6 3 -7 1 -3 -6 4 -6 4 -21 1 -32 -6 -17 -9 -19 -17 -8 -8 11 -8 10 -4 -4 4
-11 -2 -30 -14 -45 -56 -73 -68 -88 -111 -131 -47 -48 -118 -108 -179 -151
-21 -15 -64 -31 -105 -39 -93 -18 -193 -55 -221 -82 -13 -12 -28 -18 -35 -14
-7 5 -10 4 -6 -2 4 -6 -15 -24 -41 -41 -26 -17 -61 -45 -79 -62 -18 -16 -35
-30 -38 -30 -4 0 -18 -14 -32 -31 -14 -16 -32 -28 -39 -25 -8 3 -13 2 -11 -3
1 -5 -27 -39 -62 -76 -81 -86 -113 -135 -139 -210 -33 -98 -42 -159 -42 -295
0 -71 -4 -131 -10 -135 -5 -3 -7 -12 -4 -19 8 -22 -104 -299 -118 -290 -4 3
-5 -2 -2 -11 4 -9 -5 -48 -19 -88 -14 -40 -31 -99 -37 -131 -13 -76 -13 -255
1 -371 5 -49 11 -105 13 -123 2 -18 6 -35 10 -39 3 -3 6 -14 6 -24 0 -35 56
-194 96 -272 25 -49 24 -56 -6 -92 -10 -11 -22 -35 -28 -52 -15 -45 2 -43 43
4 19 22 36 34 43 29 16 -10 15 -29 0 -20 -7 3 -2 -4 12 -17 34 -32 35 -48 5
-59 -26 -10 -119 -100 -136 -131 -15 -30 31 -24 60 6 20 21 26 23 39 13 13
-11 14 -11 8 0 -8 14 23 44 36 36 5 -3 8 -1 8 4 0 5 11 14 24 20 23 10 25 8
41 -39 37 -116 28 -253 -27 -404 -16 -44 -42 -101 -59 -126 -16 -25 -29 -49
-29 -53 0 -7 -58 -95 -70 -106 -9 -9 -76 -113 -92 -145 -9 -16 -29 -55 -45
-85 -15 -30 -43 -91 -62 -135 -18 -44 -37 -89 -42 -100 -13 -32 -56 -185 -70
-255 -20 -93 -16 -573 4 -640 3 -8 10 -67 17 -130 14 -139 80 -568 96 -621 3
-10 -9 -21 -38 -33 -79 -33 -91 -41 -151 -101 -54 -55 -107 -144 -107 -180 0
-28 26 -15 66 32 87 103 97 114 111 109 8 -3 12 -2 9 3 -3 5 0 14 8 20 11 9
15 9 19 -1 4 -9 6 -8 6 3 1 18 76 53 92 44 22 -14 0 -48 -47 -73 -69 -38 -147
-107 -200 -179 -16 -21 -31 -40 -34 -43 -3 -3 -18 -34 -33 -70 -16 -36 -33
-73 -38 -84 -7 -13 -7 -16 0 -11 6 3 11 1 11 -6 0 -7 8 -5 20 6 11 10 20 22
20 26 0 16 94 134 145 181 71 67 77 72 126 99 24 13 47 28 50 32 10 14 17 -28
29 -166 10 -117 0 -453 -15 -537 -3 -14 -7 -59 -10 -100 -3 -41 -11 -122 -18
-180 -15 -133 -14 -601 2 -780 16 -181 58 -476 82 -579 17 -68 18 -86 7 -92
-10 -7 -9 -9 4 -9 12 0 20 -15 28 -57 7 -31 23 -85 36 -120 13 -35 23 -67 22
-71 -1 -7 12 -43 37 -97 8 -16 15 -37 17 -45 2 -8 5 -17 8 -20 15 -15 54 -108
52 -125 -1 -14 0 -16 6 -7 7 10 13 4 23 -20 7 -18 31 -58 54 -89 22 -31 49
-72 60 -90 54 -92 70 -117 99 -159 17 -25 34 -47 37 -50 3 -3 28 -41 57 -85
28 -44 57 -87 65 -95 23 -26 117 -157 117 -164 0 -4 13 -21 29 -39 16 -17 42
-50 57 -72 14 -22 32 -44 38 -50 26 -22 65 -83 58 -90 -4 -5 -2 -5 4 -2 11 7
134 -132 134 -151 0 -5 10 -12 21 -15 15 -4 20 -11 15 -22 -3 -9 -2 -14 3 -11
9 6 61 -48 61 -63 0 -13 -56 -24 -72 -15 -7 4 -9 3 -5 -2 8 -8 -13 -15 -218
-75 -55 -16 -122 -36 -150 -45 -27 -8 -75 -21 -105 -28 -30 -7 -65 -18 -77
-24 -12 -7 -35 -13 -50 -14 -15 -1 -32 -5 -38 -9 -5 -4 -39 -15 -75 -24 -36
-9 -73 -18 -82 -21 -12 -4 -18 0 -18 10 0 10 6 14 18 10 9 -3 5 2 -10 10 -28
17 -62 12 -52 -8 3 -6 -2 -2 -10 8 -9 11 -16 15 -16 8 0 -8 -12 -6 -37 6 -45
20 -52 29 -48 54 3 16 1 17 -17 7 -21 -11 -21 -12 -3 -25 22 -17 12 -18 -16
-3 -16 8 -18 13 -8 25 13 16 -2 19 -18 3 -7 -7 -12 -6 -17 6 -4 11 -2 14 7 9
9 -5 9 -4 0 6 -6 7 -9 20 -6 29 4 13 3 14 -5 1 -6 -8 -8 -18 -6 -22 6 -10 1
-10 -20 -2 -8 3 -12 12 -9 20 3 8 -1 14 -11 14 -18 0 -50 56 -37 64 26 17 -19
261 -70 374 -10 23 -28 62 -39 87 -21 46 -46 59 -52 28 -2 -10 2 -54 9 -98 7
-44 10 -92 7 -107 -3 -15 -2 -32 1 -38 4 -6 7 -64 7 -128 l0 -116 -33 -27
c-19 -15 -38 -25 -44 -22 -5 4 -7 3 -3 -2 4 -4 2 -17 -4 -29 -6 -12 6 -4 27
17 20 21 40 35 43 32 4 -3 -14 -24 -38 -45 -31 -27 -51 -38 -65 -34 -16 4 -17
3 -5 -5 12 -8 9 -17 -2 -9 -2 0 -25 -20 -53 -45 -27 -26 -53 -47 -57 -47 -11
0 -54 -44 -61 -63 -3 -9 -12 -17 -20 -17 -15 0 -50 -37 -60 -63 -3 -9 -13 -17
-22 -17 -8 0 -15 -7 -15 -15 0 -8 -19 -39 -43 -69 -45 -58 -89 -85 -110 -69
-8 7 -22 6 -42 -3 -20 -9 -24 -13 -12 -14 10 0 15 -5 12 -10 -4 -6 -10 -8 -15
-5 -5 3 -17 1 -27 -4 -10 -6 -50 -22 -90 -35 l-72 -25 4 27 c3 15 14 83 25
152 33 214 86 434 126 527 8 17 14 36 14 42 0 10 9 32 52 127 10 22 18 46 18
53 0 7 5 9 12 5 7 -4 8 -3 4 4 -8 13 86 193 121 232 8 8 38 51 67 95 30 44 59
79 66 77 6 -1 9 2 5 8 -9 15 14 41 29 33 6 -3 8 -3 4 2 -4 4 3 26 15 49 82
149 82 361 1 518 -15 29 -32 63 -38 75 -6 13 -14 23 -18 23 -5 0 -8 7 -8 15 0
8 -5 15 -11 15 -6 0 -9 7 -5 15 3 8 2 14 -3 12 -4 -1 -26 21 -48 48 -39 47
-95 105 -278 280 -44 43 -79 81 -78 85 1 4 -3 7 -10 7 -7 -1 -42 14 -79 32
-122 59 -264 60 -373 1 -52 -28 -65 -37 -98 -66 -7 -6 -18 -9 -25 -6 -16 5
-16 -15 1 -21 6 -2 9 -7 6 -11 -27 -29 -67 63 -48 111 10 25 12 26 18 9 5 -14
10 -16 15 -7 4 6 3 18 -3 25 -9 10 -8 15 5 20 9 3 20 3 25 0 5 -3 8 0 7 8 -2
7 5 12 14 12 10 -1 15 3 12 8 -8 12 27 39 44 33 6 -2 12 1 12 8 0 19 112 41
205 41 99 0 195 -20 195 -40 0 -8 5 -12 10 -9 6 3 29 -7 53 -23 67 -46 101
-67 109 -64 3 1 40 -30 81 -68 72 -68 209 -255 211 -290 1 -8 9 -24 19 -34 9
-11 22 -35 29 -53 13 -36 34 -49 53 -33 29 24 -127 370 -200 443 -8 9 -12 24
-9 34 4 13 3 14 -3 5 -8 -10 -13 -9 -24 4 -9 11 -9 15 -2 10 9 -5 11 -2 7 8
-3 8 -12 12 -19 10 -8 -3 -21 7 -32 23 -10 15 -23 34 -30 41 -7 7 -13 18 -13
23 0 5 -6 9 -14 9 -7 0 -25 11 -40 25 -15 14 -30 25 -33 25 -4 0 -15 8 -26 18
-10 9 -35 22 -56 28 -20 6 -35 16 -33 24 2 8 -3 10 -14 6 -21 -8 -95 13 -111
31 -7 10 -13 11 -18 4 -8 -13 -35 -14 -35 -2 0 5 6 11 13 14 6 2 3 2 -8 -1
-11 -3 -85 -8 -165 -12 -80 -4 -162 -12 -183 -19 -21 -7 -47 -11 -58 -8 -10 3
-17 2 -15 -2 3 -4 -8 -15 -24 -24 -22 -13 -34 -15 -55 -7 -35 13 -48 4 -34
-22 11 -20 10 -20 -19 3 -17 13 -30 31 -28 39 3 15 -20 70 -30 70 -2 0 0 -9 6
-19 23 -43 1 -43 -24 0 -15 26 -16 33 -5 41 10 7 8 8 -7 3 -16 -4 -28 1 -43
21 -11 14 -18 31 -14 37 3 5 11 -3 18 -19 l12 -29 -1 32 c-1 17 -4 29 -8 27
-4 -2 -9 0 -13 5 -3 6 -12 8 -20 4 -10 -3 -15 1 -15 11 0 9 -6 19 -14 22 -8 3
-12 14 -9 27 3 16 2 18 -5 8 -11 -15 -24 -1 -19 21 2 7 2 10 0 6 -7 -12 -23
-9 -23 3 0 6 -10 25 -22 42 -13 18 -21 39 -19 47 1 8 0 12 -5 8 -8 -9 -17 3
-64 86 -18 33 -28 56 -22 52 8 -5 10 -2 6 8 -3 9 -10 14 -15 11 -4 -3 -13 3
-19 14 -11 22 -4 30 23 25 11 -1 16 1 12 4 -7 7 -12 9 -42 11 -19 1 -58 75
-54 100 1 7 -2 10 -8 6 -14 -8 -14 10 0 38 9 20 9 20 -4 4 -13 -16 -17 -13
-42 40 -44 91 -57 125 -46 119 5 -4 13 -1 17 5 4 8 3 9 -5 5 -6 -4 -14 0 -18
11 -4 10 -9 20 -12 23 -14 12 -30 61 -25 77 4 13 3 14 -4 5 -6 -9 -16 8 -35
60 -15 40 -27 81 -27 90 0 9 -4 18 -8 20 -4 2 -18 29 -30 61 -16 43 -19 63
-12 77 14 26 13 35 -3 22 -10 -9 -17 1 -30 44 -10 31 -14 60 -11 66 4 6 2 8
-3 5 -13 -8 -27 58 -17 75 4 7 3 8 -4 4 -8 -5 -12 1 -12 16 0 18 2 20 10 8 8
-12 10 -10 10 9 0 16 -4 21 -14 18 -17 -7 -26 16 -55 143 -12 52 -25 103 -28
114 -4 14 -2 16 8 11 8 -5 6 1 -5 13 -14 16 -16 28 -11 49 l8 28 7 -25 c6 -20
8 -21 8 -5 0 11 -3 29 -8 40 -7 17 -9 17 -9 3 -1 -10 -5 -18 -10 -18 -8 0 -23
67 -26 120 -1 14 -7 43 -13 65 -14 48 -24 152 -23 218 1 31 -2 46 -9 42 -6 -4
-10 8 -10 32 0 36 -14 63 -32 63 -4 0 -8 -66 -8 -147 0 -200 24 -417 74 -690
8 -44 9 -78 4 -87 -6 -11 -5 -16 2 -14 15 4 58 -163 52 -202 -3 -19 3 -35 18
-50 16 -16 20 -29 15 -47 -3 -13 -2 -22 3 -19 5 3 14 -10 20 -29 7 -25 7 -35
-1 -35 -6 0 -2 -6 9 -14 15 -11 19 -26 18 -68 -1 -34 1 -44 6 -28 6 22 8 19
24 -30 10 -30 23 -68 30 -85 7 -16 23 -57 35 -90 13 -33 28 -71 34 -85 6 -14
9 -31 8 -39 -1 -7 2 -10 8 -6 6 3 11 2 11 -4 0 -6 12 -36 27 -68 15 -32 26
-61 25 -65 -1 -3 5 -12 13 -18 8 -7 15 -21 15 -31 0 -10 8 -23 18 -28 9 -6 12
-11 7 -11 -6 0 -20 7 -31 15 -12 8 -24 12 -26 9 -3 -2 -19 9 -36 25 -18 16
-43 32 -57 35 -14 4 -25 10 -25 15 0 5 -16 15 -35 21 -27 9 -33 15 -26 24 11
14 5 26 -13 26 -6 0 -5 -4 2 -9 11 -7 10 -9 -3 -14 -9 -4 -18 -1 -21 8 -4 8
-15 15 -26 15 -18 0 -19 2 -7 17 13 15 12 15 -8 5 -17 -9 -22 -9 -27 4 -3 8
-11 14 -18 13 -16 -3 -68 21 -68 31 0 5 -6 7 -12 6 -14 -1 -322 149 -348 169
-8 7 -38 20 -67 30 -29 10 -49 23 -46 28 4 6 -1 8 -11 4 -9 -4 -31 2 -49 12
-17 10 -45 21 -60 25 -15 3 -25 11 -22 16 3 5 0 8 -7 5 -7 -3 -51 8 -97 24
-47 15 -78 30 -70 33 8 3 11 9 6 13 -4 5 -13 3 -19 -3 -7 -7 -18 -12 -26 -12
-12 0 -12 3 -1 18 13 15 12 16 -4 3 -14 -11 -25 -11 -65 0 -42 12 -45 14 -22
20 21 6 20 7 -12 8 -21 1 -38 -2 -38 -6 0 -5 -66 -7 -147 -7 -125 1 -150 -1
-161 -15 -7 -9 -11 -11 -8 -4 9 18 -9 24 -36 13 -23 -10 -23 -10 0 -6 14 3 22
-1 22 -10 0 -12 -24 -18 -67 -17 -7 1 -13 -5 -13 -13 0 -9 -11 -14 -31 -14
-18 0 -28 -4 -24 -10 4 -6 -7 -13 -24 -16 -17 -4 -31 -9 -31 -13 0 -11 -64
-46 -79 -43 -8 2 -10 -1 -6 -8 5 -9 1 -10 -16 -5 -17 4 -20 3 -10 -3 10 -7 1
-16 -39 -36 -28 -14 -57 -23 -62 -19 -6 3 -8 1 -5 -4 4 -6 -19 -30 -50 -54
-63 -49 -101 -72 -64 -40 13 12 19 21 14 21 -6 0 -18 -9 -28 -20 -10 -11 -14
-20 -10 -20 4 0 0 -9 -10 -20 -10 -11 -30 -20 -45 -20 -15 0 -34 -8 -41 -17
-11 -15 -11 -16 1 -5 22 19 36 14 14 -6 -15 -15 -21 -16 -31 -6 -16 15 -17 38
-2 28 6 -3 4 7 -4 22 -18 36 -33 179 -18 169 6 -3 11 0 11 9 0 8 3 23 6 33 6
16 5 16 -8 -1 -15 -20 -16 -20 -22 0 -8 27 -20 252 -22 434 -2 85 -6 163 -9
172 -4 10 -5 37 -2 60 3 24 7 117 10 208 7 224 50 531 78 566 5 6 7 13 4 15
-12 13 50 169 110 279 14 25 60 115 102 200 42 85 79 157 83 160 4 3 16 24 27
48 11 23 23 39 28 35 4 -5 5 -3 1 4 -4 7 4 29 16 50 13 21 30 52 38 68 8 17
29 53 45 80 17 28 36 62 43 78 6 15 17 26 23 25 6 -2 13 7 14 20 1 12 11 33
23 45 12 13 22 27 22 31 0 14 103 155 117 160 7 3 18 17 23 31 5 14 18 28 27
32 26 9 84 64 306 285 121 121 203 196 210 192 7 -4 9 -4 5 1 -8 9 30 61 87
121 22 22 54 58 70 79 17 20 47 53 68 73 20 19 37 41 37 47 0 7 48 57 106 111
59 54 121 113 139 129 17 17 58 53 90 80 31 28 85 76 118 107 34 31 62 56 64
54 1 -1 28 22 59 51 31 29 59 53 64 53 8 0 -21 -89 -40 -122 -5 -10 -7 -25 -3
-34 5 -13 3 -15 -7 -9 -8 5 -11 4 -7 -2 3 -5 0 -32 -8 -59 -8 -27 -28 -94 -44
-149 -40 -135 -134 -526 -147 -613 -4 -23 -11 -45 -15 -48 -5 -3 -7 -9 -4 -14
3 -5 -1 -49 -9 -97 -22 -127 -44 -338 -52 -490 -6 -119 -5 -133 9 -133 9 0 19
10 21 23 3 12 10 45 16 72 6 28 13 66 15 85 11 84 18 106 37 127 11 12 18 28
15 35 -4 9 -6 7 -6 -4 -1 -10 -6 -18 -12 -18 -7 0 -9 10 -4 28 4 15 9 36 10
47 3 18 21 113 46 233 9 46 26 82 43 95 7 6 4 7 -6 3 -22 -7 -22 -5 -4 39 8
18 12 36 8 39 -3 3 0 6 7 6 8 0 11 12 9 33 -1 17 5 61 14 97 9 36 20 78 23 94
5 24 8 27 17 15 7 -10 8 -5 4 20 -3 19 -2 48 3 65 5 17 15 51 22 76 7 25 17
51 22 58 5 6 7 12 4 12 -3 0 -1 15 4 33 6 17 12 41 14 52 10 42 28 75 39 68 6
-3 6 0 -1 8 -15 16 -17 33 -3 24 5 -3 9 2 8 12 -3 37 2 54 14 47 6 -4 8 -3 5
2 -8 14 13 105 24 98 5 -3 8 3 7 13 -3 34 2 54 11 49 5 -4 7 3 4 14 -3 10 4
39 15 62 10 24 25 62 32 86 7 23 17 42 22 42 4 0 8 12 8 26 0 14 4 22 10 19 5
-3 12 7 15 22 3 15 13 50 21 77 8 27 17 67 20 88 4 21 11 41 15 44 5 3 9 15 9
27 0 18 2 20 11 7 9 -12 10 -10 6 9 -3 13 -2 31 3 40 12 23 23 54 26 71 5 39
42 131 48 119 3 -8 4 -3 2 10 -3 13 -1 31 4 40 11 22 24 54 25 66 2 17 46 149
55 167 5 9 19 45 30 80 34 102 30 95 46 74 8 -11 14 -15 14 -10 0 6 -5 15 -11
21 -8 8 -7 26 6 67 14 45 20 54 31 45 16 -13 18 -1 5 20 -9 14 -4 29 35 116 7
17 14 39 16 50 3 13 10 19 23 17 15 -2 17 -1 6 7 -9 6 -11 16 -6 27 7 18 8 18
16 -1 7 -15 8 -13 4 13 -2 17 -1 32 4 32 5 0 9 6 8 13 0 6 1 21 2 32 1 17 3
18 12 5 8 -12 9 -10 7 10 -2 17 1 24 10 22 8 -1 11 2 7 8 -3 5 4 25 17 43 12
17 22 37 20 43 -1 6 5 17 13 24 8 7 15 18 15 24 1 6 14 26 29 44 27 32 29 33
36 13 3 -11 3 -26 -1 -33 -5 -10 -4 -10 6 -1 11 10 11 18 2 38 -13 27 -5 54
25 83 7 7 13 19 13 26 0 18 35 48 45 39 4 -5 5 -2 1 5 -10 17 52 114 68 105 6
-3 8 -3 4 2 -4 4 4 22 17 40 14 17 25 37 25 43 0 13 16 16 23 5 2 -5 2 -2 0 5
-1 8 11 27 27 44 17 16 28 34 24 39 -3 5 6 13 20 19 14 5 26 12 26 15 0 4 -5
3 -12 -1 -6 -4 1 9 16 29 16 21 33 34 40 30 6 -3 8 -3 4 2 -10 11 30 65 47 65
8 0 12 6 9 13 -7 19 22 42 32 26 4 -7 3 -9 -3 -6 -5 3 -10 0 -10 -8 0 -8 3
-13 5 -10 3 3 11 0 18 -6 9 -8 12 -6 9 8 -2 10 -4 18 -5 18 -1 0 -3 8 -5 18
-2 12 5 22 21 29 13 6 24 17 24 24 0 7 5 16 12 20 7 5 8 3 3 -6 -5 -9 -4 -11
3 -6 7 4 12 15 12 26 0 10 7 21 16 24 15 6 15 4 3 -11 -8 -10 4 -3 27 14 23
18 45 29 49 25 5 -4 5 -1 1 6 -5 8 8 27 36 52 23 22 39 40 34 40 -5 0 -36 -27
-69 -60 -33 -34 -62 -59 -65 -56 -2 3 26 35 63 71 37 36 70 64 73 61 2 -3 22
8 42 24 20 16 41 26 45 22 5 -4 5 -1 1 5 -4 8 3 23 18 38 14 14 22 25 18 25
-4 0 -27 -21 -51 -46 -23 -25 -45 -43 -49 -39 -3 3 5 16 18 28 85 76 124 106
131 101 5 -3 8 -1 7 5 -2 6 24 36 57 66 53 48 61 53 75 40 9 -8 21 -15 26 -15
5 0 3 4 -5 9 -22 14 -22 41 -1 41 10 0 25 11 34 25 14 21 20 23 36 15 28 -15
37 -12 14 4 -18 14 -18 15 14 27 22 7 31 16 28 25 -8 20 21 17 33 -3 6 -10 11
-13 11 -6 0 6 -5 15 -10 18 -8 5 -7 11 1 21 10 12 16 11 40 -3 21 -13 32 -14
40 -6 8 8 7 13 -2 18 -8 5 -10 4 -5 -3 9 -15 1 -15 -25 -1 -16 8 -18 13 -9 24
6 8 19 11 27 8 10 -4 14 -2 10 4 -4 6 0 16 8 23 8 7 15 10 15 7 0 -3 12 5 26
18 15 14 31 25 36 25 4 0 31 16 59 36 28 19 57 33 65 30 18 -7 44 3 44 16 0 6
-7 5 -15 -2 -9 -7 -18 -10 -22 -6 -8 8 -10 6 62 47 33 18 66 32 73 31 7 -2 15
4 18 12 5 13 10 13 27 4 19 -10 20 -9 9 4 -10 13 -10 17 3 22 8 3 23 3 32 0
12 -4 14 -3 6 3 -17 12 130 89 147 78 9 -6 11 -4 5 5 -6 10 -4 12 9 7 9 -4 15
-3 12 2 -9 14 20 21 33 8 9 -9 11 -8 6 3 -4 11 4 19 26 27 18 7 36 10 41 7 5
-3 7 0 6 8 -2 9 6 12 27 10 16 -2 27 0 23 4 -9 8 25 27 79 44 21 6 49 16 63
22 54 23 67 28 119 42 30 9 70 14 90 12 20 -2 26 -1 13 1 -12 2 -20 8 -17 13
3 5 11 7 18 4 8 -3 26 2 41 10 16 8 34 12 41 9 8 -2 24 1 36 8 28 15 258 61
269 54 5 -3 11 -1 14 4 10 16 322 47 501 50 l110 1 -42 -21z m505 -36 c35 -4
49 -9 40 -14 -7 -5 8 -6 36 -2 36 4 47 3 42 -5 -4 -7 -1 -12 6 -12 9 0 9 -3
-2 -10 -13 -8 -13 -10 2 -10 9 0 25 -3 35 -7 17 -7 17 -6 0 11 -23 24 -15 31
15 15 12 -7 30 -12 39 -11 24 4 71 -17 64 -28 -3 -5 0 -7 9 -4 19 7 86 -14 86
-27 0 -6 6 -9 13 -8 13 2 29 -4 132 -50 38 -18 72 -36 75 -40 3 -5 25 -20 50
-33 63 -34 156 -94 177 -115 10 -10 64 -55 121 -101 56 -46 102 -87 102 -92 0
-6 6 -10 14 -10 13 0 26 -13 111 -111 49 -56 99 -122 124 -161 12 -21 27 -38
33 -38 6 0 8 -7 4 -15 -3 -8 -1 -14 5 -12 6 1 22 -19 37 -44 43 -74 136 -185
224 -267 26 -25 45 -49 41 -55 -3 -5 -1 -7 5 -3 6 3 23 1 39 -5 35 -15 33 -15
183 -30 140 -14 195 -8 203 20 4 16 -3 20 -47 25 -66 9 -222 51 -274 74 -28
12 -58 40 -94 88 -55 73 -146 201 -163 232 -25 45 -90 140 -113 164 -14 16
-21 31 -17 39 5 7 4 10 -2 6 -6 -4 -28 15 -49 41 -22 26 -73 80 -114 120 -41
41 -74 78 -72 84 1 5 -3 6 -9 2 -6 -3 -14 -2 -18 3 -3 5 -44 40 -91 78 -47 38
-91 75 -99 82 -15 15 -127 93 -134 93 -3 0 -44 25 -92 55 -48 30 -95 57 -106
60 -10 4 -19 11 -19 16 0 11 66 5 132 -12 20 -5 56 -12 80 -15 24 -4 48 -10
54 -15 6 -5 13 -6 16 -3 7 6 159 -26 323 -70 173 -46 358 -108 451 -151 41
-19 79 -35 84 -35 5 0 25 -8 45 -17 24 -12 31 -19 23 -25 -9 -5 -6 -7 7 -6 21
2 185 -70 185 -82 0 -4 19 -15 43 -26 38 -17 225 -137 237 -153 3 -3 24 -19
47 -35 23 -15 49 -39 58 -52 9 -14 20 -22 24 -19 11 6 157 -146 196 -205 16
-25 32 -47 35 -50 27 -25 87 -143 110 -213 22 -67 50 -92 50 -44 0 40 -55 189
-93 252 -19 33 -34 62 -32 63 2 2 42 -22 90 -53 48 -32 107 -64 133 -71 60
-19 161 -18 228 2 31 9 61 13 69 10 8 -3 17 -1 21 5 3 5 13 8 22 5 10 -2 30
-7 45 -10 15 -4 25 -10 23 -15 -3 -5 2 -8 12 -7 22 1 62 -76 62 -122 0 -20 -8
-42 -22 -57 -44 -46 -49 -56 -72 -128 -27 -82 -41 -190 -32 -242 9 -47 87
-106 231 -175 61 -29 122 -66 137 -82 32 -36 79 -128 65 -128 -6 0 -76 -32
-156 -71 -80 -39 -180 -87 -221 -106 -41 -19 -102 -48 -135 -63 -162 -76 -273
-126 -293 -131 -4 -1 -31 -15 -60 -30 -29 -16 -57 -29 -62 -29 -5 0 -45 -18
-90 -39 -81 -40 -140 -63 -151 -58 -3 1 -14 -4 -23 -12 -24 -20 -169 -78 -184
-73 -6 2 -12 0 -12 -6 0 -13 -49 -33 -62 -26 -7 4 -8 2 -4 -4 5 -8 -3 -12 -22
-12 -26 0 -31 5 -42 46 -9 30 -26 58 -52 82 -21 19 -38 41 -38 49 0 7 -4 13
-10 13 -5 0 -6 7 -3 17 4 10 2 14 -4 10 -6 -4 -18 10 -28 31 -10 20 -25 50
-33 66 -39 75 -51 248 -20 279 9 9 26 39 39 67 16 36 25 47 32 38 6 -9 7 -8 3
4 -3 10 3 37 14 60 18 42 28 138 17 168 -5 13 -15 78 -17 103 0 9 -63 37 -84
37 -8 0 -18 -10 -21 -21 -6 -17 -9 -19 -17 -8 -8 11 -9 10 -4 -3 15 -49 -94
-168 -177 -193 -81 -24 -191 -15 -289 24 -50 19 -171 104 -176 123 -2 10 -9
18 -15 18 -12 0 -67 50 -67 61 0 4 -17 25 -37 47 -21 22 -46 51 -55 64 -65 86
-70 93 -109 138 -16 19 -27 40 -24 48 2 7 1 10 -5 7 -9 -5 -90 93 -90 110 0 5
-7 15 -15 24 -35 35 -103 139 -97 147 4 4 2 4 -5 0 -14 -8 -36 27 -25 39 4 5
2 5 -4 2 -10 -6 -94 93 -94 110 0 4 -7 13 -15 22 -8 9 -26 28 -40 43 -14 15
-25 30 -25 33 0 14 -177 195 -191 195 -5 0 -9 4 -9 8 0 23 -211 147 -325 193
-84 34 -231 38 -337 11 -77 -19 -146 -70 -178 -130 -11 -20 -24 -44 -29 -52
-5 -8 -15 -30 -21 -48 -10 -26 -15 -30 -26 -21 -10 8 -14 8 -14 1 0 -6 4 -14
10 -17 13 -8 -46 -145 -63 -145 -5 0 -7 -7 -3 -15 5 -15 -28 -83 -48 -97 -5
-3 -18 -5 -28 -3 -15 3 -16 1 -8 -16 13 -24 21 -25 14 -1 -5 14 -4 15 5 2 9
-12 11 -13 11 -1 0 8 3 12 6 9 3 -3 0 -15 -7 -27 -10 -15 -16 -17 -26 -9 -17
13 -17 -4 0 -21 10 -11 9 -13 -6 -8 -14 6 -17 3 -12 -11 3 -12 -4 -29 -20 -46
-14 -15 -25 -32 -25 -37 0 -6 -6 -17 -14 -24 -10 -11 -16 -11 -26 -2 -9 9 -11
9 -6 0 18 -32 -15 -51 -101 -58 -21 -1 -51 -6 -67 -10 l-28 -8 23 28 c13 15
33 32 44 37 20 11 20 11 0 -13 -11 -13 -13 -18 -5 -12 10 10 17 10 29 1 13
-10 14 -10 4 2 -10 11 -9 18 5 34 16 20 16 20 0 7 -26 -20 -22 2 5 27 13 12
27 19 32 15 4 -5 5 0 2 9 -7 19 18 45 27 29 3 -5 3 -16 0 -24 -3 -8 -1 -18 5
-22 19 -11 23 23 6 49 -15 23 -14 30 5 28 3 0 6 7 7 16 1 9 8 35 17 57 8 22
15 52 16 68 0 24 9 32 33 28 4 0 7 4 7 9 0 6 -7 10 -15 10 -16 0 -21 25 -7 34
4 2 9 23 10 46 2 23 7 49 12 58 13 26 23 55 26 77 5 38 51 138 57 124 3 -8 6
1 6 20 1 30 3 32 18 20 15 -13 15 -12 5 8 -9 17 -9 22 4 27 8 3 14 11 12 18
-2 7 7 27 20 45 12 17 22 35 22 41 0 5 23 30 50 56 39 37 55 46 73 41 14 -4
17 -3 9 2 -9 7 -7 14 11 29 38 32 107 66 123 60 10 -4 12 -2 8 6 -5 7 1 9 19
6 16 -3 25 -1 24 6 -1 7 19 11 58 10 35 -1 47 1 30 4 -30 6 -29 6 10 12 56 10
131 11 193 3z m162 -505 c0 -7 -46 -35 -101 -62 -180 -86 -282 -208 -330 -393
-24 -93 -29 -261 -10 -341 7 -29 12 -54 10 -56 -2 -1 -25 4 -51 11 -44 13 -47
16 -60 66 -19 75 -16 276 5 357 55 210 196 368 368 414 69 19 169 21 169 4z
m7140 -772 c281 -49 465 -132 603 -269 51 -52 115 -139 138 -190 7 -15 18 -27
24 -27 17 0 61 -137 82 -252 20 -113 22 -395 4 -543 -87 -702 -459 -1623
-1007 -2493 -365 -580 -783 -993 -1242 -1225 -231 -117 -382 -164 -707 -217
-233 -38 -381 -69 -550 -116 -138 -38 -324 -103 -390 -137 -35 -17 -57 -20
-173 -18 -73 1 -155 8 -182 15 -28 7 -50 11 -50 9 0 -11 104 -49 184 -68 l90
-21 -100 -82 c-136 -112 -202 -147 -279 -146 -79 0 -135 30 -245 129 -249 226
-420 323 -980 552 -476 195 -721 332 -907 507 -100 95 -194 198 -197 219 -1 7
-36 60 -78 117 -42 58 -147 215 -233 350 -191 297 -257 393 -371 535 -219 275
-387 588 -549 1030 -54 146 -79 161 -172 99 -84 -56 -214 -113 -321 -141 -130
-34 -317 -35 -437 -4 -165 43 -313 133 -436 262 -68 73 -108 79 -138 22 -17
-32 5 -219 124 -1063 111 -784 155 -1317 141 -1690 -15 -420 63 -1026 189
-1465 157 -548 427 -1056 761 -1430 39 -45 79 -95 87 -112 9 -17 68 -79 130
-138 302 -282 639 -508 1012 -677 82 -38 227 -107 320 -153 155 -77 329 -145
369 -145 66 0 -2 -21 -1301 -406 l-142 -42 -163 130 c-498 398 -791 724 -1062
1178 -84 140 -118 209 -224 445 -252 560 -308 807 -391 1725 l-27 295 -28 3
-29 4 6 -314 c6 -332 15 -465 47 -723 51 -410 106 -586 369 -1175 102 -229
299 -546 482 -777 176 -221 489 -520 792 -756 55 -42 96 -77 93 -77 -4 0 -289
-84 -634 -186 l-627 -186 -58 63 c-218 240 -450 544 -697 916 -177 265 -255
406 -314 564 -110 296 -174 674 -196 1149 -11 237 -8 313 30 715 28 290 36
572 20 710 -7 61 -13 119 -14 129 -1 20 3 21 102 42 46 9 16 29 -54 34 -66 5
-69 6 -72 33 -3 26 -1 27 38 27 27 0 43 5 47 15 8 22 0 27 -55 33 l-49 4 -31
192 c-95 576 -123 983 -82 1186 42 207 148 445 295 665 48 72 100 156 116 187
21 41 36 59 54 64 38 9 75 -4 104 -37 33 -38 56 -39 46 -1 -10 42 -54 93 -94
109 -20 8 -37 16 -39 18 -1 1 7 40 18 86 29 122 26 275 -7 383 -4 16 -1 18 23
13 16 -3 37 -9 47 -12 26 -11 22 20 -5 37 -13 8 -39 20 -58 27 -28 9 -42 24
-70 74 -19 34 -37 66 -39 70 -2 5 18 7 44 5 30 -2 50 1 52 8 5 14 -49 34 -93
34 -31 0 -34 3 -65 78 -68 163 -96 285 -109 482 -14 204 4 288 123 566 64 149
77 212 77 374 0 127 14 200 56 283 52 102 334 352 466 412 83 37 173 48 342
42 280 -11 630 -95 1050 -253 134 -50 192 -78 269 -129 133 -89 406 -296 677
-514 242 -195 309 -236 440 -266 115 -27 223 -68 402 -151 329 -153 342 -158
443 -158 l90 -1 180 76 c464 197 724 315 1366 620 696 330 995 461 1286 565
461 163 847 246 1343 288 25 2 212 2 415 1 290 -2 390 -6 465 -19z m-3642 -22
c82 -40 133 -94 156 -162 20 -57 20 -160 2 -230 -15 -56 -96 -235 -103 -228
-3 2 7 26 20 53 53 105 72 182 72 288 0 85 -4 107 -23 148 -29 58 -92 111
-169 143 -32 13 -51 24 -42 24 9 0 48 -16 87 -36z m-3174 -56 c43 -61 -13
-119 -64 -68 -19 19 -27 69 -13 83 15 16 62 6 77 -15z m3105 -178 c31 -16 46
-65 31 -100 -16 -38 -51 -40 -79 -4 -25 32 -27 61 -5 92 17 24 27 27 53 12z
m-2901 -20 c64 -39 92 -152 51 -204 -16 -21 -29 -26 -64 -26 -97 0 -166 121
-120 210 8 15 20 30 27 33 29 12 75 6 106 -13z m2760 -73 c-2 -27 -7 -32 -28
-32 -35 0 -53 51 -26 71 30 21 58 1 54 -39z m556 38 c26 -8 63 -24 82 -36 33
-20 111 -106 103 -113 -21 -20 -141 -76 -150 -70 -8 4 -9 3 -5 -4 4 -7 2 -12
-5 -12 -6 0 -61 -25 -122 -55 -112 -57 -142 -65 -110 -30 34 37 82 157 103
260 7 33 14 63 17 68 6 11 32 8 87 -8z m-2594 -271 c15 -46 8 -140 -14 -183
-41 -78 -132 -141 -238 -163 l-55 -12 -48 40 -48 39 29 3 c143 15 251 88 299
205 8 20 22 53 29 72 19 45 31 44 46 -1z m-2544 -1797 c-3 -16 -6 -52 -6 -79
0 -73 -16 -50 -24 34 -4 40 -9 81 -12 91 -6 18 -5 18 21 1 22 -14 26 -23 21
-47z m1235 -79 c19 -51 33 -99 33 -105 -1 -7 1 -11 5 -9 3 3 15 -17 25 -42 21
-53 45 -107 88 -200 15 -35 25 -68 22 -74 -5 -7 -2 -8 6 -3 10 6 12 4 7 -8 -4
-10 -2 -16 6 -14 7 1 11 -6 11 -16 -1 -10 0 -16 4 -13 8 9 33 -45 25 -57 -3
-5 -2 -7 4 -4 13 8 46 -50 37 -65 -4 -7 -3 -8 4 -4 7 4 17 -4 24 -21 7 -15 15
-30 19 -33 3 -3 18 -27 34 -55 16 -27 38 -61 50 -75 12 -14 42 -54 67 -90 25
-36 60 -81 77 -100 53 -60 56 -64 75 -95 10 -16 30 -42 43 -57 14 -14 22 -31
19 -37 -4 -6 0 -11 9 -11 11 0 15 -5 11 -15 -3 -8 -1 -15 4 -15 14 0 47 -39
65 -76 8 -18 26 -46 39 -61 12 -15 35 -52 51 -80 15 -29 32 -53 38 -53 5 0 7
-7 3 -15 -3 -9 0 -15 10 -15 12 0 15 -6 11 -21 -3 -12 -3 -18 0 -15 5 5 113
-138 113 -150 0 -7 60 -95 77 -112 13 -13 17 -28 13 -47 -1 -5 2 -7 6 -3 8 8
32 -18 97 -102 23 -30 50 -63 60 -72 11 -9 16 -22 12 -27 -3 -6 -2 -11 4 -11
6 0 44 -33 84 -72 83 -82 96 -93 187 -162 36 -27 64 -52 63 -56 -1 -4 5 -7 15
-6 9 0 16 -5 14 -12 -1 -8 1 -11 6 -8 5 3 24 -5 43 -17 19 -13 51 -31 71 -42
20 -10 35 -22 32 -26 -2 -4 2 -6 9 -6 22 2 188 -83 182 -93 -3 -5 0 -7 8 -4
20 7 108 -36 100 -49 -4 -7 0 -8 12 -3 23 9 57 -2 49 -16 -4 -6 -2 -8 4 -4 6
3 36 -5 68 -19 31 -14 62 -25 68 -25 7 0 21 -8 32 -18 10 -10 39 -26 64 -36
142 -56 238 -100 234 -108 -3 -4 1 -5 9 -2 8 3 43 -9 78 -26 141 -69 245 -123
260 -136 8 -8 19 -14 23 -14 7 0 97 -59 106 -70 3 -3 30 -23 60 -44 72 -51
130 -107 123 -119 -3 -6 -1 -7 6 -3 7 5 26 -6 47 -26 33 -32 34 -35 17 -50
-10 -8 -36 -22 -58 -30 l-40 -16 -25 40 c-30 48 -145 158 -164 158 -8 0 -16 4
-18 8 -3 9 -101 56 -163 79 -26 10 -76 15 -145 15 -91 0 -117 -4 -194 -31 -50
-17 -96 -31 -104 -31 -20 0 -33 17 -69 90 -41 84 -65 122 -82 136 -9 7 -11 16
-6 25 5 8 5 11 0 7 -4 -4 -33 16 -64 44 -104 95 -329 178 -487 178 -22 0 -76
-9 -119 -20 -43 -11 -86 -18 -95 -15 -10 3 -22 29 -32 73 -9 37 -24 84 -32
104 -9 21 -15 40 -14 42 2 2 -8 16 -21 29 -12 14 -20 30 -16 37 3 6 2 9 -3 8
-5 -2 -27 13 -49 33 -25 23 -69 47 -119 65 -71 26 -92 29 -204 29 -135 0 -186
-10 -243 -50 -20 -13 -39 -20 -42 -15 -3 5 -7 78 -9 162 -4 185 -20 239 -90
305 -65 59 -214 103 -355 103 -36 0 -72 4 -79 9 -17 10 -17 40 -2 106 6 28 18
81 27 119 8 39 30 103 49 144 19 41 34 87 34 102 0 28 -18 91 -29 100 -10 8
-61 89 -61 96 0 3 -11 15 -25 26 -14 11 -25 25 -25 31 -1 7 -21 25 -46 41 -65
41 -75 60 -63 121 11 56 8 235 -3 235 -5 0 -8 8 -8 17 0 31 -64 158 -100 197
-36 39 -115 96 -182 130 -42 21 -42 21 -38 121 2 68 -22 155 -42 155 -5 0 -8
7 -8 16 0 10 6 14 15 10 8 -3 15 -1 15 4 0 5 12 13 28 16 33 8 146 65 150 76
2 4 12 8 22 8 13 0 26 -23 51 -92z m-362 -101 c26 -54 26 -90 0 -147 -30 -66
-80 -113 -214 -197 -134 -85 -182 -120 -237 -172 -21 -19 -41 -32 -45 -28 -11
12 37 218 70 297 17 41 58 116 92 165 l61 90 59 8 c33 4 83 11 110 16 82 14
82 14 104 -32z m-392 19 c2 -2 -30 -54 -72 -116 -41 -62 -75 -116 -75 -121 0
-19 -72 -129 -85 -129 -17 0 -67 72 -83 119 -25 72 -11 120 52 180 47 45 155
83 215 76 25 -3 46 -7 48 -9z m-447 -265 c0 -8 20 -55 44 -105 81 -165 120
-262 111 -276 -3 -5 -1 -10 4 -12 5 -1 17 -50 26 -107 18 -107 18 -112 -1
-491 -7 -144 12 -263 62 -385 42 -101 39 -169 -21 -485 -20 -103 -23 -286 -5
-360 20 -88 81 -254 100 -270 18 -16 40 -62 34 -72 -4 -6 -3 -8 3 -5 13 8 56
-47 71 -91 12 -35 3 -69 -26 -104 -9 -10 -12 -18 -9 -18 4 0 -3 -21 -15 -47
-81 -187 -71 -383 27 -501 11 -13 20 -31 20 -40 0 -10 5 -17 10 -17 9 0 98
-70 143 -112 7 -7 16 -13 20 -13 17 -1 102 -89 125 -130 15 -26 34 -89 46
-150 34 -179 107 -367 177 -455 59 -75 92 -112 128 -145 22 -19 48 -45 59 -57
12 -13 27 -23 34 -23 7 0 13 -3 13 -8 0 -8 54 -26 157 -53 40 -10 91 -28 114
-40 70 -35 150 -117 214 -218 6 -8 15 -20 21 -26 22 -22 84 -104 84 -112 0 -4
9 -14 21 -21 12 -8 18 -19 15 -28 -3 -8 -2 -13 3 -10 10 6 42 -28 59 -64 13
-25 152 -177 152 -165 0 3 20 -9 45 -28 84 -65 110 -66 490 -23 17 2 64 -1
105 -6 63 -7 98 -20 218 -80 78 -39 142 -74 142 -79 0 -5 4 -9 10 -9 5 0 35
-18 67 -40 32 -22 66 -46 76 -53 11 -6 28 -20 40 -30 34 -29 95 -40 192 -33
98 6 158 24 249 74 32 17 64 29 70 25 6 -3 8 -2 3 2 -4 5 8 25 27 44 19 20 49
65 67 101 17 36 37 68 43 72 6 4 8 8 4 8 -7 0 34 121 52 152 6 10 10 23 10 30
0 6 10 48 22 92 l22 81 8 -40 c4 -22 10 -112 14 -200 5 -128 4 -175 -9 -236
-17 -80 -55 -179 -69 -179 -4 0 -8 -5 -8 -11 0 -28 -61 -86 -102 -98 -81 -23
-170 -62 -235 -104 -24 -15 -47 -27 -52 -27 -5 0 -16 -6 -23 -13 -11 -11 -100
-71 -273 -183 -27 -18 -80 -40 -117 -49 -120 -31 -226 -1 -515 141 -105 52
-194 94 -197 94 -4 0 -45 18 -92 40 -47 22 -88 40 -90 40 -5 0 -218 114 -249
133 -10 7 -49 30 -85 52 -36 22 -69 43 -75 47 -5 5 -45 30 -87 58 -42 27 -85
57 -95 67 -10 10 -43 35 -73 57 -63 44 -78 57 -140 117 -24 24 -47 43 -51 42
-9 -3 -129 126 -129 138 0 4 -24 32 -52 61 -48 48 -92 97 -164 183 -43 52 -45
55 -47 74 0 10 -6 17 -13 14 -6 -2 -39 38 -73 89 -34 51 -65 98 -69 103 -13
17 -76 119 -94 150 -9 17 -37 67 -62 113 -26 46 -44 88 -40 94 4 6 3 8 -3 5
-6 -4 -25 26 -44 71 -18 42 -36 82 -40 87 -13 18 -103 255 -132 345 -63 204
-77 253 -107 390 -89 407 -119 743 -118 1330 0 515 -24 779 -162 1765 -11 77
-22 154 -25 170 -4 22 -2 26 5 15 5 -8 10 -21 10 -29z m1052 -81 c26 -29 64
-87 85 -129 35 -69 38 -83 38 -158 0 -73 -3 -84 -25 -109 -42 -45 -97 -62
-271 -83 -246 -31 -364 -66 -446 -135 -51 -43 -55 -17 -17 100 36 113 113 269
169 342 52 69 155 152 250 202 52 27 68 31 115 27 51 -4 57 -7 102 -57z m-97
-620 c3 -5 -30 -44 -74 -86 -94 -89 -190 -212 -326 -417 -101 -152 -122 -170
-164 -147 -45 23 -95 208 -89 325 7 133 61 212 175 255 74 28 227 58 351 69
53 4 102 9 109 10 6 0 14 -3 18 -9z m327 -26 c36 -19 92 -89 122 -154 36 -77
34 -125 -10 -212 -22 -44 -40 -97 -45 -137 -6 -39 -17 -73 -27 -84 -12 -11
-57 -24 -139 -37 -203 -33 -587 -119 -667 -150 -32 -12 -59 -2 -53 19 2 9 60
102 129 206 271 411 388 535 532 565 49 10 121 3 158 -16z m-45 -789 c35 -11
35 -33 1 -63 -56 -50 -425 -439 -519 -548 -50 -59 -125 -153 -165 -208 -102
-140 -99 -138 -142 -134 -32 3 -40 9 -57 43 -18 36 -20 59 -19 230 0 144 4
207 17 259 57 227 245 374 542 422 79 13 298 12 342 -1z m423 -76 c82 -43 172
-141 195 -210 26 -79 16 -162 -31 -257 -30 -61 -58 -98 -138 -178 -196 -196
-488 -351 -768 -408 -103 -21 -281 -22 -298 -1 -17 20 -7 35 131 184 167 181
314 381 504 686 133 215 249 267 405 184z m734 -460 c118 -44 213 -172 223
-301 10 -125 -55 -320 -162 -485 -145 -223 -568 -567 -915 -742 -182 -92 -304
-131 -462 -147 -88 -9 -89 2 -4 104 117 142 225 308 446 687 146 250 280 455
381 585 100 129 242 274 292 299 54 27 130 27 201 0z m698 -381 c94 -39 217
-117 283 -180 127 -118 166 -252 131 -443 -30 -160 -55 -198 -332 -506 -252
-279 -384 -386 -689 -555 -151 -84 -352 -179 -455 -213 -81 -28 -160 -39 -160
-22 0 7 35 56 78 109 201 248 466 629 577 829 102 184 148 348 180 633 25 225
37 260 103 323 64 61 176 71 284 25z m-1534 -113 c6 -43 -132 -224 -427 -560
-262 -298 -286 -319 -377 -319 -103 -1 -196 76 -231 192 -22 71 -24 265 -4
334 24 85 30 87 273 118 115 14 454 132 691 241 50 23 71 21 75 -6z m2533
-329 c85 -18 174 -64 221 -113 186 -192 68 -646 -300 -1153 -183 -252 -387
-405 -854 -641 -209 -105 -248 -121 -248 -99 0 5 31 56 68 112 38 57 87 137
109 178 123 227 220 543 253 823 16 140 38 196 144 382 26 44 63 123 83 175
46 121 78 185 115 233 77 97 240 138 409 103z m-1806 -456 c14 -23 -69 -286
-125 -400 -73 -145 -271 -412 -396 -531 -118 -113 -261 -189 -355 -189 -49 0
-110 38 -186 116 -166 171 -209 379 -100 488 38 37 56 45 184 83 261 78 521
194 818 366 134 77 150 84 160 67z m953 -412 c4 -60 -29 -245 -73 -414 -98
-373 -266 -674 -517 -925 -104 -104 -267 -146 -388 -100 -154 59 -292 216
-344 390 -24 82 -21 156 9 207 23 39 39 49 198 127 368 181 701 411 972 671
117 112 138 119 143 44z m820 -528 c9 -83 -45 -287 -153 -575 -35 -93 -71
-192 -80 -220 -25 -76 -93 -200 -136 -249 -103 -117 -264 -129 -454 -34 -162
81 -189 147 -119 287 43 85 111 147 308 278 71 48 156 109 190 136 87 71 266
249 343 340 72 86 96 94 101 37z m52 -586 c100 -168 214 -456 245 -617 16 -83
20 -253 7 -274 -4 -7 -26 -19 -49 -27 -39 -14 -42 -13 -60 6 -24 27 -72 51
-89 44 -8 -3 -14 -1 -14 5 0 16 -82 48 -143 55 l-57 7 28 31 c75 85 111 182
119 316 7 118 -17 272 -58 381 -27 71 -29 80 -17 128 6 28 14 51 18 51 4 0 35
-48 70 -106z m390 -402 c31 -29 44 -38 63 -45 10 -4 15 -11 12 -17 -3 -5 0 -7
8 -5 7 3 32 -8 55 -25 56 -40 191 -111 277 -145 39 -15 77 -33 85 -40 8 -7 20
-10 27 -8 6 2 14 0 17 -5 3 -6 -18 -16 -47 -22 -28 -7 -83 -23 -121 -36 -39
-13 -72 -21 -75 -19 -2 3 -10 0 -18 -7 -10 -8 -17 -8 -25 0 -7 7 -8 12 -4 12
5 0 -4 10 -19 21 -45 36 -225 241 -219 250 3 5 1 9 -5 9 -9 0 -71 99 -71 114
0 9 36 -11 60 -32z m-6845 -11 c17 -7 30 -11 30 -9 0 23 247 -207 398 -370 22
-24 35 -47 31 -53 -4 -7 -3 -9 4 -5 6 3 28 -21 51 -56 31 -47 40 -70 36 -88
-4 -18 -3 -21 4 -11 9 14 13 8 26 -49 1 -3 7 -18 13 -33 15 -35 16 -136 1
-174 -6 -15 -11 -30 -11 -33 -6 -33 -38 -87 -70 -118 -10 -9 -18 -21 -18 -26
0 -14 -117 -166 -124 -160 -3 2 -4 1 -2 -2 3 -3 -6 -24 -20 -45 -13 -21 -24
-43 -24 -49 0 -6 -5 -8 -12 -4 -7 4 -8 3 -4 -4 4 -6 -4 -28 -17 -49 -13 -21
-31 -58 -41 -83 -10 -25 -22 -50 -26 -55 -5 -6 -24 -53 -44 -105 -51 -139 -55
-149 -75 -212 -10 -32 -20 -56 -22 -54 -2 2 -4 -8 -5 -22 0 -15 -13 -81 -28
-147 -15 -66 -30 -144 -33 -172 -3 -29 -10 -53 -15 -53 -5 0 -7 -4 -4 -9 3 -4
0 -58 -6 -119 -11 -95 -15 -112 -33 -120 -18 -9 -63 -23 -310 -95 -38 -11 -78
-20 -87 -21 -21 0 -24 -39 -7 -83 6 -15 27 -82 46 -148 53 -182 68 -232 97
-330 15 -49 36 -119 46 -155 11 -36 37 -123 58 -195 83 -274 124 -412 137
-460 8 -27 33 -111 56 -185 22 -74 47 -155 54 -180 7 -25 29 -101 49 -170 21
-69 46 -154 56 -190 10 -36 22 -74 26 -84 6 -15 4 -17 -7 -11 -9 6 -8 2 3 -11
14 -16 33 -75 68 -209 14 -55 51 -170 60 -190 6 -11 16 -38 24 -60 23 -64 81
-191 101 -221 10 -16 18 -34 18 -41 0 -7 2 -11 5 -8 2 2 23 -22 47 -53 89
-120 237 -241 402 -327 13 -7 19 -16 15 -20 -4 -5 -2 -5 5 -1 15 8 85 -28 75
-39 -4 -5 -1 -5 6 -1 7 4 18 3 25 -2 16 -13 226 -95 352 -138 l100 -33 -120
-1 c-165 0 -349 21 -480 55 -148 39 -313 117 -383 181 -14 13 -28 24 -33 24
-8 0 -169 157 -169 165 0 3 -9 16 -21 28 -28 30 -118 160 -145 211 -31 57 -94
185 -94 191 0 3 -16 39 -36 80 -20 42 -32 80 -28 87 4 7 3 10 -1 5 -11 -9 -47
83 -40 101 3 7 1 11 -4 7 -5 -3 -15 12 -21 32 -6 21 -18 52 -25 68 -13 30 -59
159 -95 265 -30 87 -55 175 -95 320 -20 74 -39 143 -42 154 -4 14 -2 16 8 11
9 -5 8 -1 -2 11 -28 32 -117 443 -164 759 -98 641 -131 1085 -122 1639 11 691
104 1254 251 1515 20 34 36 67 36 72 0 5 5 9 10 9 5 0 9 4 8 9 -4 14 102 132
112 126 4 -3 10 -1 12 3 1 5 21 16 43 25 44 19 110 17 160 -2z m8459 -108 c3
-10 169 -597 370 -1305 l366 -1286 -19 -55 c-51 -148 -168 -263 -491 -482
-302 -205 -440 -334 -465 -437 -8 -33 301 73 -3685 -1258 l-3155 -1054 -115
43 c-271 102 -448 206 -590 350 -131 132 -177 217 -284 516 -44 123 -717 2377
-712 2382 4 5 8750 2601 8763 2602 6 1 14 -7 17 -16z m-1494 -305 c-10 -4 -40
-13 -67 -21 l-49 -15 0 95 1 95 66 -74 c57 -62 65 -74 49 -80z m-552 -118 c23
-10 42 -23 42 -27 0 -4 -159 -55 -353 -112 -193 -57 -359 -106 -367 -109 -20
-6 158 114 248 167 158 94 330 127 430 81z m2494 -453 c85 -97 159 -198 151
-209 -3 -6 -1 -8 4 -5 13 8 122 -171 204 -333 18 -36 33 -67 34 -70 0 -3 11
-24 23 -48 13 -23 20 -48 16 -55 -4 -7 -3 -9 1 -4 18 16 92 -194 125 -353 45
-218 52 -834 11 -1065 -23 -128 -48 -226 -62 -239 -5 -6 -9 -18 -9 -27 0 -9
-7 -22 -15 -29 -8 -6 -13 -15 -12 -19 1 -3 -13 -30 -31 -58 -33 -51 -78 -90
-97 -84 -5 1 -7 0 -3 -4 23 -23 -100 -74 -249 -105 -230 -47 -552 -75 -568
-50 -3 6 -16 10 -29 10 -12 0 -31 6 -41 14 -19 13 -18 15 9 57 41 61 102 122
115 114 6 -3 10 -3 9 2 -2 5 6 18 17 29 28 28 160 124 172 124 5 0 27 15 49
33 50 42 94 70 94 60 0 -5 4 -3 8 2 12 18 89 75 100 75 6 0 15 6 19 13 4 6 26
26 48 42 52 39 174 160 204 204 14 18 36 58 51 87 15 29 31 50 35 46 5 -4 5
-2 2 5 -4 6 -3 23 3 38 5 14 12 52 15 83 3 31 10 81 15 110 18 98 22 256 11
367 -17 167 -71 397 -112 477 -11 22 -18 46 -15 54 3 8 2 13 -2 10 -4 -2 -14
10 -21 27 -29 70 -56 124 -79 159 -13 21 -21 42 -16 49 4 8 3 9 -4 5 -7 -4
-18 7 -28 26 -9 18 -33 58 -52 88 -20 30 -35 59 -34 63 1 5 -2 6 -7 3 -12 -8
-34 21 -26 34 4 6 2 9 -3 8 -24 -7 -79 82 -65 105 3 7 2 8 -3 4 -4 -4 -20 36
-35 90 -14 54 -29 109 -34 122 l-7 23 30 -22 c17 -13 54 -50 84 -83z m139
-629 c119 -233 190 -519 188 -753 0 -55 -9 -31 -100 285 -202 700 -198 684
-88 468z m-7927 -482 c36 -22 54 -37 45 -41 -12 -4 -306 -91 -469 -139 l-55
-16 50 51 c28 28 106 96 174 151 l124 99 36 -35 c20 -19 63 -51 95 -70z m7175
-1743 c31 -15 58 -28 60 -29 6 -5 28 -106 86 -389 63 -309 81 -488 71 -690
-37 -727 -282 -1421 -763 -2159 -46 -71 -88 -125 -92 -120 -4 5 -63 104 -131
219 -192 328 -380 631 -432 694 -59 74 -150 142 -281 212 -227 121 -284 168
-496 409 -170 193 -734 815 -809 893 -31 31 -54 57 -52 58 3 0 626 209 1385
464 759 255 1384 464 1389 464 5 1 34 -11 65 -26z m-2962 -961 c9 -5 7 -13 -5
-29 -14 -18 -24 -21 -58 -16 -22 3 -41 11 -41 17 0 8 10 11 24 8 13 -2 23 1
23 7 0 6 4 11 10 11 5 0 7 -7 4 -15 -4 -9 0 -15 9 -15 22 0 32 20 16 31 -8 5
-9 9 -4 9 6 0 15 -4 22 -8z m-122 -52 c0 -16 -3 -30 -6 -30 -12 0 -16 49 -5
54 6 2 11 5 11 5 1 1 1 -12 0 -29z m-30 -8 c4 -10 0 -12 -11 -8 -8 3 -23 6
-32 6 -13 0 -14 2 -4 8 20 13 41 10 47 -6z m223 -13 c11 -14 9 -16 -13 -11
-21 3 -23 7 -14 18 7 8 12 13 13 12 1 -2 7 -10 14 -19z m-340 -13 c-22 -16
-23 -26 -3 -26 8 0 15 -5 15 -11 0 -7 -9 -9 -22 -5 -13 3 -32 6 -44 6 -11 0
-21 6 -21 13 0 9 9 12 24 9 13 -2 23 0 23 6 0 9 15 16 40 21 3 0 -3 -6 -12
-13z m-93 -46 c0 -16 -3 -30 -6 -30 -12 0 -16 49 -5 54 6 2 11 5 11 5 1 1 1
-12 0 -29z m539 -50 c13 0 52 -57 49 -70 -2 -5 3 -7 10 -5 6 3 62 -49 122
-116 61 -67 122 -133 137 -147 15 -13 25 -28 22 -33 -2 -4 6 -15 20 -24 13 -9
62 -59 107 -112 90 -104 145 -166 197 -222 159 -172 217 -240 214 -252 -1 -6
2 -7 9 -4 6 4 25 -8 43 -26 38 -40 81 -74 130 -104 20 -12 33 -25 28 -30 -4
-4 -1 -5 6 -1 8 5 28 -2 50 -16 20 -13 64 -37 97 -53 33 -17 62 -32 65 -35 3
-3 17 -11 32 -19 59 -30 181 -147 171 -163 -3 -6 -1 -8 4 -5 14 9 37 -19 27
-34 -4 -7 -3 -9 3 -6 9 6 83 -100 83 -118 0 -5 15 -26 34 -49 18 -23 42 -57
52 -76 11 -19 29 -49 42 -67 12 -17 22 -34 22 -38 0 -4 24 -41 53 -84 28 -42
61 -93 72 -114 11 -20 23 -37 27 -37 5 0 8 -5 8 -12 0 -6 11 -26 26 -45 14
-18 22 -38 19 -43 -4 -6 -1 -9 5 -8 6 2 23 -17 36 -42 14 -25 37 -61 50 -81
l25 -36 -24 -54 c-13 -30 -32 -73 -42 -96 -13 -30 -21 -39 -28 -30 -5 8 -6 4
-2 -9 7 -26 -21 -100 -41 -108 -8 -3 -14 -18 -14 -33 0 -34 -14 -58 -28 -49
-15 9 -24 -23 -12 -42 9 -14 10 -13 5 6 -5 16 -2 22 9 22 20 0 19 -5 -5 -55
-11 -23 -17 -30 -15 -17 3 13 2 21 -2 17 -4 -4 -7 -23 -8 -43 0 -20 -8 -53
-16 -72 -9 -19 -22 -52 -28 -74 -7 -21 -15 -33 -19 -27 -4 6 -7 -5 -7 -24 0
-19 -8 -43 -17 -53 -10 -11 -17 -23 -16 -28 4 -18 -14 -64 -23 -58 -5 3 -8 0
-7 -7 6 -35 -54 -99 -93 -99 -26 0 -79 34 -74 47 4 9 0 13 -11 11 -20 -4 -116
110 -109 129 3 7 -5 25 -18 40 -21 27 -36 56 -35 69 0 4 -5 10 -12 15 -14 9
-39 82 -39 117 0 13 -4 20 -10 17 -5 -3 -11 2 -11 12 -2 31 -6 44 -30 98 -20
48 -40 137 -34 157 5 18 4 19 -4 8 -9 -13 -10 -13 -15 0 -9 29 -18 75 -19 102
-1 14 -6 24 -11 20 -5 -3 -7 4 -4 16 3 12 1 20 -4 19 -6 -1 -16 17 -23 40 -7
24 -9 40 -4 37 5 -3 0 11 -11 30 -11 20 -20 39 -20 44 0 12 -38 115 -64 175
-18 42 -21 71 -6 62 6 -3 10 -1 10 5 0 7 -7 10 -15 6 -28 -10 -84 139 -69 186
l7 22 20 -25 c14 -17 18 -19 14 -6 -4 10 -7 25 -7 33 0 9 -4 12 -10 9 -16 -10
-12 28 6 53 8 12 20 19 26 16 6 -4 8 1 3 15 -5 16 -2 21 11 21 10 0 14 3 11 7
-9 8 47 61 81 75 l27 12 -26 3 c-14 2 -45 -3 -69 -11 -23 -8 -50 -12 -59 -9
-12 4 -13 3 -3 -5 10 -7 6 -12 -16 -21 -16 -7 -42 -26 -58 -42 -20 -21 -31
-26 -40 -18 -7 6 -18 8 -23 5 -11 -7 -41 22 -73 69 -19 28 -18 28 11 -4 17
-18 31 -29 31 -23 0 15 -52 62 -61 56 -8 -5 -44 27 -69 61 l-15 20 25 -20 c14
-11 30 -27 37 -35 9 -12 14 -12 22 -3 6 7 8 11 5 8 -4 -2 -24 9 -44 25 -20 16
-40 27 -43 24 -3 -3 -18 7 -34 24 -50 52 -63 71 -53 77 6 4 10 14 10 23 0 13
-4 11 -16 -7 l-16 -23 -44 43 c-25 24 -42 49 -40 56 3 6 0 10 -7 7 -19 -7 -78
61 -71 83 5 15 4 15 -5 3 -8 -12 -16 -9 -46 20 -19 19 -33 40 -31 47 3 6 0 10
-7 7 -19 -7 -78 61 -71 83 5 15 4 15 -5 3 -15 -22 -84 45 -75 74 4 16 3 18 -5
6 -8 -12 -13 -12 -31 5 -11 10 -19 24 -16 31 2 6 -3 11 -12 10 -10 -1 -16 6
-16 16 1 10 -3 15 -8 12 -5 -4 -25 9 -44 27 -24 24 -32 39 -28 53 4 16 3 18
-5 6 -8 -12 -13 -12 -31 5 -11 10 -19 24 -16 31 2 6 -3 11 -12 10 -10 0 -16 6
-16 16 1 9 -4 14 -10 12 -14 -5 -79 62 -72 75 3 5 -2 8 -12 7 -13 -1 -16 6
-15 29 2 21 0 26 -7 15 -5 -8 -6 -18 -4 -22 6 -10 1 -10 -20 -2 -8 3 -12 12
-9 20 3 8 0 14 -7 14 -19 0 -77 55 -72 68 2 7 -2 12 -8 12 -19 0 -77 55 -72
68 2 7 -2 12 -8 12 -19 0 -77 55 -72 68 2 7 -2 12 -8 12 -19 0 -77 55 -72 68
2 7 -3 12 -10 12 -8 0 -24 11 -36 25 l-22 25 28 5 c15 4 35 10 44 16 10 5 25
9 33 9 9 0 18 6 21 14 3 8 19 20 35 26 16 7 29 16 29 20 0 4 19 12 43 19 23 7
53 19 67 26 14 7 42 16 62 20 20 4 39 13 42 21 3 8 14 14 24 14 10 0 34 8 54
18 30 16 34 22 26 38 -6 13 -4 12 8 -3 9 -13 22 -23 28 -23z m939 -1685 c4 -8
2 -17 -3 -20 -6 -4 -10 -4 -10 -1 0 2 -3 11 -6 20 -3 9 -2 16 4 16 5 0 12 -7
15 -15z m76 -551 c6 -25 8 -50 5 -56 -4 -6 -3 -8 4 -4 14 8 22 -6 26 -46 2
-18 9 -46 16 -63 8 -16 14 -32 15 -35 1 -3 6 -16 12 -30 14 -35 28 -79 64
-200 17 -58 40 -134 51 -170 11 -36 20 -73 21 -82 1 -9 5 -14 9 -12 4 3 8 -1
8 -9 0 -26 63 -161 109 -232 40 -64 124 -155 142 -155 4 0 9 -3 11 -7 2 -5 18
-17 37 -27 50 -28 166 -33 228 -11 42 15 53 26 86 80 21 35 42 76 46 91 5 19
13 -22 29 -142 55 -417 54 -686 -4 -1006 -4 -21 -11 -35 -16 -32 -6 4 -8 -2
-4 -14 4 -12 -2 -43 -14 -74 -35 -85 -141 -300 -165 -333 -11 -16 -27 -45 -35
-63 -10 -25 -15 -30 -22 -20 -6 9 -8 7 -3 -8 3 -13 -2 -31 -15 -47 -11 -14
-20 -28 -20 -31 0 -6 -112 -182 -128 -201 -4 -5 -19 -29 -33 -53 -14 -23 -29
-39 -34 -35 -4 5 -5 3 -2 -3 4 -7 -1 -22 -11 -35 -10 -13 -24 -36 -31 -52 -8
-15 -17 -27 -21 -27 -4 0 -24 -26 -45 -57 -22 -32 -57 -79 -78 -105 -21 -27
-36 -48 -32 -48 8 0 -51 -76 -102 -130 -18 -19 -33 -38 -33 -41 0 -3 -15 -22
-32 -42 -18 -20 -44 -49 -58 -65 -110 -128 -201 -224 -244 -257 -14 -11 -26
-26 -26 -33 0 -7 -8 -16 -17 -19 -10 -4 -29 -17 -42 -29 -14 -13 -28 -21 -33
-18 -4 3 -5 -1 -2 -9 3 -8 -9 -21 -31 -33 -20 -10 -43 -29 -51 -41 -8 -13 -21
-23 -29 -23 -8 0 -15 -5 -15 -11 0 -6 -9 -8 -21 -4 -15 5 -19 4 -14 -5 8 -13
-23 -52 -36 -44 -5 3 -9 1 -9 -5 0 -6 -12 -10 -27 -10 -62 -1 -73 -3 -78 -12
-4 -5 0 -9 8 -9 8 0 18 -7 21 -16 5 -12 1 -14 -15 -9 -13 5 -19 3 -15 -3 3 -5
-1 -13 -10 -16 -8 -3 -12 -2 -9 4 3 6 2 10 -3 10 -5 0 -12 -9 -15 -21 -3 -12
-10 -18 -16 -14 -6 3 -11 1 -11 -6 0 -7 -3 -10 -6 -6 -5 5 51 86 116 167 11
14 20 31 20 39 0 7 6 11 14 8 8 -3 20 1 27 9 7 8 8 14 3 12 -16 -5 -15 11 1
43 14 26 18 29 32 17 15 -12 15 -11 5 9 -10 17 -9 22 4 27 9 3 14 13 11 20 -3
8 1 20 9 26 8 7 14 18 14 24 0 22 39 55 60 51 18 -3 19 -1 9 17 -11 21 -12 21
-25 3 -25 -34 -15 -6 23 63 40 74 48 82 74 77 13 -3 16 1 12 12 -5 12 -7 12
-14 1 -7 -10 -9 -10 -9 2 0 13 -1 13 -10 0 -13 -20 -13 -4 1 21 8 16 13 18 25
8 15 -13 20 1 5 16 -6 6 3 37 24 80 18 39 34 63 35 55 1 -8 6 -3 12 13 10 27
28 37 28 15 0 -6 3 -8 6 -5 4 4 1 14 -6 22 -12 15 -15 14 -26 -7 -16 -29 -17
-21 -3 21 6 17 15 31 19 31 4 0 7 8 6 18 -1 11 5 16 17 14 9 -2 17 2 17 8 0 6
-5 8 -11 4 -9 -5 -10 1 -5 22 4 16 7 34 8 41 1 7 6 11 11 10 5 -1 12 4 15 12
2 8 0 11 -6 7 -7 -4 -7 5 1 29 9 30 13 33 26 22 14 -10 14 -10 3 4 -10 14 -7
33 18 115 17 55 36 117 41 139 6 22 15 54 20 70 6 17 12 44 14 62 2 18 6 36 9
41 3 5 8 31 12 58 3 27 9 53 12 59 3 5 7 21 9 35 1 14 7 57 13 95 6 39 16 117
21 175 6 58 15 107 20 108 5 2 9 8 9 13 0 6 -5 7 -11 3 -9 -5 -10 2 -6 22 4
16 6 144 6 284 0 140 -2 268 -6 284 -4 20 -3 27 6 22 6 -4 11 -2 11 3 0 6 -4
11 -10 11 -5 0 -10 18 -10 40 0 22 5 40 10 40 6 0 10 7 10 15 0 9 6 12 17 8
10 -4 14 -2 10 4 -9 14 32 65 45 57 7 -4 8 -2 4 4 -4 6 1 24 11 39 25 40 41
55 45 43 2 -6 4 20 6 56 4 91 -1 96 -110 92 -49 -1 -84 -4 -77 -7 20 -6 -48
-30 -70 -24 -22 6 -65 88 -55 104 3 5 0 8 -7 7 -6 -2 -16 13 -21 32 -6 19 -14
40 -20 47 -7 9 -5 17 6 28 9 9 16 21 16 28 0 6 -6 2 -14 -9 -17 -23 -16 -25
-54 56 -19 41 -27 69 -21 75 14 14 11 29 -4 17 -10 -8 -16 -6 -26 9 -7 12 -10
24 -7 27 3 3 6 -1 6 -9 0 -12 2 -11 11 1 9 13 10 12 5 -2 -7 -24 1 -23 14 1 8
17 7 19 -8 16 -10 -2 -23 0 -29 3 -10 7 -47 71 -48 84 0 4 -17 30 -37 57 -40
53 -48 72 -23 51 28 -23 15 -4 -17 26 -18 16 -26 21 -19 12 18 -24 9 -23 -36
5 -34 19 -52 22 -153 22 -87 0 -126 -4 -162 -18 -27 -11 -57 -16 -70 -12 -18
5 -20 4 -8 -4 11 -8 12 -11 2 -11 -20 0 -156 -61 -165 -74 -6 -7 -7 -6 -4 4 2
8 14 20 26 26 12 6 22 14 21 18 -1 14 33 56 46 56 8 0 14 7 14 15 0 16 63 81
95 97 l20 11 -20 -24 c-11 -13 -13 -18 -4 -11 9 6 19 10 22 7 4 -3 5 -2 2 2
-3 3 3 16 12 27 17 20 17 20 1 7 -24 -18 -23 1 1 23 10 9 25 14 33 11 8 -3 23
3 33 15 10 11 15 20 10 20 -4 0 -1 8 6 18 11 15 11 15 -1 4 -8 -7 -15 -17 -15
-23 0 -5 -4 -9 -9 -8 -5 0 -12 -5 -16 -11 -5 -8 -10 -8 -14 -2 -3 5 9 21 27
35 17 13 44 35 58 48 57 53 128 109 138 109 5 0 17 7 26 16 9 9 32 28 52 41
33 22 37 23 59 8 15 -10 24 -11 24 -4 0 6 -9 13 -20 16 -11 3 -17 10 -14 15 3
5 12 7 20 4 8 -3 13 0 11 7 -1 7 7 11 20 9 12 -2 24 2 28 7 4 7 -1 8 -12 5
-13 -5 -11 -1 5 11 19 14 25 15 39 3 11 -8 14 -9 10 -1 -9 15 28 37 45 27 7
-5 8 -3 3 6 -6 10 -4 12 8 7 9 -3 17 -2 19 4 2 5 12 11 23 13 11 2 29 8 39 12
15 6 17 4 11 -7 -7 -10 -2 -9 15 3 17 11 46 17 86 17 l62 1 11 -46z m-619
-4183 c0 -11 -31 -24 -39 -16 -3 3 1 10 9 15 19 12 30 12 30 1z"/>
<path d="M5949 21030 c-6 -4 15 -7 45 -6 30 0 53 3 50 5 -7 8 -83 8 -95 1z"/>
<path d="M5733 20948 c16 -8 87 -6 87 3 0 4 -22 6 -49 6 -27 -1 -44 -5 -38 -9z"/>
<path d="M5246 20709 c2 -4 1 -9 -3 -12 -5 -2 -1 -2 7 1 8 3 25 5 37 6 38 2
33 11 -7 11 -21 0 -36 -3 -34 -6z"/>
<path d="M5051 20595 c0 -12 -6 -26 -13 -33 -9 -9 -9 -12 0 -12 16 0 25 23 19
47 -4 16 -5 15 -6 -2z"/>
<path d="M3927 19535 c-4 -8 -15 -15 -26 -15 -11 0 -22 -4 -25 -8 -3 -5 9 -6
25 -4 28 4 49 26 36 38 -2 3 -7 -2 -10 -11z"/>
<path d="M3770 19359 c0 -5 -5 -7 -12 -3 -7 4 -8 3 -4 -4 4 -7 2 -12 -5 -12
-7 0 -9 -3 -6 -6 4 -4 13 -2 20 4 8 7 17 9 21 5 4 -4 4 0 0 10 -7 19 -14 22
-14 6z"/>
<path d="M3271 18348 c-1 -16 4 -28 9 -28 12 0 12 8 0 35 -8 18 -9 17 -9 -7z"/>
<path d="M3047 17733 c-2 -5 -1 -17 3 -27 6 -19 7 -19 12 2 6 21 -6 40 -15 25z"/>
<path d="M3031 17628 c-1 -16 4 -28 9 -28 12 0 12 8 0 35 -8 18 -9 17 -9 -7z"/>
<path d="M2878 17234 c-2 -5 1 -19 7 -32 l13 -23 6 27 c4 14 5 29 1 32 -3 3
-5 -3 -6 -14 0 -19 -1 -19 -8 0 -4 11 -10 15 -13 10z"/>
<path d="M2296 16647 c-16 -12 -164 -155 -329 -317 -352 -346 -336 -330 -342
-330 -11 0 -149 -137 -171 -170 -13 -19 -36 -53 -51 -75 -62 -87 -233 -413
-233 -442 0 -4 -10 -32 -22 -61 -19 -45 -20 -55 -8 -62 23 -14 35 -1 109 115
39 61 80 121 91 133 11 13 20 28 20 33 0 5 6 17 14 26 8 10 50 66 93 124 102
138 132 171 233 251 146 116 411 397 535 570 105 147 126 180 123 201 -4 29
-27 31 -62 4z"/>
<path d="M2580 16081 c0 -11 -2 -25 -3 -33 -2 -7 -2 -10 0 -5 3 4 8 5 12 3 4
-3 5 8 3 25 -5 33 -12 39 -12 10z"/>
<path d="M2656 14021 c-3 -5 1 -26 9 -47 l15 -39 -7 35 c-3 19 -6 41 -6 48 0
14 -4 15 -11 3z"/>
<path d="M572 13613 c-1 -74 -6 -123 -12 -123 -5 0 -10 -12 -9 -27 0 -16 3
-21 6 -13 2 8 9 24 14 35 5 11 8 72 6 135 l-3 115 -2 -122z"/>
<path d="M2861 13330 c0 -3 6 -25 13 -50 8 -25 15 -36 15 -25 0 17 -26 88 -28
75z"/>
<path d="M2945 13150 c9 -30 13 -35 21 -27 3 3 -2 16 -11 29 l-17 23 7 -25z"/>
<path d="M2794 12994 c0 -19 4 -34 8 -34 4 0 8 13 8 29 0 17 -4 32 -8 35 -4 2
-8 -11 -8 -30z"/>
<path d="M2598 12923 c7 -3 10 -8 8 -11 -2 -4 13 -7 34 -7 40 0 45 9 7 12 -12
0 -31 3 -42 6 -11 2 -14 2 -7 0z"/>
<path d="M2895 12767 c-17 -21 -16 -37 2 -30 10 4 14 2 10 -4 -3 -5 0 -10 8
-10 13 0 13 3 1 16 -7 9 -11 22 -9 29 6 15 1 15 -12 -1z"/>
<path d="M3206 12597 c4 -22 14 -35 15 -21 0 5 2 16 4 25 1 9 -3 16 -10 16 -8
0 -12 -9 -9 -20z"/>
<path d="M3560 12192 c0 -16 30 -23 48 -11 15 9 15 10 -2 5 -10 -4 -25 -1 -32
5 -9 7 -14 8 -14 1z"/>
<path d="M4395 12115 c11 -9 19 -21 17 -27 -2 -7 3 -6 12 2 17 13 21 21 9 18
-5 -1 -19 3 -33 10 -24 13 -24 12 -5 -3z"/>
<path d="M4470 12040 c0 -5 5 -10 11 -10 5 0 7 -6 3 -12 -5 -9 -2 -9 9 1 13
11 17 11 17 1 0 -8 2 -11 5 -8 3 3 2 13 -1 22 -5 14 -9 15 -15 4 -7 -10 -9
-10 -9 0 0 6 -4 12 -10 12 -5 0 -10 -4 -10 -10z"/>
<path d="M4947 10493 c-4 -6 0 -19 8 -29 11 -15 14 -16 15 -4 0 21 -16 44 -23
33z"/>
<path d="M7393 21139 c7 -4 39 -9 72 -11 33 -3 49 -4 36 -1 -13 3 -19 8 -14
11 6 4 -15 7 -47 7 -32 0 -53 -3 -47 -6z"/>
<path d="M6899 20859 c-6 -23 -3 -86 3 -82 5 2 6 14 2 25 -3 12 -2 18 3 15 11
-7 10 29 0 39 -4 4 -7 5 -8 3z"/>
<path d="M7010 20745 c0 -9 5 -15 11 -13 6 2 11 8 11 13 0 5 -5 11 -11 13 -6
2 -11 -4 -11 -13z"/>
<path d="M6724 20217 c3 -14 2 -29 -4 -32 -5 -3 -10 -12 -10 -18 1 -19 30 25
30 44 0 10 -5 21 -11 25 -8 5 -10 -1 -5 -19z"/>
<path d="M10520 19609 c-19 -6 -42 -13 -50 -16 -8 -4 -19 -7 -25 -8 -13 -2
-103 -56 -120 -72 -8 -7 -17 -13 -20 -13 -10 0 -45 -45 -77 -99 -32 -53 -34
-63 -13 -55 8 4 15 12 15 19 0 37 174 166 200 150 6 -4 10 -2 10 3 0 14 95 32
170 32 71 0 80 6 80 51 0 17 -7 19 -67 18 -38 0 -84 -5 -103 -10z"/>
<path d="M10805 18565 c-124 -27 -271 -111 -320 -183 -47 -69 -28 -149 41
-178 100 -42 327 31 441 141 99 96 88 200 -24 226 -48 11 -65 10 -138 -6z m11
-141 c20 -19 24 -31 19 -52 -16 -65 -128 -134 -223 -136 -46 -1 -57 3 -73 23
-46 56 22 138 146 177 65 21 103 17 131 -12z"/>
<path d="M12298 10802 c-64 -21 -122 -42 -127 -47 -6 -6 -25 -100 -43 -210
-31 -194 -32 -199 -44 -160 -7 22 -31 100 -54 174 l-42 133 -36 -5 c-60 -8
-213 -59 -218 -72 -4 -10 86 -311 237 -792 6 -17 16 -34 24 -37 20 -7 235 62
241 79 3 7 -17 87 -45 177 -27 89 -45 156 -38 147 39 -51 252 -279 260 -279 6
0 63 16 126 36 64 19 123 37 133 40 44 13 27 37 -143 202 l-171 167 45 230
c42 216 45 258 18 254 -3 0 -59 -17 -123 -37z"/>
<path d="M11313 10505 c-120 -34 -207 -98 -247 -184 -17 -38 -21 -65 -21 -151
0 -91 5 -119 34 -210 44 -139 83 -211 147 -269 62 -57 124 -81 203 -81 156 1
293 77 351 196 21 42 24 63 24 149 -1 84 -6 117 -33 204 -58 189 -118 278
-217 327 -67 33 -165 41 -241 19z m121 -268 c45 -45 112 -267 95 -316 -10 -29
-44 -51 -79 -51 -30 0 -66 54 -94 137 -55 170 -56 211 -8 238 38 20 60 18 86
-8z"/>
<path d="M10553 10259 c-55 -17 -96 -37 -101 -47 -10 -18 158 -574 198 -657
44 -91 118 -130 230 -122 79 5 232 54 271 86 l21 17 -31 102 c-24 76 -36 102
-48 102 -10 0 -55 -12 -101 -26 -46 -14 -89 -23 -95 -21 -6 2 -52 136 -103
298 l-91 294 -29 2 c-16 1 -71 -11 -121 -28z"/>
<path d="M10041 10110 c-127 -34 -194 -85 -207 -158 -6 -30 63 -684 83 -786 6
-33 10 -33 163 14 69 22 100 36 102 48 2 9 0 43 -5 76 -5 32 -5 62 0 66 4 5
38 17 74 28 l67 19 28 -59 c16 -33 35 -63 44 -68 9 -5 61 6 135 29 102 32 120
40 118 57 -2 17 -308 606 -353 679 -42 68 -129 87 -249 55z m114 -359 c30 -62
55 -116 55 -121 0 -4 -11 -11 -24 -14 -13 -3 -31 -8 -39 -12 -12 -4 -18 17
-32 108 -9 62 -19 124 -22 138 -9 41 3 20 62 -99z"/>
<path d="M8630 9901 c-77 -24 -87 -30 -105 -64 -21 -39 -23 -40 -81 -16 -27
11 -42 9 -118 -15 -54 -17 -86 -32 -86 -41 0 -12 123 -109 153 -121 13 -5 267
72 279 84 13 13 68 184 62 193 -7 12 -5 12 -104 -20z"/>
<path d="M9275 9870 c-93 -24 -230 -75 -280 -103 -63 -36 -62 -46 70 -469 63
-205 120 -377 125 -382 12 -12 231 56 243 75 7 11 -2 54 -31 145 -22 72 -36
133 -32 138 8 8 50 -33 197 -194 l41 -44 113 33 c135 41 149 47 149 67 0 9
-54 72 -120 142 -108 113 -119 127 -105 141 87 97 40 348 -81 430 -66 46 -169
53 -289 21z m123 -242 c16 -21 24 -58 18 -83 -4 -17 -21 -29 -62 -45 -31 -11
-58 -19 -59 -18 -9 10 -35 121 -30 127 11 11 69 29 96 30 15 1 31 -5 37 -11z"/>
<path d="M8610 9655 c-91 -29 -204 -65 -252 -80 -81 -24 -88 -28 -88 -52 0
-37 48 -189 64 -202 11 -9 37 -4 108 19 52 16 102 30 110 30 12 0 5 -41 -38
-221 -30 -122 -54 -233 -54 -247 0 -41 49 -189 64 -195 18 -7 526 150 545 168
11 11 9 28 -16 111 -17 54 -37 103 -46 108 -11 7 -46 1 -122 -23 -59 -18 -109
-31 -110 -29 -2 2 21 100 50 218 30 118 54 229 54 245 0 17 -13 68 -28 115
-23 75 -29 85 -51 87 -14 1 -99 -23 -190 -52z"/>
<path d="M7845 9190 c-188 -46 -248 -183 -180 -405 34 -113 53 -150 100 -197
76 -76 197 -89 310 -34 130 64 164 181 109 371 -14 49 -34 106 -44 126 -60
117 -172 170 -295 139z m88 -208 c18 -20 41 -78 63 -161 12 -48 12 -57 -1 -78
-21 -31 -69 -31 -89 0 -16 25 -66 180 -66 204 0 45 63 69 93 35z"/>
<path d="M11492 9153 c-19 -9 -38 -28 -44 -42 -11 -28 17 -470 30 -482 4 -4
29 0 56 8 l49 14 -6 63 -6 63 54 15 54 15 26 -49 c18 -32 33 -48 46 -48 21 0
89 26 89 34 0 17 -207 385 -226 404 -30 26 -75 28 -122 5z m106 -261 c-17 -7
-32 -11 -34 -10 -2 2 -6 42 -9 88 l-6 85 40 -75 39 -75 -30 -13z"/>
<path d="M7315 9023 c-62 -13 -237 -79 -255 -95 -11 -10 -20 -29 -20 -42 0
-30 166 -566 179 -579 10 -10 150 24 181 43 11 7 8 28 -18 111 -17 57 -29 105
-26 108 3 3 41 -34 85 -82 58 -62 87 -87 104 -87 40 0 185 50 185 64 0 7 -40
55 -88 107 l-88 94 20 35 c39 66 18 207 -42 274 -39 44 -138 67 -217 49z m65
-202 c20 -38 12 -61 -26 -77 -47 -20 -59 -14 -71 35 -10 38 -9 41 16 50 42 15
70 12 81 -8z"/>
<path d="M11033 9008 c-40 -13 -40 -18 -18 -252 9 -87 14 -160 12 -162 -1 -2
-42 73 -91 166 -48 93 -91 172 -96 175 -17 11 -100 -19 -100 -35 0 -22 195
-379 221 -405 39 -40 147 -13 167 43 6 19 4 99 -7 252 -18 250 -14 242 -88
218z"/>
<path d="M6830 8868 c-36 -11 -69 -23 -74 -28 -4 -4 6 -53 23 -108 17 -55 31
-105 31 -110 0 -5 -20 -15 -44 -21 -24 -6 -51 -13 -59 -17 -13 -5 -22 15 -48
100 -26 87 -36 106 -52 106 -33 0 -169 -43 -174 -56 -4 -11 179 -609 190 -620
10 -10 178 47 184 62 3 8 -9 59 -26 113 -17 54 -31 101 -31 105 0 10 112 38
120 30 4 -5 22 -55 39 -111 18 -57 35 -103 39 -103 4 0 46 12 95 26 70 22 87
31 87 47 0 10 -41 151 -92 313 -105 336 -85 310 -208 272z"/>
<path d="M10281 8773 c-54 -27 -56 -38 -37 -295 9 -127 19 -234 21 -237 3 -2
26 2 53 10 l47 15 0 64 c0 63 0 63 35 76 61 22 75 18 95 -26 10 -22 23 -45 30
-50 15 -13 105 17 105 35 0 18 -198 375 -223 403 -25 27 -77 29 -126 5z m131
-255 c-4 -4 -19 -9 -33 -13 -25 -6 -26 -4 -32 47 -4 29 -7 69 -6 88 0 33 2 31
39 -40 21 -41 35 -78 32 -82z"/>
<path d="M6290 8703 c-101 -17 -187 -70 -222 -135 -30 -58 -29 -156 1 -263 65
-226 163 -308 328 -275 65 13 153 57 153 76 0 18 -41 148 -49 157 -4 4 -28 -1
-52 -11 -79 -34 -97 -35 -123 -9 -22 22 -76 166 -76 203 0 28 46 62 103 75 43
9 57 17 57 30 0 35 -41 147 -56 153 -16 6 -22 6 -64 -1z"/>
<path d="M9632 8565 c-24 -11 -32 -19 -28 -32 98 -340 111 -376 138 -405 27
-29 31 -30 91 -25 34 3 84 14 111 26 48 21 48 22 43 58 -9 53 -19 59 -75 44
-98 -28 -87 -34 -120 75 -17 55 -42 138 -56 187 -29 96 -37 101 -104 72z"/>
<path d="M5800 8547 c-41 -14 -66 -28 -68 -39 -2 -9 13 -67 32 -129 l35 -112
-27 24 c-15 14 -64 59 -109 102 -46 42 -88 77 -95 77 -16 0 -102 -26 -140 -41
-16 -7 -28 -19 -28 -30 0 -26 177 -590 189 -602 11 -11 181 38 181 53 0 4 -16
59 -35 120 -19 61 -35 115 -35 118 0 4 33 -25 73 -63 39 -39 89 -85 109 -104
l37 -34 85 27 c85 26 86 27 85 59 0 18 -40 158 -88 312 -100 320 -85 301 -201
262z"/>
<path d="M9166 8424 c-134 -32 -182 -102 -141 -201 25 -58 43 -72 134 -99 85
-25 125 -52 115 -78 -7 -18 -37 -31 -107 -46 -57 -13 -58 -14 -51 -44 15 -70
21 -73 106 -55 119 25 173 77 172 165 -2 95 -47 138 -171 164 -125 25 -124 63
0 95 83 21 86 25 66 84 -13 36 -28 38 -123 15z"/>
<path d="M5230 8370 l-85 -28 -3 -127 -3 -128 -65 94 c-37 52 -70 98 -75 103
-13 15 -199 -44 -199 -63 0 -25 237 -310 264 -317 19 -4 28 -23 60 -125 24
-79 41 -119 51 -119 8 0 50 11 94 25 96 31 94 25 49 167 -27 87 -30 103 -18
121 12 21 50 392 42 416 -5 15 -14 13 -112 -19z"/>
<path d="M8613 8247 c-18 -7 -37 -17 -42 -22 -7 -7 12 -84 57 -235 37 -124 70
-230 74 -237 6 -8 20 -7 55 3 25 8 49 16 51 19 6 6 -127 456 -140 473 -12 14
-13 14 -55 -1z"/>
<path d="M4621 8185 c-190 -42 -268 -119 -241 -240 27 -122 68 -152 278 -205
32 -8 42 -15 40 -28 -3 -16 -26 -24 -175 -57 -28 -6 -28 -22 -4 -100 l19 -60
84 1 c199 3 327 118 299 269 -21 109 -69 148 -221 180 -47 9 -92 21 -100 25
-16 9 50 31 150 51 70 14 72 19 39 117 l-21 62 -41 -1 c-23 0 -71 -7 -106 -14z"/>
<path d="M8086 8081 c-82 -26 -151 -52 -153 -58 -6 -16 16 -93 26 -93 5 0 28
7 52 15 23 9 46 12 49 8 4 -5 31 -87 59 -183 29 -96 56 -179 61 -184 5 -5 28
-4 54 4 37 10 46 17 46 35 0 12 -22 97 -50 188 -27 91 -50 171 -50 176 0 6 21
16 46 22 25 7 48 17 50 23 6 15 -20 89 -32 92 -5 1 -76 -19 -158 -45z"/>
<path d="M7473 7891 c-66 -31 -67 -32 -47 -303 l18 -240 39 6 c74 12 80 20 73
87 -7 58 -6 59 21 70 15 6 42 13 58 16 28 5 33 1 59 -46 15 -28 31 -51 35 -51
22 0 101 33 101 43 0 21 -223 408 -243 422 -29 20 -63 19 -114 -4z m96 -177
c23 -41 41 -77 41 -79 0 -3 -58 -25 -66 -25 -1 0 -5 19 -8 43 -12 103 -15 137
-12 137 2 0 23 -34 45 -76z"/>
<path d="M6779 7676 c-92 -33 -109 -44 -109 -68 0 -25 128 -449 138 -460 4 -4
27 -1 52 6 55 16 59 30 31 121 -34 110 -14 113 86 13 l72 -71 52 14 c29 8 54
19 56 26 2 6 -28 45 -66 86 l-71 74 21 48 c19 44 20 53 9 103 -8 36 -23 66
-45 90 -30 33 -37 36 -96 39 -47 2 -81 -4 -130 -21z m127 -94 c20 -13 35 -52
29 -73 -7 -22 -85 -63 -97 -51 -3 4 -13 30 -21 58 l-15 52 31 10 c40 13 59 14
73 4z"/>
<path d="M6115 7466 c-100 -32 -115 -42 -115 -74 0 -46 124 -434 142 -446 36
-22 208 31 260 81 62 59 58 167 -8 221 -24 20 -31 31 -24 42 29 45 -8 158 -59
184 -42 22 -113 19 -196 -8z m142 -115 c20 -41 2 -62 -74 -85 -24 -8 -31 3
-47 66 -5 22 -2 28 22 37 45 16 85 9 99 -18z m63 -193 c18 -33 8 -56 -32 -75
-54 -27 -69 -22 -84 27 -18 59 -18 57 14 69 46 17 85 9 102 -21z"/>
<path d="M10298 5380 c18 -18 36 -29 40 -24 4 5 6 8 3 7 -2 -1 -20 10 -40 24
l-36 27 33 -34z"/>
<path d="M10547 5213 c-13 -12 -7 -26 6 -15 6 5 21 12 32 15 16 4 15 5 -6 6
-14 0 -29 -2 -32 -6z"/>
<path d="M10897 4233 c-3 -15 -2 -36 2 -47 5 -13 8 -5 8 27 1 53 -2 60 -10 20z"/>
<path d="M10945 4100 c9 -31 11 -33 24 -29 5 2 0 15 -11 29 l-21 25 8 -25z"/>
<path d="M11046 3844 c-4 -9 -4 -19 -1 -22 3 -3 5 0 5 6 0 7 7 12 16 12 8 0
12 5 9 10 -9 15 -22 12 -29 -6z"/>
<path d="M10087 4406 c-3 -8 -16 -16 -29 -19 -20 -4 -20 -4 5 -6 25 -1 48 22
34 35 -2 3 -7 -2 -10 -10z"/>
<path d="M9936 4311 c-11 -12 -14 -21 -7 -26 6 -3 12 -4 12 -1 1 3 2 9 3 14 1
4 5 13 9 20 12 18 2 15 -17 -7z"/>
<path d="M10055 4080 c-17 -7 -15 -9 13 -9 17 -1 32 4 32 9 0 12 -17 12 -45 0z"/>
<path d="M10657 2923 c-10 -9 -9 -481 1 -486 4 -3 7 107 7 244 0 137 0 249 -1
249 0 0 -4 -3 -7 -7z"/>
<path d="M10551 1858 c-1 -16 4 -28 9 -28 12 0 12 8 0 35 -8 18 -9 17 -9 -7z"/>
<path d="M10500 1671 c0 -11 -2 -25 -3 -33 -2 -7 -2 -10 0 -5 3 4 8 5 12 3 4
-3 5 8 3 25 -5 33 -12 39 -12 10z"/>
<path d="M10095 639 c0 -20 3 -35 8 -32 4 2 5 14 1 25 -3 11 -2 18 3 15 5 -3
9 2 9 12 0 10 -5 18 -11 18 -6 0 -10 -17 -10 -38z"/>
<path d="M10270 670 c-8 -5 -11 -13 -6 -17 5 -4 11 -2 13 5 4 10 8 10 21 0 15
-12 16 -11 3 5 -7 9 -14 17 -15 17 0 0 -8 -4 -16 -10z"/>
</g>
</svg>
