<svg role="img" aria-label="SYNCHRO ŽRALOK BRATISLAVA" version="1.0" xmlns="http://www.w3.org/2000/svg"
 width="100%" height="100%" viewBox="0 0 3668.000000 2122.000000"
 preserveAspectRatio="xMidYMid meet">

<g transform="translate(0.000000,2122.000000) scale(0.100000,-0.100000)"
fill="currentColor" stroke="none">
<path d="M2260 20616 c0 -11 -34 -15 -160 -21 -126 -6 -160 -10 -160 -21 0
-10 -12 -14 -39 -14 -21 0 -66 -3 -100 -6 l-61 -7 0 -33 0 -34 -85 0 c-93 0
-149 -17 -285 -85 -200 -100 -396 -269 -499 -430 -48 -76 -51 -83 -51 -147 l0
-68 -40 0 -40 0 0 -75 c0 -68 -2 -75 -20 -75 -19 0 -20 -7 -20 -105 0 -98 -1
-105 -20 -105 -19 0 -20 -7 -20 -220 0 -213 1 -220 20 -220 19 0 20 -7 20
-115 0 -108 1 -115 20 -115 18 0 20 -7 20 -65 l0 -65 40 0 40 0 0 -67 c0 -56
5 -77 30 -121 84 -154 268 -361 425 -478 137 -103 214 -151 800 -499 637 -378
750 -451 847 -546 109 -106 144 -214 127 -385 -31 -300 -179 -408 -579 -421
-213 -7 -975 34 -1360 73 -176 18 -217 11 -254 -39 -20 -28 -21 -40 -24 -443
-3 -460 -3 -458 62 -502 104 -71 628 -165 1071 -193 278 -17 740 -7 920 20
637 97 1131 405 1364 850 163 312 217 739 141 1111 -43 211 -138 431 -253 590
-63 86 -232 250 -344 333 -154 114 -231 158 -843 489 -311 168 -607 331 -657
362 -263 162 -322 245 -311 438 7 108 38 178 105 237 91 81 232 111 518 111
237 0 919 -35 1475 -76 66 -5 93 -3 123 9 68 29 68 32 65 513 l-3 426 -37 33
c-53 49 -93 58 -280 62 l-168 5 0 32 0 33 -122 6 c-66 4 -147 7 -180 7 -42 0
-58 4 -58 13 0 11 -40 15 -182 20 -99 4 -225 7 -280 7 -80 0 -98 3 -98 15 0
13 -40 15 -300 15 -249 0 -300 -2 -300 -14z"/>
<path d="M18180 20615 c0 -12 -14 -15 -68 -15 -137 0 -252 -12 -252 -26 0 -11
-18 -14 -69 -14 -86 0 -131 -9 -131 -25 0 -9 -26 -15 -80 -20 -54 -5 -80 -11
-80 -20 0 -13 -43 -25 -91 -25 -26 0 -29 -3 -29 -35 l0 -35 -62 0 c-57 0 -70
-5 -161 -56 -189 -107 -378 -266 -508 -429 -127 -158 -256 -391 -340 -615 -43
-115 -43 -115 -47 -272 l-4 -158 -39 0 -39 0 0 -160 c0 -153 -1 -160 -20 -160
-20 0 -20 -7 -20 -640 0 -633 0 -640 20 -640 20 0 20 -7 20 -275 l0 -275 40 0
40 0 0 -139 c0 -158 12 -208 96 -409 248 -592 686 -973 1293 -1127 275 -69
490 -90 861 -82 348 7 625 39 890 103 120 29 185 58 214 98 20 27 21 40 24
440 3 459 1 474 -57 513 -43 29 -84 29 -421 3 -745 -58 -1010 -48 -1212 47
-270 128 -433 428 -477 877 -14 145 -14 1347 0 1492 50 518 256 832 605 924
187 49 461 49 1084 0 339 -26 378 -26 421 3 19 13 39 38 46 57 13 37 19 813 7
858 -4 15 -14 22 -30 22 -21 0 -24 5 -24 34 0 30 -4 34 -31 40 -17 3 -44 6
-60 6 -18 0 -29 5 -29 14 0 16 -43 26 -111 26 -37 0 -49 4 -49 15 0 11 -11 15
-39 15 -83 0 -161 13 -161 26 0 11 -19 14 -78 14 -171 0 -322 12 -322 27 0 10
-49 13 -260 13 -224 0 -260 -2 -260 -15z"/>
<path d="M27940 20615 c0 -13 -22 -15 -138 -15 -275 0 -502 -12 -502 -27 0 -9
-18 -13 -68 -13 -177 0 -372 -13 -372 -26 0 -8 -27 -14 -80 -19 -56 -5 -80
-11 -80 -20 0 -8 -17 -16 -40 -20 -25 -4 -40 -12 -40 -21 0 -8 -9 -14 -20 -14
-13 0 -20 -7 -20 -20 0 -13 -7 -20 -20 -20 -13 0 -20 -7 -20 -20 0 -13 -7 -20
-20 -20 -20 0 -20 -7 -20 -2640 l0 -2640 39 0 c33 0 40 -4 43 -22 2 -14 13
-25 28 -29 37 -10 999 -10 1044 0 48 12 103 64 116 111 6 22 10 390 10 978 l0
943 123 -7 c67 -4 199 -8 293 -8 l170 -1 495 -939 c542 -1029 551 -1046 582
-1067 18 -12 116 -14 607 -17 322 -2 605 0 629 3 62 9 91 41 91 102 0 44 -43
127 -551 1073 -304 564 -560 1039 -570 1056 l-19 31 123 62 c138 69 276 167
386 274 307 301 431 608 448 1117 9 291 -21 559 -88 762 -87 269 -258 515
-473 682 -124 97 -193 136 -243 136 -42 0 -43 1 -43 34 0 30 -4 34 -31 40 -17
3 -44 6 -60 6 -18 0 -29 5 -29 14 0 9 -15 17 -40 21 -25 4 -40 12 -40 21 0 9
-11 14 -29 14 -48 0 -91 12 -91 25 0 9 -26 15 -80 20 -58 5 -80 11 -80 21 0
10 -15 14 -59 14 -102 0 -181 12 -181 26 0 10 -16 14 -58 14 -152 0 -302 13
-302 27 0 11 -65 13 -360 13 -313 0 -360 -2 -360 -15z m735 -1115 c347 -60
544 -209 606 -460 21 -83 18 -394 -4 -484 -52 -207 -165 -323 -383 -395 -160
-52 -252 -63 -563 -68 -156 -3 -344 -2 -417 2 l-134 7 0 703 0 702 243 10
c299 13 508 8 652 -17z"/>
<path d="M33540 20616 c0 -11 -34 -15 -160 -21 -120 -5 -160 -11 -160 -20 0
-9 -25 -15 -80 -20 -55 -5 -80 -11 -80 -20 0 -9 -25 -15 -80 -20 -56 -5 -80
-11 -80 -20 0 -8 -17 -16 -40 -20 -25 -4 -40 -12 -40 -21 0 -9 -11 -14 -29
-14 -48 0 -91 -12 -91 -25 0 -8 -18 -16 -40 -20 -38 -6 -40 -9 -40 -41 0 -34
0 -34 -48 -34 -55 0 -96 -22 -227 -125 -259 -202 -478 -515 -609 -868 -34 -92
-36 -104 -36 -217 l0 -120 -40 0 -40 0 0 -135 c0 -128 -1 -135 -20 -135 -20 0
-20 -7 -20 -940 0 -933 0 -940 20 -940 19 0 20 -7 20 -125 0 -118 1 -125 20
-125 11 0 20 -7 20 -15 0 -8 9 -15 19 -15 18 0 20 -10 23 -117 3 -109 7 -125
42 -213 115 -286 245 -495 418 -675 372 -388 854 -575 1524 -592 404 -10 751
43 1056 163 607 239 1016 763 1163 1489 56 276 58 306 62 1085 5 733 0 870
-33 1100 -94 650 -389 1166 -839 1470 -59 40 -83 50 -115 50 -29 0 -40 4 -40
15 0 8 -9 15 -20 15 -13 0 -20 7 -20 19 0 15 -10 21 -40 26 -23 4 -40 12 -40
20 0 8 -17 16 -40 20 -25 4 -40 12 -40 21 0 10 -12 14 -40 14 -33 0 -40 3 -40
20 0 17 -7 20 -49 20 -67 0 -111 10 -111 25 0 9 -26 15 -80 20 -55 5 -80 11
-80 20 0 9 -40 15 -160 20 -126 6 -160 10 -160 21 0 12 -42 14 -240 14 -198 0
-240 -2 -240 -14z m365 -1126 c315 -36 535 -192 652 -463 47 -108 89 -277 107
-438 23 -195 23 -1403 0 -1598 -48 -417 -190 -678 -440 -808 -155 -81 -360
-115 -561 -94 -225 23 -368 85 -499 215 -116 116 -178 235 -229 440 -56 229
-60 290 -60 1041 0 718 3 777 45 986 26 128 63 237 114 334 58 112 181 236
292 293 164 84 364 116 579 92z"/>
<path d="M5123 20553 c-19 -4 -23 -11 -23 -39 0 -27 -4 -34 -20 -34 -18 0 -20
-7 -20 -60 0 -53 2 -60 20 -60 17 0 20 -7 20 -45 0 -38 3 -45 20 -45 18 0 20
-7 20 -55 0 -48 2 -55 20 -55 11 0 20 7 20 15 0 8 9 15 20 15 18 0 20 -7 20
-75 l0 -75 496 -1138 c498 -1141 550 -1255 609 -1347 69 -109 186 -222 293
-283 l62 -36 0 -1040 c0 -1031 0 -1040 21 -1082 12 -26 36 -53 57 -66 l37 -23
530 0 c512 0 531 1 564 20 19 11 43 33 55 48 21 28 21 29 24 1088 1 582 6
1059 11 1059 5 0 42 22 82 48 139 91 242 215 334 400 24 48 300 676 614 1396
469 1074 571 1316 571 1352 0 37 -3 44 -20 44 -16 0 -20 7 -20 34 l0 33 -61 7
c-80 8 -1106 8 -1148 0 -21 -5 -31 -12 -31 -25 0 -12 -7 -19 -20 -19 -13 0
-20 -7 -20 -20 0 -13 -7 -20 -20 -20 -15 0 -20 -7 -20 -29 0 -24 -746 -1994
-809 -2136 -25 -56 -47 -75 -87 -75 -40 0 -69 25 -91 78 -8 21 -188 489 -400
1042 -212 553 -391 1018 -399 1034 -8 16 -14 42 -14 58 0 21 -5 28 -20 28 -15
0 -20 7 -20 25 0 18 -5 25 -20 25 -11 0 -20 6 -20 14 0 10 -26 15 -99 20 -100
7 -1078 6 -1118 -1z"/>
<path d="M10803 20553 c-45 -3 -63 -8 -63 -18 0 -8 -16 -16 -40 -20 -30 -5
-40 -11 -40 -26 0 -12 -7 -19 -20 -19 -13 0 -20 -7 -20 -20 0 -13 -7 -20 -20
-20 -18 0 -20 -7 -20 -60 0 -53 -2 -60 -20 -60 -20 0 -20 -7 -20 -2580 0
-2573 0 -2580 20 -2580 17 0 20 -7 20 -41 l0 -41 40 7 c38 6 40 5 40 -18 0
-17 7 -27 23 -31 38 -10 909 -7 946 4 46 13 99 65 111 110 6 22 10 589 10
1556 0 1650 -3 1574 52 1516 15 -15 405 -682 868 -1482 462 -800 862 -1486
887 -1523 62 -92 113 -133 198 -160 68 -21 84 -22 510 -22 409 0 444 1 489 19
65 25 133 88 162 151 l24 50 0 2618 c0 2610 0 2617 -20 2617 -13 0 -20 7 -20
20 0 13 -7 20 -20 20 -11 0 -20 6 -20 14 0 7 -14 16 -31 20 -41 8 -597 8 -827
-1 -168 -6 -182 -8 -182 -25 0 -11 -7 -18 -20 -18 -13 0 -20 -7 -20 -20 0 -12
-7 -20 -17 -20 -17 0 -18 -83 -15 -1618 3 -1743 5 -1674 -46 -1619 -11 12
-415 708 -897 1547 -482 839 -883 1530 -891 1536 -8 6 -14 25 -14 43 0 24 -4
31 -20 31 -15 0 -20 7 -20 25 0 18 -5 25 -20 25 -13 0 -20 7 -20 20 0 13 -7
20 -20 20 -11 0 -20 6 -20 14 0 9 -15 17 -40 21 -22 4 -40 12 -40 19 0 9 -22
15 -61 20 -62 6 -719 5 -836 -1z"/>
<path d="M20883 20553 c-13 -2 -23 -10 -23 -18 0 -8 -17 -16 -40 -20 l-40 -7
0 -59 c0 -52 -2 -59 -20 -59 -16 0 -20 -7 -20 -35 0 -28 4 -35 20 -35 17 0 20
-7 20 -40 0 -33 3 -40 20 -40 17 0 20 -7 20 -45 0 -38 -3 -45 -20 -45 -17 0
-20 7 -20 40 0 33 -3 40 -20 40 -17 0 -20 -7 -20 -40 0 -33 3 -40 20 -40 20 0
20 -7 20 -2395 0 -2388 0 -2395 20 -2395 13 0 20 -7 20 -19 0 -15 -10 -21 -40
-26 -37 -6 -40 -9 -40 -40 0 -31 3 -34 40 -40 l40 -7 0 -88 0 -88 33 -13 c26
-11 135 -14 557 -14 583 0 562 -2 612 67 l23 33 3 1098 2 1097 905 0 905 0 0
-1082 c0 -1034 1 -1085 19 -1124 12 -25 33 -50 57 -65 l39 -24 530 0 c589 0
567 -2 617 67 l23 33 3 2515 c2 1383 0 2588 -3 2678 -7 150 -9 162 -26 162
-12 0 -19 7 -19 20 0 13 -7 20 -20 20 -11 0 -20 6 -20 13 0 19 -203 27 -650
27 -380 0 -470 -5 -470 -26 0 -8 -9 -14 -20 -14 -13 0 -20 -7 -20 -20 0 -13
-7 -20 -20 -20 -20 0 -20 -7 -20 -1020 l0 -1020 -906 0 -905 0 3 1020 c3 966
2 1020 -14 1020 -10 0 -18 7 -18 15 0 8 -9 15 -20 15 -13 0 -20 7 -20 19 0 15
-11 19 -61 25 -67 7 -1000 6 -1036 -1z"/>
<path d="M1180 13770 c0 -13 -7 -20 -20 -20 -18 0 -20 -7 -20 -75 l0 -75 28
-1 c24 0 76 -62 427 -506 220 -278 424 -527 453 -554 29 -26 70 -53 90 -59 55
-15 2148 -14 2209 2 34 8 60 25 102 67 31 31 234 280 450 554 317 399 399 497
418 497 22 0 23 3 23 74 l0 74 -40 7 c-25 4 -40 12 -40 21 0 12 -107 14 -720
14 -604 0 -720 -2 -720 -14 0 -14 -42 -26 -91 -26 -22 0 -29 -5 -29 -20 0 -13
-7 -20 -20 -20 -13 0 -20 -7 -20 -20 0 -13 -7 -20 -20 -20 -16 0 -20 -7 -20
-35 0 -30 -4 -35 -22 -35 -14 -1 -54 -30 -103 -76 -44 -41 -119 -111 -167
-155 l-87 -81 -165 156 c-125 119 -170 156 -190 156 -23 0 -26 4 -26 35 0 28
-4 35 -20 35 -13 0 -20 7 -20 20 0 13 -7 20 -20 20 -13 0 -20 7 -20 19 0 19
-34 31 -91 31 -19 0 -29 5 -29 15 0 13 -89 15 -740 15 -733 0 -740 0 -740 -20z"/>
<path d="M8380 12097 c0 -16 -231 -27 -562 -27 -160 0 -198 -3 -198 -14 0 -18
-85 -26 -281 -26 -127 0 -159 -3 -159 -14 0 -14 -79 -26 -181 -26 l-59 0 0
-35 0 -35 -103 0 c-104 0 -104 0 -163 -39 -68 -44 -100 -76 -143 -145 l-31
-50 0 -168 c0 -161 -1 -168 -20 -168 -18 0 -20 -7 -20 -60 0 -53 2 -60 20 -60
13 0 20 -7 20 -20 0 -13 -7 -20 -20 -20 -20 0 -20 -7 -20 -2880 0 -2873 0
-2880 20 -2880 17 0 20 -7 20 -53 0 -52 1 -54 39 -75 l39 -22 944 2 945 3 37
29 c21 16 47 47 57 70 18 39 19 88 19 1119 l0 1078 141 -3 140 -3 554 -1094
c305 -602 567 -1111 583 -1130 61 -76 -23 -71 1115 -71 1116 0 1047 -4 1100
60 32 38 43 105 27 157 -7 21 -291 562 -631 1203 -340 641 -621 1172 -624
1181 -5 13 12 27 72 59 406 223 700 580 852 1036 87 261 105 425 98 871 -5
346 -17 469 -68 683 -33 143 -115 374 -165 470 -219 414 -582 710 -1084 884
-85 30 -115 36 -186 36 -68 0 -84 3 -84 15 0 8 -9 15 -20 15 -13 0 -20 7 -20
20 0 18 -7 20 -69 20 -87 0 -131 9 -131 26 0 10 -16 14 -59 14 -102 0 -181 12
-181 26 0 11 -24 14 -108 14 -174 0 -292 11 -292 26 0 12 -100 14 -580 14
-479 0 -580 -2 -580 -13z m1148 -1825 c102 -27 151 -51 209 -105 106 -98 137
-205 131 -455 -5 -182 -11 -209 -73 -307 -69 -109 -154 -169 -292 -207 -73
-20 -106 -22 -500 -26 l-423 -4 0 567 0 567 433 -5 c402 -4 438 -5 515 -25z"/>
<path d="M15340 12096 c0 -15 -117 -26 -272 -26 -68 0 -88 -3 -88 -14 0 -16
-43 -26 -111 -26 -35 0 -49 -4 -49 -14 0 -10 -22 -16 -80 -21 l-80 -7 0 -34 0
-34 -75 0 c-69 0 -83 -4 -163 -44 -354 -179 -568 -480 -651 -916 -23 -118
-770 -3919 -977 -4968 -127 -644 -126 -634 -63 -686 l31 -26 999 0 c858 0
1004 2 1028 15 32 16 74 63 97 106 8 16 51 253 94 527 44 273 82 507 85 520
l5 22 679 0 679 0 5 -22 c3 -13 40 -239 82 -503 42 -264 83 -500 92 -524 19
-52 72 -114 111 -130 20 -8 300 -11 1030 -9 l1004 3 29 33 c24 27 29 41 29 85
0 38 -797 4130 -1080 5545 -88 438 -310 749 -667 934 -63 32 -83 38 -139 38
l-64 0 0 35 0 35 -49 0 c-68 0 -111 10 -111 26 0 11 -17 14 -69 14 -87 0 -131
9 -131 26 0 11 -22 14 -99 14 -139 0 -221 10 -221 26 0 12 -73 14 -420 14
-346 0 -420 -2 -420 -14z m454 -1771 c20 -21 17 -2 196 -1130 88 -555 163
-1020 165 -1032 l5 -23 -411 0 -411 0 6 28 c3 15 80 494 171 1065 91 571 171
1053 179 1072 13 30 20 35 50 35 19 0 41 -7 50 -15z"/>
<path d="M26140 12096 c0 -14 -115 -26 -252 -26 -51 0 -68 -3 -68 -14 0 -13
-78 -26 -161 -26 -26 0 -39 -4 -39 -14 0 -16 -43 -26 -111 -26 l-49 0 0 -35 0
-35 -85 0 c-92 0 -126 -10 -296 -86 -402 -179 -772 -503 -997 -871 -57 -94
-206 -402 -255 -529 -78 -201 -149 -496 -181 -754 -33 -264 -38 -436 -33
-1155 4 -645 6 -725 25 -877 48 -382 128 -682 257 -968 323 -716 874 -1180
1630 -1373 357 -91 536 -112 960 -112 371 0 474 9 755 65 478 96 821 247 1142
502 471 375 798 967 917 1663 51 297 54 348 58 1115 5 731 0 883 -33 1145 -34
268 -106 563 -190 773 -69 172 -216 463 -289 572 -257 382 -623 674 -1070 855
-78 31 -97 35 -181 35 l-94 0 0 35 c0 32 -3 35 -29 35 -49 0 -91 12 -91 26 0
10 -16 14 -59 14 -102 0 -181 12 -181 26 0 10 -14 14 -48 14 -118 0 -232 13
-232 26 0 12 -64 14 -360 14 -296 0 -360 -2 -360 -14z m555 -1921 c223 -61
360 -213 429 -475 57 -217 59 -250 64 -980 4 -706 -1 -842 -39 -1036 -40 -209
-99 -336 -203 -439 -119 -118 -250 -165 -461 -165 -346 0 -552 161 -640 500
-58 226 -60 260 -60 1055 0 783 3 835 55 1042 80 314 239 471 525 517 58 9
270 -3 330 -19z"/>
<path d="M19420 12016 c0 -9 -15 -17 -40 -21 -38 -6 -40 -9 -40 -41 0 -31 -2
-34 -30 -34 -24 0 -33 -6 -41 -26 -6 -18 -8 -853 -6 -2468 3 -2249 4 -2450 20
-2561 23 -154 61 -326 99 -440 119 -359 396 -711 713 -905 307 -189 652 -279
1224 -321 185 -13 852 -7 1066 10 218 18 443 42 579 62 195 28 267 78 281 192
3 29 5 360 3 737 -2 557 -6 690 -17 710 -17 32 -60 78 -86 93 -15 9 -232 13
-795 17 -711 5 -779 7 -821 23 -56 22 -83 48 -106 107 -17 43 -18 170 -23
2395 -3 1293 -9 2356 -13 2363 -5 6 -17 12 -28 12 -15 0 -19 7 -19 34 0 30 -4
34 -31 40 -17 3 -44 6 -60 6 -19 0 -29 5 -29 15 0 13 -107 15 -900 15 -768 0
-900 -2 -900 -14z"/>
<path d="M30340 12016 c0 -9 -15 -17 -40 -21 -25 -4 -40 -12 -40 -21 0 -8 -9
-14 -20 -14 -13 0 -20 -7 -20 -20 0 -13 -7 -20 -20 -20 -20 0 -20 -3 -18
-3263 l3 -3264 28 -36 c16 -21 46 -46 67 -57 39 -20 56 -20 983 -18 l944 3 36
28 c78 59 71 -73 77 1489 l5 1396 255 -521 c974 -1995 1111 -2273 1148 -2316
73 -86 -23 -80 1275 -80 l1148 -1 24 25 c21 20 25 34 25 80 0 56 -2 61 -905
1661 l-904 1605 606 1072 c334 590 617 1096 631 1125 13 29 125 231 248 449
123 218 224 400 224 404 0 5 9 9 20 9 18 0 20 7 20 60 0 53 2 60 20 60 18 0
20 7 20 79 l0 79 -40 7 c-25 4 -40 12 -40 21 0 12 -157 14 -1080 14 -1073 0
-1080 0 -1080 -20 0 -13 -7 -20 -20 -20 -13 0 -20 -7 -20 -20 0 -13 -7 -20
-20 -20 -13 0 -20 -7 -20 -20 0 -13 -7 -20 -20 -20 -16 0 -20 -7 -20 -35 0
-28 -4 -35 -20 -35 -17 0 -20 -7 -20 -45 0 -38 -3 -45 -20 -45 -16 0 -20 -7
-20 -35 0 -21 -5 -35 -12 -35 -14 -1 -227 -402 -418 -786 -63 -127 -311 -605
-550 -1062 l-435 -830 -3 1339 c-1 881 -5 1339 -12 1339 -6 0 -10 52 -10 135
0 128 -1 135 -20 135 -13 0 -20 7 -20 19 0 15 -10 21 -40 26 -25 4 -40 12 -40
21 0 12 -134 14 -920 14 -786 0 -920 -2 -920 -14z"/>
<path d="M896 12010 c-41 -13 -104 -78 -116 -120 -6 -21 -10 -331 -10 -805 0
-725 2 -772 19 -810 22 -50 69 -91 119 -105 24 -6 347 -10 930 -10 l893 0 24
-25 c31 -30 31 -37 1 -100 -13 -27 -436 -700 -942 -1495 -508 -800 -944 -1496
-976 -1560 -97 -191 -91 -144 -96 -875 -2 -449 0 -653 8 -684 13 -54 40 -89
88 -118 l37 -23 2258 0 c2235 0 2258 0 2297 20 21 11 51 36 67 57 l28 36 0
802 0 802 -27 35 c-15 20 -47 45 -71 57 -43 21 -49 21 -950 21 -983 0 -969 -1
-982 52 -4 14 0 42 8 64 7 21 422 669 922 1439 595 916 930 1442 971 1522 104
207 99 153 102 958 2 483 0 711 -8 737 -14 50 -56 97 -105 119 -38 18 -127 19
-2250 18 -1225 0 -2223 -5 -2239 -9z"/>
<path d="M1700 3206 c0 -20 -88 -26 -381 -26 -213 0 -259 -2 -259 -14 0 -14
-42 -26 -91 -26 -22 0 -29 -5 -29 -20 0 -13 -7 -20 -20 -20 -14 0 -20 -7 -20
-24 0 -13 -6 -26 -14 -29 -8 -3 -20 -23 -25 -44 -16 -55 -15 -2603 0 -2690 21
-118 48 -133 319 -180 159 -27 177 -28 510 -28 395 1 514 14 722 81 194 62
308 135 413 261 69 83 106 158 141 288 26 92 28 114 28 285 0 174 -2 190 -27
266 -43 130 -108 211 -248 309 -44 31 -79 62 -79 70 0 8 25 30 55 50 30 20 77
61 105 92 133 145 189 335 177 597 -9 198 -40 287 -146 418 -113 141 -221 218
-328 234 -33 5 -43 11 -43 25 0 15 -7 19 -40 19 -33 0 -40 3 -40 20 0 18 -7
20 -69 20 -87 0 -131 9 -131 26 0 11 -31 14 -159 14 -196 0 -281 8 -281 26 0
8 -9 14 -20 14 -11 0 -20 -6 -20 -14z m354 -502 c127 -22 201 -54 264 -117 85
-83 96 -111 100 -257 3 -108 1 -134 -18 -190 -31 -92 -75 -142 -166 -187 -88
-43 -75 -42 -497 -51 l-307 -7 0 413 0 412 268 0 c197 0 290 -4 356 -16z m54
-1249 c117 -28 226 -102 277 -190 49 -82 69 -270 41 -386 -37 -158 -146 -242
-366 -280 -83 -15 -159 -18 -367 -19 l-263 0 0 445 0 445 308 0 c235 0 322 -4
370 -15z"/>
<path d="M5860 3206 c0 -18 -125 -26 -432 -26 -204 0 -248 -2 -248 -14 0 -7
-14 -16 -31 -20 -17 -3 -62 -6 -100 -6 -62 0 -69 -2 -69 -20 0 -13 -7 -20 -20
-20 -28 0 -26 -30 3 -31 17 -1 15 -3 -10 -10 -26 -7 -33 -16 -38 -42 -3 -17
-4 -653 -3 -1412 3 -1280 4 -1382 20 -1411 29 -54 73 -64 276 -64 97 0 194 5
214 11 70 19 68 2 68 619 0 517 1 550 18 550 117 -1 369 -23 390 -34 21 -11
97 -143 328 -567 214 -393 308 -558 325 -566 26 -14 477 -19 538 -7 36 7 40
30 16 87 -8 20 -148 281 -310 581 -162 300 -297 557 -301 570 -5 21 0 28 38
47 341 174 511 472 495 869 -5 141 -34 281 -77 376 -80 179 -259 350 -400 384
-38 9 -50 16 -50 31 0 16 -7 19 -40 19 -33 0 -40 3 -40 20 0 18 -7 20 -80 20
-73 0 -80 2 -80 20 0 19 -7 20 -149 20 -165 0 -211 6 -211 26 0 8 -9 14 -20
14 -11 0 -20 -6 -20 -14z m245 -525 c124 -29 182 -59 251 -133 85 -91 97 -134
91 -321 -5 -164 -19 -218 -75 -291 -54 -72 -134 -112 -280 -142 -104 -21 -143
-24 -359 -24 l-243 0 0 460 0 459 68 4 c37 2 157 4 267 5 163 1 215 -2 280
-17z"/>
<path d="M27300 3200 c0 -19 -7 -20 -100 -20 -93 0 -100 -1 -100 -20 0 -17 -7
-20 -40 -20 -33 0 -40 -3 -40 -20 0 -17 -7 -20 -40 -20 l-40 0 0 -40 c0 -33
-3 -40 -20 -40 -13 0 -20 -7 -20 -20 0 -13 -7 -20 -20 -20 -13 0 -20 -7 -20
-20 0 -20 7 -20 500 -20 493 0 500 0 500 20 0 13 -7 20 -20 20 -13 0 -20 7
-20 20 0 13 -7 20 -20 20 -13 0 -20 7 -20 20 0 13 -7 20 -20 20 -13 0 -20 7
-20 20 0 13 -7 20 -20 20 -13 0 -20 7 -20 20 0 17 -7 20 -40 20 -33 0 -40 3
-40 20 0 19 -7 20 -109 20 -126 0 -171 7 -171 26 0 8 -9 14 -20 14 -13 0 -20
-7 -20 -20z"/>
<path d="M9883 3183 c-78 -3 -103 -7 -103 -17 0 -14 -42 -26 -91 -26 -22 0
-29 -5 -29 -20 0 -13 -7 -20 -20 -20 -13 0 -20 -7 -20 -20 0 -14 -7 -20 -21
-20 -17 0 -20 -5 -17 -25 4 -17 1 -25 -8 -25 -23 0 -82 -59 -103 -103 -20 -41
-675 -2523 -701 -2653 -23 -116 -3 -124 301 -124 192 0 219 2 238 18 17 13 42
96 121 402 55 212 103 393 106 403 5 16 34 17 467 15 l461 -3 81 -330 c45
-181 89 -353 99 -382 20 -61 69 -109 120 -118 19 -4 123 -5 232 -3 212 3 239
9 250 52 6 24 -656 2564 -695 2667 -27 70 -65 123 -104 144 -30 16 -32 20 -28
61 l3 44 -41 0 c-34 0 -41 3 -41 20 0 17 -7 20 -40 20 -33 0 -40 3 -40 20 0
18 -7 20 -79 20 -43 0 -105 2 -137 3 -32 2 -105 2 -161 0z m168 -503 c16 -22
299 -1162 299 -1203 0 -8 -7 -18 -16 -21 -17 -6 -684 -9 -684 -2 0 24 303
1233 312 1243 17 21 68 12 89 -17z"/>
<path d="M19743 3183 c-154 -3 -163 -5 -163 -23 0 -18 -7 -20 -60 -20 -44 0
-60 -4 -60 -14 0 -14 -42 -26 -91 -26 -22 0 -29 -5 -29 -20 0 -13 -7 -20 -20
-20 -11 0 -20 -6 -20 -14 0 -9 -15 -17 -40 -21 -43 -7 -57 -35 -17 -36 16 0 8
-7 -28 -23 -70 -33 -112 -79 -156 -171 -62 -130 -83 -227 -83 -385 0 -148 14
-224 61 -319 37 -78 177 -246 244 -296 32 -23 245 -163 474 -311 229 -147 436
-285 460 -306 27 -24 57 -66 77 -106 30 -60 33 -76 33 -152 0 -72 -4 -92 -27
-135 -43 -82 -101 -124 -218 -159 -114 -34 -183 -36 -557 -16 -197 11 -372 17
-390 14 -17 -3 -42 -17 -55 -31 -22 -23 -23 -34 -26 -172 -4 -173 6 -213 60
-235 18 -8 125 -29 238 -47 412 -66 807 -48 1048 48 198 78 365 220 439 373
71 148 88 229 88 420 -1 152 -3 171 -28 246 -36 107 -110 220 -211 319 -72 71
-131 111 -547 368 -283 175 -483 305 -507 330 -84 86 -104 189 -56 285 29 59
64 90 146 127 103 47 141 49 533 31 389 -18 543 -20 562 -8 23 14 33 64 33
160 0 72 -4 103 -16 120 -14 21 -14 22 5 22 19 0 21 6 21 60 0 53 -2 60 -20
60 -13 0 -20 7 -20 20 0 19 -7 20 -120 20 -113 0 -120 1 -120 20 0 19 -7 20
-248 20 -137 0 -289 2 -338 3 -49 2 -162 2 -251 0z"/>
<path d="M34843 3183 c-94 -3 -103 -5 -103 -23 0 -17 -7 -20 -40 -20 -33 0
-40 -3 -40 -20 0 -13 -7 -20 -20 -20 -13 0 -20 -7 -20 -20 0 -13 -7 -20 -20
-20 -11 0 -20 -7 -20 -15 0 -8 -9 -15 -20 -15 -15 0 -20 -7 -20 -25 0 -18 -5
-25 -20 -25 -17 0 -20 -7 -20 -40 0 -33 -3 -40 -20 -40 -13 0 -20 -7 -20 -19
0 -11 -5 -21 -11 -23 -16 -5 -680 -2540 -686 -2618 -8 -109 -20 -104 286 -108
l260 -3 9 33 c4 18 53 207 108 420 l99 388 467 0 466 0 16 -67 c57 -253 168
-689 182 -714 28 -55 60 -61 308 -57 122 2 228 7 237 12 9 4 21 18 27 31 14
30 34 -50 -362 1464 -179 685 -326 1257 -326 1273 0 21 -5 28 -20 28 -13 0
-20 7 -20 20 0 13 -7 20 -20 20 -13 0 -20 7 -20 20 0 13 -7 20 -20 20 -13 0
-20 7 -20 20 0 13 -7 20 -20 20 -13 0 -20 7 -20 20 0 13 -7 20 -20 20 -13 0
-20 7 -20 20 0 15 -7 20 -29 20 -49 0 -91 12 -91 26 0 11 -19 14 -79 14 -43 0
-105 2 -137 3 -32 2 -105 2 -161 0z m196 -487 c6 -7 76 -282 155 -610 80 -328
148 -605 151 -616 6 -20 2 -20 -332 -20 -199 0 -344 4 -353 10 -13 8 7 97 139
622 85 337 156 616 158 621 7 12 70 8 82 -7z"/>
<path d="M12580 3165 c0 -8 -9 -15 -20 -15 -18 0 -20 -7 -20 -85 0 -59 4 -85
12 -85 6 0 3 -6 -8 -14 -16 -13 -19 -27 -19 -109 0 -81 3 -100 21 -124 36 -49
61 -52 431 -52 l343 -1 2 -1245 3 -1245 28 -27 27 -28 204 -3 c121 -2 219 1
242 7 74 20 69 -82 72 1299 l3 1242 335 0 c384 0 419 4 440 56 15 35 19 200 6
220 -4 6 -14 14 -22 17 -9 3 -4 6 13 6 26 1 27 2 27 61 0 53 -2 60 -20 60 -13
0 -20 7 -20 20 0 13 -7 20 -20 20 -13 0 -20 7 -20 20 0 20 -7 20 -1020 20
-900 0 -1020 -2 -1020 -15z"/>
<path d="M16580 3166 c0 -9 -15 -17 -40 -21 l-40 -7 0 -1473 0 -1474 24 -28
24 -28 225 0 c213 0 227 1 254 21 18 13 32 37 40 65 15 58 18 2759 3 2759 -6
0 -10 33 -10 80 0 73 -2 80 -20 80 -13 0 -20 7 -20 20 0 19 -7 20 -220 20
-183 0 -220 -2 -220 -14z"/>
<path d="M22900 3160 c0 -16 -7 -20 -37 -20 l-38 0 3 -987 c3 -1451 3 -1430
36 -1533 64 -198 187 -346 355 -425 62 -30 233 -73 336 -85 79 -9 841 33 904
50 21 5 48 21 62 36 23 25 24 30 24 185 0 152 -1 159 -23 181 l-23 23 -437 6
c-485 6 -509 9 -569 71 -38 40 -68 106 -82 184 -7 38 -11 400 -11 1076 0 672
-3 1018 -10 1018 -5 0 -10 18 -10 40 0 33 3 40 20 40 13 0 20 7 20 20 0 13 -7
20 -20 20 -17 0 -20 7 -20 40 0 33 -3 40 -20 40 -13 0 -20 7 -20 20 0 19 -7
20 -220 20 -213 0 -220 -1 -220 -20z"/>
<path d="M29980 3160 c0 -13 -7 -20 -20 -20 -18 0 -20 -7 -20 -80 0 -73 2 -80
20 -80 16 0 20 -7 20 -33 0 -38 4 -53 321 -1275 247 -954 265 -1018 331 -1185
55 -142 81 -187 130 -233 55 -52 82 -68 161 -98 175 -66 405 -58 561 18 88 43
200 175 249 291 33 79 647 2457 647 2507 0 41 3 48 20 48 18 0 20 7 20 60 0
53 -2 60 -20 60 -13 0 -20 7 -20 20 0 19 -7 20 -260 20 -253 0 -260 -1 -260
-20 0 -13 -7 -20 -20 -20 -18 0 -20 -7 -20 -80 0 -73 -2 -80 -20 -80 -17 0
-20 -7 -20 -45 0 -56 -525 -2237 -551 -2287 -21 -41 -49 -61 -72 -52 -19 7 -8
-37 -307 1199 -144 594 -264 1088 -266 1098 -3 9 -14 17 -25 17 -17 0 -19 8
-19 95 0 88 -1 95 -20 95 -17 0 -20 7 -20 40 l0 40 -260 0 c-253 0 -260 -1
-260 -20z"/>
<path d="M26840 2910 c-10 -10 -28 -50 -39 -87 -32 -109 -671 -2526 -684
-2589 -11 -55 -11 -57 15 -79 37 -32 96 -38 327 -33 168 3 194 5 205 20 7 9
56 180 109 380 53 200 102 380 107 401 l11 37 464 0 463 0 91 -372 c51 -205
99 -387 107 -405 26 -53 54 -58 304 -58 241 0 264 4 276 49 3 13 -6 70 -19
127 -45 186 -646 2473 -662 2521 -9 26 -29 61 -45 78 l-28 30 -491 0 c-474 0
-492 -1 -511 -20z m567 -240 c8 -18 242 -956 298 -1197 l5 -23 -345 0 c-289 0
-347 2 -351 14 -5 13 280 1208 293 1229 3 4 24 7 46 5 33 -2 44 -8 54 -28z"/>
</g>
</svg>
