<?xml version="1.0" standalone="no"?>
<!DOCTYPE svg PUBLIC "-//W3C//DTD SVG 20010904//EN"
 "http://www.w3.org/TR/2001/REC-SVG-20010904/DTD/svg10.dtd">
<svg version="1.0" xmlns="http://www.w3.org/2000/svg"
 width="3851.000000pt" height="2183.000000pt" viewBox="0 0 3851.000000 2183.000000"
 preserveAspectRatio="xMidYMid meet">
<metadata>
Created by potrace 1.16, written by Peter Selinger 2001-2019
</metadata>
<g transform="translate(0.000000,2183.000000) scale(0.100000,-0.100000)"
fill="#000000" stroke="none">
<path d="M10680 20559 c0 -12 15 -49 34 -82 18 -34 39 -73 46 -86 l12 -24 10
17 c7 13 2 33 -20 79 -16 34 -35 74 -41 90 -13 32 -41 37 -41 6z"/>
<path d="M14191 19080 c-4 -8 -10 -123 -20 -400 -8 -207 -16 -295 -36 -400
-13 -74 -27 -147 -29 -162 -3 -16 -2 -28 3 -28 9 0 25 61 56 210 21 100 45
819 26 780z"/>
<path d="M12520 17730 c-41 -3 -138 -6 -215 -5 l-140 0 -18 -18 c-10 -10 -22
-15 -27 -12 -6 4 -10 1 -10 -4 0 -6 0 -14 -1 -18 -1 -9 -38 -75 -71 -130 -13
-21 -29 -56 -36 -79 -7 -23 -23 -58 -37 -79 -15 -20 -24 -39 -21 -42 6 -6 -21
-83 -36 -101 -14 -17 -48 -118 -48 -144 0 -12 -8 -18 -25 -18 -27 0 -32 -9
-14 -27 8 -8 4 -26 -15 -67 -14 -30 -26 -66 -26 -79 0 -13 -13 -42 -28 -63
-30 -41 -32 -45 -32 -67 0 -8 -11 -27 -25 -43 -20 -22 -25 -37 -22 -64 2 -19
-2 -46 -10 -60 -7 -14 -13 -21 -13 -16 0 5 -7 3 -15 -4 -8 -7 -15 -21 -15 -32
0 -11 -11 -38 -24 -61 -14 -23 -30 -63 -36 -89 -7 -25 -21 -56 -31 -67 -11
-11 -19 -23 -18 -26 5 -15 -37 -115 -46 -112 -5 3 -11 -11 -12 -30 -1 -19 -8
-40 -16 -46 -8 -7 -25 -38 -38 -71 -13 -32 -29 -61 -36 -63 -7 -3 -13 -16 -13
-29 0 -19 -5 -24 -25 -24 -31 0 -46 24 -79 123 -15 43 -35 96 -46 118 -11 21
-32 76 -46 121 -14 45 -32 91 -39 102 -7 12 -20 46 -30 76 -9 30 -20 64 -25
75 -40 88 -60 140 -60 152 0 8 -6 29 -14 46 -29 67 -96 247 -136 362 -67 197
-128 370 -159 454 -39 104 -72 122 -213 118 -57 -1 -112 2 -123 6 -16 7 -17 7
-5 -2 11 -8 -25 -11 -135 -12 -368 -2 -527 -9 -554 -24 -14 -8 -34 -17 -43
-21 -10 -4 -18 -17 -18 -30 0 -13 -4 -24 -9 -24 -23 0 20 -135 120 -374 16
-37 29 -74 29 -82 0 -7 19 -53 41 -101 23 -49 43 -97 44 -108 1 -11 14 -45 28
-76 14 -31 24 -59 21 -62 -2 -2 2 -10 11 -17 8 -7 15 -25 15 -40 0 -15 7 -33
15 -40 8 -7 19 -26 24 -44 16 -52 86 -226 128 -316 22 -47 49 -112 61 -145 11
-33 38 -94 60 -135 22 -41 43 -87 46 -103 4 -15 33 -82 65 -150 32 -67 69
-151 82 -187 21 -61 110 -223 134 -245 6 -5 24 -27 39 -48 15 -21 61 -63 102
-94 l74 -55 -4 -52 c-3 -28 -12 -75 -21 -104 -9 -30 -14 -56 -11 -59 3 -3 -1
-17 -8 -32 -8 -14 -12 -41 -11 -58 1 -18 -2 -33 -7 -33 -6 0 -7 -11 -4 -24 3
-13 -1 -41 -10 -61 -8 -21 -13 -46 -11 -57 3 -10 2 -18 -2 -18 -5 0 -11 -60
-15 -132 -4 -73 -11 -176 -16 -228 -6 -52 -13 -119 -16 -149 -8 -77 -10 -489
-3 -534 8 -51 37 -87 90 -114 l44 -22 255 -7 c140 -4 334 -8 430 -8 l175 -1
31 17 c55 30 64 72 69 312 8 353 43 832 74 1013 5 32 13 90 16 128 3 39 11
101 16 138 l11 68 51 26 c171 86 291 219 407 453 18 35 42 80 55 100 12 19 35
64 51 100 16 36 54 110 84 165 53 95 240 486 240 501 0 4 15 36 34 73 18 36
37 77 40 91 8 24 45 111 112 259 19 40 34 79 34 87 0 7 15 47 34 87 19 40 38
86 41 103 4 16 27 70 50 119 125 262 136 297 112 353 -7 18 -29 43 -48 55
l-34 21 -235 2 c-129 0 -269 -2 -310 -6z"/>
<path d="M14023 17709 c-18 -11 -33 -25 -33 -30 0 -4 -11 -18 -24 -31 -14 -13
-34 -52 -45 -88 l-20 -65 -10 -510 c-6 -280 -13 -769 -17 -1085 -3 -316 -10
-580 -15 -585 -4 -6 -5 -35 0 -65 4 -30 4 -71 0 -90 -4 -19 -8 -106 -8 -193
-1 -156 -12 -373 -31 -597 -25 -297 -37 -788 -20 -832 21 -53 58 -86 109 -97
36 -8 597 -35 711 -34 40 0 102 35 126 71 29 43 33 86 39 476 3 176 9 324 13
328 5 5 6 28 2 51 -5 39 1 265 14 502 3 55 8 156 11 225 3 69 10 215 15 325
12 250 19 407 20 465 l0 45 25 -30 c14 -16 39 -59 56 -95 18 -36 44 -83 59
-105 15 -22 53 -85 85 -140 31 -55 72 -127 92 -160 19 -33 75 -132 123 -220
47 -88 100 -182 115 -210 16 -27 59 -104 95 -170 77 -139 134 -238 200 -350
27 -44 69 -120 94 -170 26 -49 81 -148 121 -220 41 -71 91 -161 110 -200 62
-122 150 -270 190 -319 53 -63 117 -94 225 -106 107 -13 514 -40 598 -40 76 0
145 31 190 85 56 69 60 101 71 555 6 228 13 476 15 550 3 74 7 313 11 530 3
217 7 514 10 660 3 146 8 608 11 1028 l7 762 -18 46 c-14 36 -26 50 -54 62
l-36 16 -372 4 -372 4 -37 -22 c-20 -13 -42 -37 -49 -54 -20 -48 -27 -410 -40
-1970 -2 -324 -7 -492 -14 -499 -13 -13 -9 -20 -72 103 -29 58 -58 112 -65
120 -6 8 -39 67 -73 130 -34 63 -79 144 -100 180 -22 36 -60 106 -86 155 -27
50 -62 113 -80 140 -17 28 -44 75 -60 105 -16 30 -42 74 -57 97 -15 23 -28 44
-28 47 0 3 -26 50 -58 103 -54 91 -132 228 -254 445 -26 48 -48 91 -48 96 0 5
-7 16 -17 23 -9 8 -26 37 -39 64 -12 28 -39 79 -60 115 -56 96 -183 331 -219
405 -48 99 -146 218 -198 243 l-44 20 -154 6 c-85 3 -255 8 -379 11 l-225 5
-32 -21z"/>
<path d="M8047 17674 c-2 -1 -527 -17 -574 -17 -18 0 -30 -3 -28 -7 2 -4 -40
-12 -93 -19 -53 -7 -120 -20 -148 -27 -28 -8 -60 -16 -70 -18 -34 -7 -156 -48
-183 -62 -14 -8 -32 -14 -39 -14 -7 0 -44 -16 -82 -35 -38 -19 -75 -35 -81
-35 -7 0 -33 -13 -59 -29 -27 -16 -51 -27 -54 -24 -3 4 -6 1 -6 -5 0 -7 -6
-12 -14 -12 -8 0 -44 -22 -80 -50 -36 -27 -70 -50 -75 -50 -17 0 -235 -225
-281 -291 -58 -82 -130 -207 -130 -225 0 -8 -4 -14 -10 -14 -5 0 -12 -17 -16
-37 -4 -21 -16 -50 -27 -65 -15 -20 -18 -35 -13 -61 4 -22 1 -52 -10 -82 -12
-36 -15 -72 -11 -142 2 -51 7 -96 11 -100 3 -3 6 -14 6 -23 0 -22 96 -201 118
-220 9 -8 22 -26 28 -40 17 -35 153 -180 170 -180 7 0 19 -9 26 -21 12 -18
179 -139 193 -139 3 0 38 -22 78 -48 40 -27 108 -68 152 -92 44 -23 109 -62
145 -85 36 -23 94 -59 130 -79 70 -40 157 -91 288 -167 45 -27 85 -49 88 -49
2 0 28 -16 57 -35 28 -19 55 -35 60 -35 14 0 154 -120 186 -160 52 -65 64
-104 59 -197 -2 -45 -10 -88 -16 -96 -7 -7 -10 -16 -7 -19 8 -8 -36 -112 -56
-131 -10 -10 -19 -22 -19 -26 0 -20 -147 -77 -205 -79 -11 0 -72 -3 -135 -6
-63 -3 -144 -1 -180 5 -36 5 -130 14 -210 19 -80 5 -192 14 -250 19 -58 6
-163 15 -235 21 -229 18 -330 29 -333 38 -3 11 -92 -2 -120 -17 -10 -5 -32
-27 -48 -48 l-29 -38 -2 -140 c-1 -77 -3 -219 -4 -315 l-2 -175 20 -45 c11
-25 29 -53 39 -62 24 -21 107 -51 199 -72 39 -9 99 -23 135 -32 36 -9 79 -18
95 -21 17 -2 68 -10 115 -19 213 -37 510 -58 820 -57 273 0 389 6 419 23 11 5
32 10 48 10 28 0 167 40 275 79 84 31 237 109 283 145 22 18 51 39 65 48 61
38 217 213 292 326 25 38 118 277 118 302 0 12 5 31 12 43 12 24 47 285 48
360 0 27 5 57 10 68 8 14 7 25 -4 41 -7 13 -17 62 -20 110 -4 48 -13 109 -21
135 -7 27 -22 78 -33 114 -20 72 -91 210 -148 289 -19 27 -86 95 -147 152 -62
56 -118 110 -125 120 -7 10 -19 18 -26 18 -7 0 -30 13 -52 30 -21 16 -44 30
-51 30 -6 0 -24 10 -40 23 -30 25 -161 101 -283 164 -41 22 -100 53 -130 70
-87 49 -408 222 -490 265 -41 21 -81 45 -90 52 -8 8 -31 21 -50 31 -19 9 -63
45 -97 78 l-63 61 0 54 c0 71 18 110 74 159 53 47 145 85 247 103 96 17 471 1
829 -36 91 -9 188 -18 215 -19 28 -1 122 -9 210 -19 88 -10 177 -15 199 -11
81 12 126 54 132 123 2 20 10 89 19 152 9 63 20 150 25 192 5 43 11 82 14 86
3 5 6 39 8 75 l2 66 -19 22 c-26 28 -80 54 -130 63 -246 42 -342 55 -525 70
-175 15 -280 22 -283 20z"/>
<path d="M21833 17619 c-41 -12 -83 -62 -83 -99 0 -16 -4 -40 -10 -54 -5 -15
-10 -175 -11 -374 -1 -191 -5 -439 -9 -552 -24 -587 -27 -1217 -14 -2575 l6
-600 16 -35 c9 -19 33 -45 52 -59 l35 -23 210 6 c576 16 598 19 648 65 16 14
35 42 43 61 l15 35 -3 819 -3 819 135 -7 c74 -4 205 -11 290 -16 85 -6 308
-14 495 -19 188 -6 349 -13 358 -17 l17 -6 2 -157 c1 -86 2 -169 3 -186 2 -16
3 -158 5 -315 1 -157 6 -328 10 -380 5 -52 11 -196 15 -320 l6 -225 24 -52
c13 -28 34 -57 47 -64 33 -19 781 -37 837 -21 55 17 99 65 107 119 7 47 -11
556 -26 738 -27 324 -34 884 -15 1175 2 36 7 112 10 170 3 58 10 164 16 235 9
132 23 455 34 800 3 105 10 289 15 410 12 270 12 478 1 526 -8 36 -45 80 -78
94 -20 8 -136 19 -363 35 -80 5 -185 14 -235 20 -261 29 -270 20 -279 -275
-12 -373 -26 -629 -56 -1015 -26 -319 -30 -363 -39 -374 -5 -6 -32 -10 -63 -9
-29 2 -150 5 -268 8 -118 3 -273 10 -345 14 -71 5 -215 9 -320 10 -104 1 -223
4 -263 8 l-73 6 6 86 c12 198 15 257 20 476 14 584 15 941 3 993 l-11 53 -37
19 -37 19 -391 6 c-216 3 -397 7 -404 9 -7 2 -27 0 -45 -5z"/>
<path d="M19908 17615 c-2 -2 -53 -5 -113 -6 -61 -1 -114 -5 -120 -9 -5 -4
-28 -10 -50 -13 -22 -3 -60 -11 -85 -17 -25 -6 -72 -15 -106 -20 -33 -5 -80
-16 -103 -26 -23 -9 -44 -14 -47 -11 -7 7 -112 -38 -274 -119 -158 -79 -285
-186 -404 -343 -59 -77 -150 -239 -186 -330 -11 -30 -30 -75 -41 -99 -47 -103
-102 -357 -118 -547 -17 -206 -31 -627 -31 -915 0 -249 15 -466 39 -575 5 -22
14 -62 20 -90 15 -71 36 -142 59 -200 11 -27 30 -74 41 -103 103 -259 303
-507 528 -654 145 -95 359 -180 540 -214 43 -9 101 -20 128 -25 112 -22 550
-10 785 22 447 59 495 71 525 128 l16 32 1 200 0 200 15 14 c9 9 10 15 3 15
-6 0 -8 5 -5 10 3 6 1 10 -4 10 -7 0 -11 25 -11 63 0 88 -24 153 -64 175 l-31
17 -535 1 -535 1 -65 21 c-83 26 -136 56 -197 112 -70 66 -94 100 -88 124 5
15 4 17 -3 7 l-10 -14 -10 20 c-34 62 -76 191 -92 278 -25 138 -30 269 -20
550 4 132 10 337 13 455 3 150 11 253 25 340 21 123 62 252 93 288 9 10 19 31
23 46 9 36 130 158 186 186 54 28 83 36 180 55 83 16 384 14 600 -4 63 -5 187
-13 275 -17 l160 -6 42 38 42 39 5 335 c2 184 1 355 -4 380 -10 53 -37 78
-113 104 -29 10 -61 22 -72 26 -11 5 -51 11 -90 14 -38 3 -101 12 -138 21 -38
8 -126 17 -195 20 -215 9 -380 13 -384 10z"/>
<path d="M26624 17421 c-2 -3 -66 -9 -142 -13 -75 -5 -157 -10 -182 -12 -72
-6 -160 -44 -206 -90 -66 -67 -71 -99 -83 -499 -6 -191 -9 -353 -6 -360 2 -6
6 -77 9 -157 4 -80 9 -183 12 -230 4 -47 1 -148 -5 -225 -9 -107 -9 -195 0
-375 14 -281 18 -963 8 -1325 -4 -143 -8 -399 -9 -568 l-1 -309 24 -37 c17
-26 37 -41 63 -48 58 -17 721 -28 783 -13 94 22 115 72 130 310 6 96 16 236
23 310 19 237 -2 670 -42 864 -5 27 -9 50 -8 52 2 1 21 -4 43 -11 22 -8 102
-18 177 -24 75 -5 145 -14 155 -20 11 -5 32 -34 48 -63 15 -29 56 -98 90 -153
34 -55 92 -154 129 -220 37 -66 88 -154 113 -195 67 -111 195 -352 337 -638
l127 -253 27 -11 c29 -12 774 -14 865 -2 102 13 95 77 -23 230 -25 32 -61 85
-81 116 -20 32 -57 80 -82 108 -26 28 -47 56 -47 63 0 7 -23 50 -51 97 -29 47
-60 103 -71 125 -11 22 -49 99 -84 170 -36 72 -66 137 -68 145 -4 23 -114 257
-238 508 -31 61 -48 106 -42 111 5 5 47 28 94 52 47 24 117 64 156 91 71 48
234 207 234 228 0 6 11 26 23 43 62 83 90 228 83 420 -3 78 -10 169 -16 202
-5 33 -10 81 -10 107 0 44 -6 85 -41 302 -6 38 -31 127 -55 198 -24 72 -44
135 -44 143 0 7 -15 43 -33 81 -19 38 -51 108 -71 155 -34 78 -101 190 -158
264 -72 94 -232 214 -333 249 -27 10 -59 22 -70 27 -51 21 -125 41 -185 50
-262 37 -304 39 -783 37 -263 -1 -480 -4 -483 -7z m963 -902 c257 -35 410
-123 480 -276 l25 -55 1 -122 c2 -222 -40 -372 -130 -458 -35 -33 -166 -105
-224 -122 -107 -32 -369 -39 -559 -16 -47 5 -114 13 -150 16 l-65 6 7 176 c3
98 9 281 12 407 7 269 16 436 22 447 8 12 491 10 581 -3z"/>
<path d="M30965 17240 c-259 -38 -474 -101 -635 -186 -237 -125 -455 -352
-576 -599 -50 -104 -64 -137 -101 -245 -29 -85 -49 -212 -66 -415 -22 -254 5
-1117 42 -1355 53 -345 229 -774 423 -1030 171 -228 441 -391 738 -446 41 -8
102 -20 135 -26 82 -16 486 -16 600 0 164 24 366 87 475 149 125 72 291 218
376 333 85 114 94 127 142 216 19 34 97 199 97 204 0 3 12 34 26 70 15 36 32
85 40 110 7 25 16 49 21 55 4 5 8 20 8 34 0 14 6 43 14 66 30 87 38 119 41
149 2 17 10 72 18 121 8 50 20 146 26 215 7 69 16 152 22 185 5 33 14 123 19
200 6 77 13 157 16 178 18 119 22 563 6 657 -6 36 -18 103 -25 150 -8 47 -19
99 -25 115 -30 86 -34 102 -39 125 -3 14 -11 30 -18 35 -7 6 -20 33 -28 60 -8
28 -27 73 -41 101 -14 29 -26 55 -26 59 0 4 -15 29 -34 55 -19 26 -42 62 -51
81 -16 30 -233 251 -287 292 -101 76 -293 166 -453 212 -33 10 -73 22 -89 28
-16 6 -38 11 -50 13 -12 1 -73 9 -136 19 -130 20 -505 29 -605 15z m342 -921
c27 -6 68 -15 93 -20 120 -27 252 -122 314 -228 47 -81 83 -177 91 -246 4 -32
9 -68 12 -80 12 -51 14 -259 4 -460 -6 -121 -14 -308 -17 -415 -9 -353 -45
-598 -113 -781 -45 -120 -161 -227 -285 -264 -78 -23 -306 -20 -382 5 -115 38
-208 95 -272 168 -61 69 -117 170 -128 232 -4 19 -12 45 -20 56 -7 12 -17 59
-23 105 -24 199 -39 368 -38 419 1 30 -4 175 -12 322 -20 386 -6 726 32 764 4
4 7 14 7 23 0 9 21 56 45 105 84 168 197 247 430 299 40 9 216 7 262 -4z"/>
<path d="M9070 12605 c-113 -6 -350 -13 -527 -14 -177 -1 -336 -6 -353 -11
-17 -5 -48 -25 -68 -44 -20 -20 -41 -36 -47 -36 -5 0 -44 -32 -85 -71 -41 -39
-105 -98 -142 -131 -38 -34 -68 -67 -68 -74 0 -33 -36 -4 -198 156 l-171 169
-53 15 c-42 12 -174 16 -638 23 -625 9 -621 10 -652 -39 -21 -33 -11 -128 14
-128 5 0 7 -4 4 -9 -3 -5 10 -21 29 -35 19 -15 41 -42 49 -59 7 -18 39 -60 69
-95 31 -34 63 -75 71 -90 8 -15 23 -36 35 -46 12 -11 21 -25 21 -32 0 -8 9
-19 21 -26 19 -12 63 -71 114 -154 12 -18 38 -49 58 -69 20 -20 43 -51 51 -68
7 -18 29 -50 49 -72 20 -22 37 -45 37 -51 0 -20 55 -63 115 -91 l60 -27 860 1
861 0 33 18 c19 9 45 29 59 43 26 29 120 147 137 173 26 41 112 156 168 224
16 19 38 48 50 65 12 16 65 85 117 152 52 68 110 146 129 173 19 28 49 67 67
87 57 64 69 169 21 182 -26 7 -29 7 -297 -9z"/>
<path d="M12134 11333 c-5 -1 -151 -4 -324 -7 -445 -6 -873 -27 -958 -46 -23
-6 -57 -10 -74 -10 -86 0 -280 -54 -340 -95 -20 -14 -39 -25 -43 -25 -3 0 -16
-12 -30 -27 -13 -16 -35 -41 -49 -57 -14 -16 -26 -36 -26 -45 0 -9 -12 -41
-26 -71 -20 -43 -27 -76 -31 -155 -3 -55 -10 -105 -14 -111 -11 -14 -1 -46 12
-38 11 6 12 -10 2 -20 -10 -10 -11 -296 -1 -296 3 0 4 -30 2 -67 -5 -75 -4
-283 2 -353 8 -98 16 -792 12 -1145 0 -49 0 -205 1 -345 2 -140 2 -282 1 -315
-1 -33 -2 -134 -2 -225 0 -91 -1 -201 -3 -245 -3 -44 -7 -145 -11 -225 -3 -80
-10 -151 -14 -159 -4 -8 -4 -28 1 -45 5 -17 7 -38 4 -47 -8 -24 -17 -474 -18
-858 -1 -244 2 -326 11 -329 7 -2 12 -12 12 -21 0 -10 11 -24 25 -31 13 -7 22
-18 18 -23 -3 -6 -1 -7 5 -3 6 4 26 -1 44 -11 l33 -17 768 2 768 1 37 18 c20
10 49 36 65 59 l28 41 10 454 c5 250 14 616 21 814 6 198 12 380 12 405 l1 45
20 -2 c28 -3 87 -4 105 -2 8 1 33 1 55 0 l40 -2 40 -81 c22 -45 61 -118 86
-162 25 -45 58 -108 73 -141 16 -33 68 -132 115 -220 48 -88 125 -234 171
-325 100 -199 191 -375 252 -490 25 -47 75 -142 112 -213 l68 -127 44 -26 44
-26 272 6 c344 8 638 14 1038 21 173 3 326 10 340 16 14 5 36 26 50 46 37 54
33 118 -12 208 -53 108 -169 329 -179 341 -4 5 -32 57 -62 115 -29 57 -97 185
-151 284 -54 99 -108 198 -119 220 -11 22 -26 51 -34 65 -34 65 -187 356 -236
450 -116 226 -147 284 -163 301 l-17 19 19 6 c157 50 366 218 523 422 51 66
174 318 210 429 39 122 71 268 76 353 8 128 5 476 -5 560 -6 47 -14 117 -19
155 -5 39 -16 93 -24 120 -9 28 -24 79 -33 115 -26 102 -107 273 -185 389
-224 333 -579 556 -1089 687 -102 26 -135 32 -290 53 -41 5 -82 12 -90 15 -14
6 -156 22 -265 31 -27 2 -169 6 -315 10 -146 3 -293 7 -326 8 -34 2 -66 2 -70
0z m228 -1474 c269 0 329 -4 459 -33 78 -17 124 -41 174 -93 71 -73 86 -123
92 -304 l4 -126 -16 -17 c-10 -9 -14 -24 -10 -35 4 -14 -8 -41 -39 -88 -50
-75 -97 -106 -211 -139 l-60 -17 -339 1 c-187 1 -340 3 -342 5 -2 3 -12 264
-20 579 -6 193 -4 251 6 262 7 9 16 13 21 11 4 -3 131 -6 281 -6z"/>
<path d="M17738 11264 c-3 -2 -65 -6 -139 -9 -120 -5 -164 -9 -304 -30 -22 -4
-57 -8 -78 -11 -139 -16 -383 -104 -498 -179 -81 -53 -249 -216 -275 -267 -9
-18 -25 -43 -35 -56 -37 -48 -111 -261 -136 -392 -2 -14 -11 -52 -18 -85 -8
-33 -23 -109 -35 -170 -23 -124 -43 -223 -70 -340 -10 -44 -21 -100 -25 -125
-3 -25 -12 -67 -20 -95 -20 -72 -75 -375 -75 -410 0 -17 -5 -36 -11 -42 -6 -6
-13 -30 -15 -54 -8 -74 -87 -468 -135 -674 -29 -127 -68 -305 -75 -340 -3 -16
-9 -41 -14 -55 -5 -14 -11 -43 -15 -65 -4 -22 -13 -60 -20 -85 -15 -47 -43
-163 -52 -215 -3 -16 -13 -56 -24 -90 -10 -33 -19 -71 -19 -84 0 -25 -12 -77
-35 -151 -8 -25 -19 -73 -24 -108 -6 -34 -13 -67 -17 -73 -4 -6 -8 -30 -9 -53
-2 -37 -23 -140 -55 -266 -6 -25 -15 -65 -20 -90 -8 -47 -54 -267 -90 -430
-26 -121 -35 -237 -21 -272 5 -15 20 -34 33 -42 26 -16 226 -32 503 -41 94 -3
231 -7 305 -11 210 -8 728 -11 777 -4 51 8 93 43 116 98 9 20 28 100 42 177
14 77 32 169 40 205 7 36 30 154 51 263 l37 197 541 -2 541 -3 8 -45 c13 -77
26 -171 37 -265 6 -49 12 -106 15 -125 2 -19 8 -53 14 -75 5 -22 17 -102 27
-177 l17 -137 29 -51 c19 -34 40 -56 61 -65 l33 -13 790 -4 791 -3 18 15 c10
8 26 33 36 56 l19 41 -31 159 c-17 87 -39 206 -49 264 -22 120 -33 176 -61
310 -20 94 -35 170 -85 410 -14 69 -30 141 -34 160 -26 110 -84 352 -111 465
-17 71 -40 177 -50 235 -52 287 -61 340 -69 405 -5 39 -13 84 -18 100 -16 45
-34 154 -27 164 3 5 0 22 -6 38 -15 40 -28 101 -48 233 -17 106 -82 449 -101
530 -11 48 -69 362 -79 430 -5 30 -20 114 -35 185 -14 72 -31 155 -37 185 -6
30 -15 71 -20 91 -5 20 -9 45 -9 56 0 35 -46 163 -98 273 -48 103 -159 251
-216 290 -13 8 -42 31 -67 51 -51 42 -164 107 -229 133 -25 10 -61 25 -80 33
-153 66 -417 109 -720 118 -96 3 -189 8 -207 10 -17 2 -33 2 -35 -1z m123
-1440 c12 -15 28 -90 48 -229 17 -115 42 -270 51 -320 5 -27 17 -99 25 -160 9
-60 22 -150 30 -200 9 -49 19 -126 24 -170 5 -44 14 -93 20 -108 6 -16 11 -42
11 -59 0 -17 4 -47 9 -67 13 -48 31 -139 36 -176 3 -26 10 -64 32 -167 l5 -26
-303 4 c-167 3 -308 9 -313 14 -9 9 9 175 39 350 8 47 22 130 30 185 8 55 19
125 25 155 5 30 26 156 45 280 45 282 53 332 65 400 6 30 14 84 19 120 6 36
15 88 21 115 15 68 51 95 81 59z"/>
<path d="M5690 11243 c-93 -31 -131 -97 -131 -224 0 -45 -5 -104 -10 -132 -6
-29 -11 -56 -10 -62 0 -5 5 -59 11 -120 6 -60 13 -157 16 -215 3 -58 10 -125
15 -150 6 -25 19 -97 29 -160 26 -165 48 -264 60 -268 5 -2 10 -9 10 -15 1
-21 71 -88 106 -103 37 -15 210 -24 994 -47 l395 -12 -3 -17 c-2 -11 3 -18 13
-18 21 0 19 -27 -2 -32 -10 -3 -24 -22 -31 -44 -7 -21 -24 -61 -37 -89 -68
-141 -113 -233 -123 -250 -6 -11 -25 -51 -42 -90 -17 -38 -37 -83 -45 -98 -8
-16 -15 -32 -15 -37 0 -10 -80 -184 -123 -268 -17 -35 -47 -81 -64 -102 -18
-21 -33 -44 -33 -52 0 -7 -6 -22 -14 -33 -19 -28 -53 -87 -96 -170 -34 -66
-91 -135 -111 -135 -5 0 -9 -5 -9 -11 0 -6 -9 -32 -21 -59 -14 -33 -25 -47
-35 -43 -8 3 -14 0 -14 -6 0 -6 5 -11 12 -11 6 0 -7 -18 -30 -40 -23 -21 -42
-46 -42 -54 0 -9 -13 -30 -29 -48 -15 -18 -26 -37 -25 -43 2 -5 -19 -35 -47
-65 -28 -30 -57 -68 -65 -85 -22 -47 -90 -135 -98 -127 -4 4 -6 3 -5 -3 5 -16
-36 -98 -60 -119 -11 -11 -21 -25 -21 -33 0 -7 -6 -13 -13 -13 -11 0 -73 -103
-140 -237 -21 -42 -25 -58 -16 -64 9 -5 10 -11 2 -21 -6 -7 -14 -43 -18 -80
-4 -37 -10 -66 -14 -63 -4 2 -7 -10 -7 -28 1 -45 -13 -181 -25 -255 -6 -34 -9
-68 -6 -75 2 -6 0 -43 -4 -82 -5 -38 -6 -77 -2 -85 11 -26 15 -67 4 -51 -11
17 -17 5 -20 -42 -1 -21 3 -45 11 -54 7 -9 8 -14 2 -10 -7 4 -14 1 -17 -7 -10
-25 -7 -245 3 -251 5 -3 10 -18 11 -33 1 -19 14 -39 44 -65 l43 -38 89 -3 c48
-2 99 -6 113 -10 14 -3 153 -10 310 -16 157 -6 373 -15 480 -21 107 -5 328
-14 490 -19 162 -6 351 -12 420 -15 220 -8 612 -15 1120 -21 l495 -5 32 20
c18 11 46 39 63 63 l31 42 -4 461 c-2 253 0 528 5 612 13 209 -4 261 -97 302
l-43 19 -184 1 c-101 1 -231 6 -289 11 -57 5 -136 9 -176 10 -80 0 -103 6
-103 26 0 15 -12 19 -23 7 -4 -3 -2 -12 5 -20 l11 -14 -214 8 c-118 4 -248 8
-289 8 -100 1 -113 3 -134 18 l-17 13 27 49 c26 46 67 99 190 242 24 28 44 57
44 65 0 7 17 29 38 49 47 47 85 95 105 135 9 17 32 50 52 74 20 24 59 87 86
140 26 52 59 115 73 140 13 25 36 74 51 110 14 36 47 101 72 145 25 44 56 99
69 122 13 23 47 77 76 119 29 41 60 85 68 97 8 12 34 48 58 80 24 33 49 71 55
85 6 15 36 60 67 101 84 113 110 151 110 161 0 5 14 25 30 43 17 19 30 37 30
40 0 3 19 33 43 67 23 34 51 77 62 95 12 19 28 42 36 52 29 34 91 156 106 207
27 96 32 201 35 726 l3 525 -15 30 c-8 16 -31 40 -50 53 l-35 24 -60 -6 c-33
-3 -166 -8 -295 -11 -129 -4 -327 -10 -440 -15 -113 -4 -221 -7 -240 -5 -19 2
-406 6 -860 9 -454 3 -899 10 -990 15 -91 6 -298 12 -460 15 l-295 4 -45 -15z"/>
<path d="M21100 11140 l-385 -5 -33 -20 c-18 -11 -43 -36 -55 -55 l-22 -35 1
-870 c1 -1217 14 -2751 25 -2930 12 -202 34 -343 65 -425 7 -19 22 -66 34
-104 23 -76 114 -252 160 -312 17 -22 41 -55 54 -75 47 -70 197 -217 273 -269
122 -83 314 -175 428 -206 33 -9 76 -20 95 -26 33 -9 251 -42 440 -67 146 -19
728 -11 1005 14 185 17 364 37 400 45 61 14 133 58 153 94 l17 31 -2 510 c-1
281 -5 547 -8 592 -7 89 -25 128 -78 167 l-29 21 -581 0 -582 1 -47 23 c-58
28 -69 40 -79 94 -5 23 -12 515 -15 1092 -3 578 -9 1178 -13 1335 -4 157 -8
504 -9 771 l-2 486 -14 34 c-15 36 -46 69 -85 89 -24 12 -157 12 -1111 0z"/>
<path d="M25825 11020 c-179 -15 -438 -75 -604 -141 -67 -27 -268 -133 -281
-149 -3 -3 -25 -20 -50 -38 -61 -44 -231 -213 -289 -287 -105 -134 -248 -379
-308 -528 -86 -215 -116 -323 -177 -632 -42 -216 -59 -535 -60 -1145 l-1 -545
22 -140 c42 -259 103 -461 209 -684 89 -189 246 -406 394 -542 323 -299 739
-479 1256 -541 206 -25 684 -12 839 22 22 5 63 14 90 20 405 88 591 182 848
429 152 146 254 289 352 491 29 60 47 103 121 295 15 39 31 90 34 115 4 25 12
65 18 90 50 207 73 483 67 815 -6 313 -10 409 -19 423 -3 6 -8 68 -11 139 -11
268 -39 563 -69 718 -13 72 -19 100 -42 200 -20 91 -62 217 -97 297 -10 21
-17 42 -17 48 0 12 -121 262 -130 270 -4 3 -30 41 -58 85 -55 85 -107 159
-132 185 -126 135 -150 158 -299 282 -78 66 -306 198 -403 234 -244 90 -397
136 -548 165 -289 55 -442 66 -655 49z m533 -1495 c148 -35 245 -118 322 -276
27 -56 50 -113 50 -127 0 -13 9 -54 20 -90 35 -120 55 -325 70 -717 11 -274 9
-379 -10 -540 -5 -44 -11 -100 -14 -125 -22 -208 -120 -380 -256 -450 -91 -46
-154 -60 -269 -60 -116 0 -194 19 -283 67 -133 72 -216 244 -239 491 -11 119
-10 209 6 692 2 80 7 262 10 405 11 533 60 648 310 733 46 15 212 14 283 -3z"/>
<path d="M28969 10807 c-18 -12 -44 -40 -57 -62 l-23 -40 3 -620 c1 -349 -4
-808 -12 -1050 -21 -683 -18 -1212 11 -2005 10 -275 8 -625 -7 -1073 l-7 -187
41 -39 41 -39 68 -7 c72 -7 891 0 1193 11 l175 6 18 21 c39 47 48 67 57 123
13 73 20 540 22 1359 1 347 3 634 5 638 5 9 47 -47 85 -113 37 -66 298 -586
358 -715 87 -186 220 -484 270 -605 26 -63 80 -194 120 -290 126 -306 150
-348 207 -371 52 -20 446 -4 1053 42 74 6 162 12 195 15 281 19 363 27 381 36
58 28 67 112 20 193 -13 22 -41 72 -62 110 -21 39 -44 77 -52 85 -8 8 -25 38
-38 66 -12 28 -68 127 -123 219 -56 93 -101 172 -101 176 0 4 -23 45 -51 91
-28 46 -93 164 -144 263 -50 99 -115 218 -142 265 -28 47 -68 121 -88 165 -41
86 -40 85 -83 160 -44 78 -48 86 -73 145 -13 30 -34 69 -46 87 -36 53 -113
202 -113 217 0 8 -4 16 -8 18 -16 6 -103 190 -97 207 3 10 13 26 23 37 10 11
32 42 48 69 16 27 34 59 41 70 7 11 22 39 35 63 12 23 26 42 30 42 4 0 8 7 8
16 0 8 18 42 40 74 22 32 40 66 40 74 0 9 5 16 10 16 6 0 10 6 11 13 0 6 14
32 30 57 62 97 221 416 249 501 11 34 29 78 40 96 11 19 20 41 20 49 0 8 7 31
17 52 9 20 15 41 14 45 -1 4 4 18 11 30 7 12 11 28 10 35 -3 11 13 65 93 312
19 58 37 119 40 137 4 17 13 37 21 44 8 6 14 20 14 31 0 10 7 32 15 48 9 17
15 31 14 32 -3 11 49 124 81 173 14 22 41 74 60 115 19 41 39 78 43 81 5 3 8
8 7 10 -1 2 2 17 5 32 10 38 -11 104 -37 118 -14 8 -108 9 -327 4 -498 -11
-746 -12 -921 -3 -222 11 -224 10 -255 -127 -9 -38 -25 -94 -35 -123 -11 -29
-20 -63 -20 -75 0 -29 -90 -292 -129 -380 -17 -38 -31 -77 -31 -87 0 -16 -198
-417 -219 -444 -8 -11 -120 -221 -149 -281 -26 -53 -233 -428 -267 -485 -19
-30 -48 -81 -65 -112 -18 -31 -41 -65 -52 -75 l-20 -18 8 165 c16 340 9 1732
-10 1958 -3 39 -31 79 -76 110 l-33 22 -697 0 -697 0 -34 -23z"/>
<path d="M0 10526 c0 -13 74 -43 163 -65 60 -14 300 -25 272 -12 -11 5 -45 10
-75 10 -99 2 -232 30 -318 67 -40 17 -42 17 -42 0z"/>
<path d="M5825 4394 c-102 -8 -181 -27 -213 -51 -34 -25 -72 -89 -78 -132 -5
-31 -17 -120 -35 -258 -7 -57 -16 -103 -20 -103 -4 0 -6 -19 -5 -42 1 -24 -3
-81 -10 -128 -7 -47 -18 -123 -24 -170 -6 -47 -15 -105 -20 -130 -5 -25 -12
-72 -15 -105 -3 -33 -10 -91 -15 -130 -13 -86 -27 -217 -40 -355 -5 -58 -14
-148 -20 -200 -24 -199 -43 -478 -38 -565 l3 -70 34 -47 c22 -31 44 -49 62
-53 16 -4 29 -11 29 -16 0 -6 4 -8 8 -5 4 3 41 -4 82 -15 44 -11 107 -19 155
-19 45 0 107 -5 136 -11 214 -43 657 -13 821 55 20 9 44 13 52 10 9 -3 16 -1
16 5 0 6 21 22 48 35 72 37 169 117 214 177 92 121 143 253 159 413 18 178 2
283 -61 405 -27 53 -114 146 -155 165 -34 16 -39 36 -10 36 7 0 52 37 99 83
l85 82 39 80 c60 121 85 270 79 455 -3 109 -12 145 -56 244 l-26 60 -80 63
c-44 35 -113 79 -154 99 -89 42 -247 89 -356 104 -44 6 -101 16 -126 21 -44
10 -479 19 -564 13z m410 -451 c99 -8 198 -18 220 -23 22 -5 54 -10 72 -10 18
0 48 -10 66 -22 19 -13 42 -27 50 -33 9 -5 17 -19 19 -30 2 -11 9 -26 16 -34
8 -8 11 -22 9 -32 -3 -11 0 -19 6 -19 8 0 9 -3 1 -8 -6 -4 -10 -38 -10 -79 1
-40 -2 -73 -6 -73 -5 0 -8 -13 -8 -29 0 -38 -42 -131 -71 -157 -35 -32 -78
-51 -149 -68 -65 -14 -105 -14 -410 2 l-135 7 1 25 c3 79 69 570 80 590 4 9
60 8 249 -7z m-276 -1018 c46 -8 88 -12 92 -9 5 3 71 0 146 -6 185 -14 258
-43 351 -137 93 -94 104 -185 44 -352 -23 -62 -83 -123 -152 -154 -25 -11 -88
-26 -140 -32 -127 -17 -465 -6 -500 15 l-13 8 8 114 c4 62 9 138 10 168 0 30
6 87 13 125 7 39 19 112 27 163 13 81 21 112 28 112 1 0 40 -7 86 -15z"/>
<path d="M9539 4326 c-2 -3 -81 -7 -174 -10 -258 -8 -398 -29 -439 -64 -42
-38 -53 -87 -61 -277 -6 -147 -14 -415 -19 -650 -7 -349 -49 -1235 -61 -1290
-2 -11 -5 -67 -6 -125 l-1 -104 33 -29 34 -28 184 6 c195 6 222 13 251 58 13
21 19 108 49 695 6 112 12 206 15 210 2 4 78 6 168 4 l163 -3 26 -42 c15 -23
46 -78 69 -122 24 -44 69 -126 101 -182 33 -57 74 -133 93 -171 19 -37 60
-108 91 -157 30 -50 63 -106 72 -125 30 -60 71 -107 100 -113 16 -3 118 -1
228 5 l200 11 23 20 c39 36 35 48 -87 262 -139 242 -374 679 -387 718 -3 11 0
17 10 17 26 0 116 55 188 115 123 101 203 228 232 366 55 268 42 460 -41 621
-42 82 -155 201 -233 245 -131 73 -276 113 -481 132 -113 11 -332 15 -340 7z
m232 -455 c171 -12 261 -44 330 -118 67 -72 82 -172 51 -330 -43 -214 -255
-296 -694 -266 l-98 6 5 86 c2 47 7 200 10 340 4 139 9 259 12 267 4 10 35 14
121 17 65 1 122 3 127 4 6 1 67 -2 136 -6z"/>
<path d="M13099 4309 c-221 -33 -340 -140 -409 -369 -12 -41 -29 -93 -37 -115
-9 -22 -17 -56 -20 -75 -3 -19 -11 -45 -19 -57 -8 -12 -14 -33 -14 -46 0 -13
-6 -43 -14 -68 -8 -24 -24 -78 -36 -119 -12 -41 -29 -95 -37 -120 -8 -25 -23
-81 -33 -125 -17 -75 -29 -117 -93 -335 -35 -115 -103 -347 -132 -447 -13 -45
-35 -115 -48 -155 -14 -40 -32 -100 -42 -133 -9 -33 -25 -82 -36 -109 -26 -67
-25 -139 3 -165 l21 -20 186 0 c127 0 194 4 211 12 32 16 62 78 93 192 76 277
117 411 130 428 l12 16 369 2 369 3 20 -59 c11 -33 26 -75 33 -93 8 -18 14
-41 14 -52 0 -11 9 -48 20 -82 11 -35 36 -115 55 -178 20 -63 45 -124 56 -134
l19 -20 186 0 186 -1 31 18 30 18 -6 67 c-3 37 -19 112 -37 167 -17 55 -42
136 -55 180 -45 155 -86 290 -97 325 -19 59 -92 332 -108 400 -4 19 -24 98
-44 175 -56 222 -105 418 -142 575 -43 177 -53 212 -78 270 -26 62 -126 163
-184 188 -84 36 -230 54 -323 41z m91 -433 c12 -16 35 -97 51 -184 5 -29 16
-78 25 -110 9 -31 20 -81 24 -111 5 -29 13 -65 19 -80 5 -14 17 -60 26 -101 9
-41 22 -97 30 -125 27 -96 37 -140 42 -180 3 -22 9 -45 14 -51 6 -8 2 -14 -13
-18 -33 -8 -501 -7 -515 2 -9 6 -6 29 11 92 13 47 34 128 46 180 12 52 33 129
45 170 13 41 33 118 45 170 12 52 30 122 40 155 10 33 21 76 25 95 12 58 43
109 66 110 4 0 12 -7 19 -14z"/>
<path d="M32216 4304 c-62 -15 -105 -38 -170 -88 -37 -30 -99 -136 -117 -201
-36 -128 -65 -237 -89 -335 -16 -63 -38 -153 -50 -200 -12 -47 -28 -123 -35
-170 -8 -47 -21 -110 -30 -140 -27 -93 -107 -445 -186 -815 -13 -62 -24 -107
-38 -161 -28 -107 -5 -173 62 -175 17 -1 57 -2 87 -3 82 -3 182 12 209 32 29
21 39 51 51 147 23 178 41 289 49 299 5 6 12 35 16 63 4 29 15 63 25 76 l19
24 93 7 c51 4 188 10 305 12 l212 6 14 -29 c8 -15 20 -50 26 -78 7 -27 19 -67
27 -88 8 -21 25 -86 39 -145 40 -170 63 -231 95 -250 l27 -17 176 5 177 5 16
16 c24 25 30 91 10 121 -9 14 -16 30 -14 34 1 5 -3 18 -9 29 -6 11 -14 43 -18
70 -4 28 -16 67 -26 87 -11 21 -19 44 -19 53 0 9 -13 57 -30 107 -16 50 -30
98 -30 107 0 9 -5 22 -11 28 -6 6 -12 21 -14 34 -2 13 -9 44 -15 69 -6 25 -13
63 -17 85 -3 22 -12 49 -19 60 -7 11 -16 38 -20 60 -3 22 -10 45 -14 50 -13
18 -40 113 -40 141 0 15 -4 43 -10 63 -5 20 -25 104 -45 186 -19 83 -40 164
-46 180 -6 17 -15 46 -19 65 -20 90 -43 177 -52 193 -4 9 -11 39 -15 65 -3 26
-9 52 -13 57 -3 6 -13 30 -20 54 -20 64 -104 151 -183 189 l-64 32 -99 -1
c-55 0 -126 -7 -158 -15z m134 -415 c12 -22 30 -79 40 -127 33 -149 70 -313
91 -400 26 -110 61 -284 57 -287 -7 -5 -432 -24 -440 -19 -12 8 -1 86 23 157
10 31 19 78 19 105 1 26 7 58 15 72 8 14 14 39 15 57 0 17 5 35 10 38 6 3 10
22 10 41 0 19 4 34 9 34 4 0 11 27 14 59 4 33 14 79 23 103 13 36 30 107 36
156 1 6 5 12 9 12 3 0 9 9 12 20 8 33 35 23 57 -21z"/>
<path d="M15304 4264 c-12 -3 -30 -14 -40 -25 l-19 -21 -6 -146 -6 -147 15
-30 c8 -16 17 -32 19 -35 3 -3 136 -7 296 -10 l292 -5 0 -170 c-1 -618 -7
-1090 -15 -1187 -5 -62 -12 -216 -16 -343 -7 -260 -2 -304 43 -325 43 -19 342
-30 370 -13 47 28 50 48 58 403 5 184 9 369 10 410 5 168 16 662 20 925 3 153
9 283 14 288 5 5 40 6 77 3 38 -3 96 -7 129 -9 33 -1 125 -7 205 -11 l146 -9
28 25 29 25 7 154 c8 168 1 202 -44 219 -13 5 -140 12 -282 15 -143 4 -262 9
-265 11 -9 5 -1042 13 -1065 8z"/>
<path d="M30305 4218 c-78 -7 -103 -13 -116 -27 -9 -12 -20 -59 -28 -122 -7
-57 -20 -142 -28 -189 -8 -47 -18 -112 -23 -145 -4 -33 -13 -89 -18 -125 -6
-36 -16 -108 -22 -160 -6 -52 -18 -122 -26 -155 -7 -33 -21 -116 -29 -185 -15
-116 -28 -183 -70 -350 -28 -108 -33 -131 -50 -225 -15 -88 -39 -203 -57 -277
l-9 -38 -24 0 c-27 0 -32 6 -39 41 -2 13 -19 83 -36 154 -17 72 -33 139 -35
150 -1 11 -10 40 -18 65 -9 25 -18 65 -22 90 -3 25 -15 78 -25 118 -11 40 -20
85 -20 100 0 16 -3 32 -7 36 -8 7 -17 47 -47 208 -8 42 -22 101 -31 130 -9 29
-25 91 -34 138 -16 73 -46 197 -106 432 -8 32 -15 66 -15 75 0 10 -10 38 -21
63 -12 25 -28 59 -36 76 -25 54 -42 58 -208 41 l-147 -16 -14 -18 c-18 -22
-13 -115 8 -183 32 -99 109 -376 137 -495 6 -22 26 -105 46 -185 19 -80 42
-174 51 -210 9 -36 26 -110 40 -165 29 -122 82 -320 117 -435 14 -47 37 -130
52 -185 54 -201 68 -240 99 -290 36 -55 88 -105 139 -132 39 -21 199 -24 264
-5 125 36 230 144 259 267 4 17 9 35 13 40 3 6 7 21 8 35 7 60 56 314 80 410
14 58 27 116 29 130 1 14 16 72 33 129 17 57 33 131 37 165 4 33 11 72 16 86
11 28 14 46 52 299 15 96 29 178 32 183 7 12 42 206 65 364 5 40 14 87 19 105
6 19 10 62 10 96 l0 62 -22 21 c-24 22 -53 24 -223 8z"/>
<path d="M18725 4200 c-33 -4 -94 -8 -135 -9 -100 -2 -122 -14 -138 -76 l-14
-50 -1 -1153 -2 -1153 27 -26 26 -25 180 4 c99 3 184 8 191 12 6 4 18 21 27
38 l16 31 9 286 c7 240 3 1617 -6 1704 -1 15 -3 109 -4 210 l-1 183 -35 17
c-38 18 -45 18 -140 7z"/>
<path d="M20995 4175 c-149 -26 -201 -45 -340 -122 -33 -19 -108 -102 -139
-155 -40 -68 -65 -170 -73 -288 -9 -168 24 -305 105 -424 51 -76 87 -112 187
-185 94 -69 100 -73 205 -131 36 -20 90 -52 120 -71 30 -20 100 -62 155 -94
195 -115 282 -180 310 -236 43 -82 23 -209 -45 -283 l-39 -42 -80 -18 -81 -19
-263 17 c-144 9 -304 21 -356 26 -136 14 -138 12 -142 -198 l-4 -142 32 -31
c21 -21 46 -34 75 -39 23 -4 84 -15 133 -24 108 -20 263 -37 405 -43 109 -4
358 14 375 27 6 5 40 19 76 33 136 51 226 113 297 203 93 119 136 263 134 449
-3 210 -67 352 -222 498 -90 83 -142 116 -513 322 -73 40 -163 90 -202 111
-158 88 -223 195 -181 295 19 46 61 83 120 110 l50 22 210 -2 c116 -1 279 -7
361 -13 150 -12 222 -13 260 -4 40 10 47 40 46 200 l0 151 -32 27 c-22 19 -51
30 -98 37 -273 44 -700 62 -846 36z"/>
<path d="M23672 4170 l-114 -7 -25 -25 -25 -25 16 -329 c22 -456 33 -670 41
-744 5 -44 28 -480 28 -530 0 -68 27 -370 36 -405 5 -22 15 -59 21 -83 27
-108 122 -238 217 -295 129 -78 266 -103 573 -101 224 2 419 21 497 50 33 12
43 21 48 45 11 49 -6 281 -21 305 -28 42 -50 44 -407 44 l-342 0 -42 19 c-49
23 -88 76 -102 142 -6 25 -13 104 -16 175 -3 71 -10 199 -16 284 -5 85 -14
241 -19 345 -5 105 -12 208 -15 230 -3 22 -10 164 -16 315 -13 345 -24 498
-37 531 -6 15 -23 36 -38 48 -29 23 -39 23 -242 11z"/>
<path d="M26892 4130 c-61 -13 -159 -68 -192 -108 -56 -68 -91 -149 -116 -270
-14 -64 -30 -137 -35 -162 -6 -25 -14 -67 -19 -95 -5 -27 -16 -81 -23 -120 -8
-38 -20 -99 -27 -135 -6 -36 -16 -81 -20 -100 -9 -37 -46 -234 -54 -285 -2
-16 -14 -77 -25 -135 -12 -58 -30 -163 -40 -235 -11 -71 -21 -141 -24 -155 -3
-14 -11 -59 -17 -100 -6 -41 -15 -100 -20 -130 -5 -30 -12 -82 -15 -115 -4
-33 -13 -85 -21 -117 -8 -31 -15 -89 -15 -129 l-1 -73 26 -21 27 -22 167 4
166 4 33 20 c37 23 37 23 53 169 14 129 38 301 51 357 5 23 9 60 9 81 0 22 6
44 13 50 7 6 78 11 177 11 91 1 242 4 336 7 l170 5 12 -25 c26 -58 89 -263
137 -446 26 -99 41 -140 58 -154 l22 -19 115 8 c215 14 213 13 239 39 27 27
31 67 13 126 -6 19 -19 67 -28 105 -9 39 -20 78 -25 87 -5 10 -20 61 -34 113
-14 53 -46 156 -70 228 -24 73 -47 150 -50 172 -11 61 -32 141 -44 162 -5 11
-16 46 -24 79 -8 32 -20 73 -25 89 -6 17 -18 59 -28 95 -9 36 -22 83 -30 105
-7 22 -33 105 -58 185 -106 343 -179 559 -216 634 -30 62 -127 151 -205 188
l-66 30 -107 4 c-59 2 -126 -1 -150 -6z m184 -457 c9 -20 27 -72 40 -117 25
-82 34 -113 77 -266 13 -47 41 -141 62 -210 20 -69 49 -173 65 -232 l27 -108
-81 0 c-45 0 -156 -3 -247 -7 -98 -3 -169 -2 -172 4 -3 5 3 58 14 118 10 61
24 143 30 184 5 41 14 82 19 91 5 10 7 20 4 23 -4 3 -1 27 5 54 5 26 15 82 21
122 6 41 15 80 19 85 5 6 11 48 15 93 3 46 11 94 16 109 6 14 10 41 10 60 l0
34 31 0 30 0 15 -37z"/>
</g>
</svg>
