<svg role="img" aria-label="SYNCHRO Žralok Bratislava" version="1.0" xmlns="http://www.w3.org/2000/svg"
 width="100%" height="100%" viewBox="0 0 1080.000000 1080.000000"
 preserveAspectRatio="xMidYMid meet">

<g transform="translate(0.000000,1080.000000) scale(0.100000,-0.100000)"
fill="currentColor" stroke="none">
<path d="M5071 8673 c-16 -10 -21 -25 -21 -57 0 -81 -1 -81 -230 -81 -187 0
-201 1 -195 18 3 9 8 26 11 36 6 20 -26 61 -47 61 -19 0 -89 -77 -89 -98 0
-26 -17 -38 -67 -46 -43 -6 -43 -6 -43 25 0 46 -16 69 -50 69 -37 0 -60 -33
-65 -92 l-3 -43 -93 -41 c-185 -81 -332 -184 -489 -343 -207 -208 -301 -366
-411 -689 l-62 -184 -96 -83 c-174 -152 -516 -514 -566 -600 -65 -110 -165
-312 -181 -365 -33 -113 -43 -334 -24 -550 12 -127 23 -154 75 -176 43 -17 58
-12 161 59 123 83 159 94 239 72 69 -18 294 -126 413 -197 93 -55 172 -151
172 -209 0 -20 7 -52 14 -71 13 -30 13 -42 2 -79 -48 -159 -70 -534 -47 -800
47 -542 206 -1028 388 -1189 104 -91 252 -134 440 -128 120 3 143 18 143 87
l0 36 458 153 c251 83 463 152 470 152 14 0 561 -537 593 -581 l18 -26 -72
-36 c-109 -54 -297 -229 -313 -291 -8 -34 15 -78 50 -95 26 -12 34 -11 80 9
131 57 127 58 187 -81 23 -54 48 -104 56 -110 19 -16 17 -260 -3 -380 -30
-181 -104 -366 -207 -519 -61 -91 -66 -129 -22 -167 38 -33 84 -27 161 22 208
133 534 579 580 794 18 87 18 258 -1 387 l-16 103 32 83 c18 46 59 124 91 173
71 108 166 300 203 409 81 242 96 514 39 708 -4 13 8 18 68 28 164 26 235 73
277 184 55 148 50 451 -12 614 -48 128 -120 244 -203 329 -69 70 -72 75 -99
170 -39 139 -50 163 -75 163 -12 0 -92 -21 -177 -46 -153 -45 -155 -45 -200
-30 -69 23 -163 80 -210 125 -128 124 -134 187 -34 385 38 73 65 141 69 171
l7 50 61 0 c65 0 55 -5 206 103 36 25 128 55 243 77 44 8 116 22 160 31 197
39 404 179 565 383 191 243 432 738 484 993 60 301 -13 511 -208 602 -94 43
-148 51 -351 50 -316 -3 -558 -57 -854 -192 l-45 -20 -49 28 c-28 16 -59 42
-70 59 -12 19 -41 42 -77 59 -35 16 -65 38 -75 55 -26 44 -68 60 -144 55 -76
-6 -113 11 -204 89 -126 108 -316 199 -512 244 l-100 23 0 62 c0 52 -4 67 -23
87 -30 32 -55 38 -81 20z m-383 -255 c-56 -50 -85 -104 -112 -207 -22 -84 -29
-98 -72 -142 -32 -32 -63 -53 -89 -60 -63 -17 -108 -44 -170 -101 -70 -64 -94
-113 -95 -191 0 -42 -10 -82 -36 -150 -55 -140 -48 -280 21 -418 22 -45 22
-46 3 -58 -24 -15 -14 -35 11 -21 26 13 31 4 31 -59 0 -57 -27 -131 -69 -189
-31 -44 -81 -147 -98 -204 -22 -72 -20 -216 7 -398 15 -106 18 -146 10 -148
-23 -8 -80 -64 -74 -74 4 -5 15 -1 28 10 25 23 66 45 66 36 0 -3 -23 -26 -50
-51 -59 -53 -57 -79 3 -28 22 19 44 35 48 35 19 0 19 -56 1 -369 -13 -228 11
-430 69 -583 35 -89 155 -276 273 -423 l83 -102 -162 -48 -161 -47 -41 20
c-44 23 -53 37 -53 85 -1 42 -32 130 -45 126 -5 -2 -8 -38 -6 -81 l3 -78 -44
-37 c-23 -21 -63 -59 -88 -84 -33 -35 -59 -51 -98 -62 l-53 -15 7 46 c21 147
72 279 148 386 95 134 85 208 -44 349 -89 96 -135 121 -211 114 -72 -8 -85 15
-19 33 98 26 218 -39 275 -150 19 -36 39 -32 25 6 -28 74 -97 148 -165 180
-59 28 -156 32 -212 9 -50 -21 -46 -23 -108 63 -107 145 -210 391 -249 592
-22 112 -24 116 -38 102 -28 -28 46 -343 116 -496 20 -43 36 -80 36 -82 0 -3
-24 10 -52 27 -85 50 -288 146 -357 168 -127 41 -219 20 -359 -84 -43 -31 -63
-41 -69 -32 -4 6 -9 115 -11 242 -5 288 3 331 88 502 107 214 149 274 272 396
62 62 156 157 208 213 52 55 122 123 156 152 l61 51 -32 -109 c-37 -122 -74
-301 -78 -370 -4 -91 18 -47 49 97 42 198 166 591 265 840 116 295 402 601
707 756 178 91 324 129 552 145 l35 2 -37 -32z m254 1 c160 -33 316 -152 457
-347 51 -72 79 -93 129 -95 50 -3 49 15 -1 33 -34 13 -51 30 -101 105 -69 104
-151 186 -254 256 -89 59 -76 62 89 20 225 -57 385 -138 490 -247 50 -53 79
-73 71 -50 -1 4 14 -3 35 -15 32 -20 51 -24 117 -24 77 0 80 -1 86 -25 4 -16
0 -34 -12 -50 -23 -32 -35 -115 -19 -134 7 -8 36 -26 67 -40 47 -23 88 -67 73
-80 -8 -7 -310 -146 -404 -186 -101 -43 -125 -48 -125 -26 0 7 -7 19 -16 27
-51 42 -68 136 -34 191 25 41 27 110 4 129 -15 12 -18 11 -28 -5 -31 -55 -55
-69 -112 -64 -82 7 -122 41 -247 208 -182 245 -266 315 -380 313 -71 -1 -94
-23 -152 -141 -57 -117 -67 -129 -115 -138 l-35 -7 37 41 c21 23 40 54 44 69
53 244 146 321 336 282z m-27 -186 c-87 -45 -129 -122 -123 -222 1 -34 0 -61
-4 -61 -16 0 -28 41 -28 93 0 104 80 207 160 206 25 0 25 0 -5 -16z m2600
-266 c106 -29 168 -78 217 -170 35 -64 32 -291 -4 -427 -97 -361 -345 -808
-555 -1000 -139 -128 -262 -187 -470 -225 -76 -14 -165 -33 -198 -44 -105 -34
-170 -60 -168 -68 1 -5 -21 -25 -49 -46 -64 -47 -96 -48 -145 -4 -105 92 -156
121 -385 218 -251 105 -305 151 -462 389 -57 85 -126 185 -154 222 -66 87
-112 171 -158 286 -21 52 -43 96 -50 99 -7 3 -43 -10 -79 -28 -122 -60 -255
-43 -354 46 -46 42 -71 41 -71 -3 0 -16 13 -126 30 -243 16 -118 34 -250 40
-294 6 -44 15 -201 20 -350 10 -308 30 -452 84 -617 68 -209 168 -373 315
-518 138 -136 277 -222 561 -347 31 -14 47 -8 -235 -91 -267 -80 -223 -85
-372 46 -113 100 -195 198 -272 326 -126 210 -180 374 -207 635 -19 180 -20
185 -35 175 -9 -5 -10 -41 -5 -128 14 -253 44 -373 140 -571 101 -207 226
-363 404 -508 34 -28 59 -54 55 -58 -5 -4 -102 -35 -218 -69 l-210 -62 -34 38
c-18 22 -71 89 -116 149 -269 359 -292 454 -272 1122 5 168 3 217 -7 240 -21
42 -49 264 -50 383 -1 118 25 201 95 311 20 30 43 67 53 82 10 17 23 26 31 23
8 -3 17 -1 20 5 4 5 0 11 -7 14 -10 4 -13 29 -11 98 1 63 -3 97 -12 107 -7 8
-27 46 -46 84 -28 60 -33 81 -37 170 -4 96 -2 105 28 176 22 53 33 97 37 150
7 95 29 138 96 191 111 89 194 98 392 45 221 -60 281 -93 520 -286 82 -66 99
-76 168 -97 29 -8 96 -35 149 -59 54 -24 113 -44 132 -44 37 0 255 93 576 245
437 207 619 268 870 295 111 11 352 4 415 -13z m-1304 -16 c24 -24 29 -38 29
-76 0 -41 -22 -115 -34 -115 -3 0 2 16 10 35 16 40 18 108 4 135 -6 11 -23 26
-38 34 -15 9 -21 15 -14 16 8 0 27 -13 43 -29z m-1146 -9 c0 -18 -20 -15 -23
4 -3 10 1 15 10 12 7 -3 13 -10 13 -16z m90 -93 c5 -14 1 -27 -9 -37 -14 -14
-17 -14 -36 3 -22 20 -27 61 -7 68 18 7 45 -10 52 -34z m1010 16 c0 -10 -5
-20 -11 -22 -13 -4 -27 24 -18 38 9 15 29 4 29 -16z m169 -16 c14 -11 26 -24
26 -28 0 -6 -103 -61 -114 -61 -2 0 4 25 13 55 18 61 32 68 75 34z m-959 -145
c-19 -29 -76 -57 -99 -48 -22 9 -20 19 5 21 33 3 68 31 87 70 17 36 17 36 20
9 2 -15 -4 -39 -13 -52z m-425 -645 c39 -96 109 -214 177 -301 28 -35 81 -110
118 -168 164 -255 238 -316 530 -440 185 -78 345 -176 345 -210 0 -22 -37 -12
-62 16 -41 47 -121 78 -177 69 -88 -13 -87 -13 -122 40 -50 74 -120 107 -214
101 l-70 -4 -20 51 c-28 72 -60 92 -143 91 -37 0 -77 -4 -89 -8 -22 -8 -23 -6
-23 52 0 93 -57 142 -165 142 -25 0 -26 2 -19 38 4 20 15 58 25 83 20 53 12
78 -42 134 -25 26 -29 39 -29 83 0 75 -51 162 -108 184 -5 1 -11 25 -14 51 -5
46 -4 48 26 62 17 7 34 14 37 14 4 1 21 -35 39 -80z m-292 24 c-9 -21 -70
-123 -74 -123 -2 0 -10 12 -18 28 -18 36 -5 69 36 87 36 16 61 19 56 8z m147
-13 c8 -26 -20 -73 -56 -94 -16 -9 -49 -32 -74 -51 l-44 -34 5 32 c9 52 57
141 84 154 39 20 78 16 85 -7z m72 -112 c30 -34 43 -63 43 -98 0 -37 -32 -54
-124 -64 -33 -4 -79 -15 -103 -26 -24 -10 -43 -17 -43 -16 0 16 36 99 56 129
29 45 99 97 129 97 12 0 31 -10 42 -22z m-312 -114 c11 -43 13 -83 8 -156 -5
-80 -3 -110 12 -158 17 -55 17 -69 5 -159 -16 -125 -9 -178 36 -259 l35 -65
-20 -48 c-41 -94 -26 -150 60 -229 54 -50 62 -62 78 -125 10 -39 26 -85 35
-104 29 -55 104 -129 139 -136 51 -11 100 -43 131 -86 43 -62 136 -159 166
-174 20 -11 43 -11 108 -3 81 9 84 9 148 -21 36 -17 85 -45 109 -62 40 -29 49
-31 100 -27 86 7 128 46 170 159 l24 64 0 -79 c1 -108 -22 -157 -84 -181 -25
-9 -80 -39 -122 -67 -123 -80 -139 -79 -373 36 -179 88 -279 157 -386 263
-133 132 -225 286 -291 481 -59 176 -73 282 -83 602 -6 181 -16 338 -29 430
-11 80 -22 165 -26 190 l-6 45 21 -37 c11 -20 27 -63 35 -94z m237 -138 c-22
-24 -62 -76 -88 -115 -53 -81 -69 -87 -83 -33 -37 132 -6 161 203 191 5 0 -10
-19 -32 -43z m177 7 c29 -36 35 -66 20 -95 -7 -12 -15 -36 -19 -53 -4 -20 -14
-32 -30 -37 -50 -15 -264 -57 -268 -54 -11 12 146 225 182 247 45 28 90 25
115 -8z m-29 -260 c0 -3 -44 -52 -98 -107 -54 -56 -118 -127 -141 -159 -59
-78 -75 -74 -79 20 -5 132 37 207 136 237 47 15 182 22 182 9z m149 -27 c132
-69 38 -244 -178 -331 -62 -25 -191 -46 -191 -30 0 4 28 39 62 79 34 39 88
112 121 161 93 142 116 157 186 121z m278 -172 c77 -48 54 -192 -48 -308 -94
-106 -313 -242 -411 -253 l-50 -6 44 60 c25 33 87 131 138 217 99 166 183 276
227 300 30 16 64 12 100 -10z m254 -140 c112 -56 144 -174 73 -275 -60 -87
-206 -224 -290 -272 -130 -74 -263 -128 -237 -95 50 61 147 197 187 260 62
100 82 155 97 264 20 154 53 177 170 118z m-581 -22 c0 -24 -213 -272 -251
-293 -54 -29 -109 30 -109 117 0 69 14 85 88 95 33 5 105 26 159 48 106 43
113 45 113 33z m940 -130 c93 -46 77 -188 -40 -371 -60 -94 -130 -161 -226
-218 -84 -49 -175 -96 -179 -91 -2 2 12 28 30 58 46 73 90 197 106 295 15 94
103 291 145 324 34 27 115 28 164 3z m-680 -145 c0 -18 -36 -120 -53 -147 -73
-125 -168 -220 -233 -234 -57 -13 -134 74 -134 149 0 38 28 75 58 75 27 0 221
83 287 123 55 33 75 42 75 34z m334 -159 c-37 -216 -137 -413 -235 -463 -83
-43 -206 22 -224 119 -11 58 0 73 88 118 125 62 313 198 340 244 16 28 37 16
31 -18z m282 -204 c-4 -29 -2 -52 5 -60 14 -17 2 -52 -17 -50 -11 1 -25 -25
-47 -83 -21 -56 -45 -98 -69 -124 -36 -38 -40 -40 -84 -33 -49 6 -108 37 -117
60 -12 31 29 82 113 141 47 32 114 90 150 127 36 37 67 68 69 68 2 0 1 -21 -3
-46z m109 -373 c20 -91 2 -118 -59 -90 l-24 11 20 35 c18 29 20 46 16 116 l-6
82 20 -45 c11 -25 26 -74 33 -109z m-2293 26 c72 -58 135 -138 148 -188 14
-50 3 -86 -46 -154 -77 -107 -126 -230 -152 -379 l-18 -100 -73 -22 c-40 -12
-78 -27 -83 -32 -5 -5 1 -40 16 -88 13 -43 75 -250 136 -459 62 -209 125 -408
141 -442 47 -99 135 -168 309 -241 24 -10 23 -11 -12 -11 -105 -2 -220 45
-297 121 -208 208 -384 998 -343 1536 33 428 124 581 274 459z m2368 28 c10
-9 47 -30 83 -49 l66 -33 -41 -12 -41 -13 -39 44 c-57 65 -76 107 -28 63z
m673 -478 c92 -324 126 -461 122 -480 -10 -38 -68 -94 -173 -166 -81 -56 -137
-107 -167 -153 -6 -9 -514 -183 -1203 -413 l-1194 -398 -66 27 c-190 77 -236
143 -336 481 -24 83 -74 251 -111 375 -37 124 -70 235 -72 247 -5 23 15 31
277 107 47 13 337 99 645 191 308 91 839 249 1180 350 341 101 694 206 785
234 91 27 170 50 175 50 6 0 68 -203 138 -452z m-668 373 c18 -19 17 -20 -3
-20 -15 0 -22 6 -22 20 0 11 2 20 3 20 2 0 12 -9 22 -20z m-190 -71 c2 -3 -36
-17 -85 -31 -50 -14 -90 -24 -90 -22 0 6 82 46 110 54 26 8 56 7 65 -1z m988
-303 c86 -151 100 -205 105 -402 6 -262 -26 -359 -130 -389 -86 -24 -168 -32
-217 -20 l-44 10 35 31 c20 17 76 59 127 94 158 108 181 147 181 307 0 159
-36 275 -126 406 -19 27 -34 54 -34 61 0 6 -3 22 -6 36 -9 41 52 -35 109 -134z
m-13 -172 c11 -36 20 -74 19 -83 0 -9 -11 20 -24 64 -28 91 -26 85 -20 85 2 0
13 -30 25 -66z m-292 -693 c8 -4 23 -48 34 -97 64 -289 27 -545 -124 -848 -48
-97 -136 -242 -142 -235 -2 2 -41 67 -87 144 -102 171 -130 202 -231 262 -68
41 -101 72 -226 211 -186 207 -216 242 -211 246 4 3 959 324 969 325 3 0 11
-3 18 -8z m-877 -513 c218 -243 233 -258 320 -305 90 -50 84 -42 208 -236 85
-133 99 -162 90 -178 -5 -11 -32 -79 -60 -151 -66 -174 -67 -175 -118 -132
-40 33 -50 55 -115 254 -30 91 -60 179 -67 197 -11 27 -11 37 3 67 20 42 12
53 -18 26 l-22 -21 -298 294 -298 294 104 36 c58 19 105 36 106 36 0 1 74 -81
165 -181z m293 -808 c63 -191 103 -252 174 -266 26 -5 36 -1 63 25 17 18 34
29 37 26 12 -12 14 -321 3 -376 -29 -140 -263 -495 -427 -651 -45 -41 -155
-120 -161 -114 -3 2 11 26 30 53 147 207 225 460 233 748 5 162 6 172 30 207
42 60 25 83 -46 65 -24 -5 -28 1 -77 103 -70 145 -102 163 -215 120 -28 -11
-53 -18 -55 -16 -6 6 156 155 199 182 48 31 113 54 142 51 16 -2 29 -32 70
-157z"/>
<path d="M2918 6713 c-161 -155 -178 -174 -219 -256 -70 -137 -56 -151 29 -28
34 49 92 116 130 149 67 60 168 174 204 231 45 70 -11 33 -144 -96z"/>
<path d="M5945 7881 c-7 -13 17 -24 40 -19 9 1 16 8 16 13 0 14 -48 19 -56 6z"/>
<path d="M5991 7497 c-53 -27 -79 -62 -64 -86 12 -19 29 -13 25 11 -4 21 35
48 70 48 34 0 37 -24 6 -49 -33 -27 -7 -32 37 -8 119 67 48 147 -74 84z"/>
<path d="M4857 6419 c-51 -42 -37 -55 18 -18 25 17 43 35 40 40 -9 14 -18 11
-58 -22z"/>
<path d="M5123 6341 c-3 -13 -16 -43 -28 -67 -24 -47 -16 -71 9 -32 31 47 48
100 36 112 -8 8 -12 4 -17 -13z"/>
<path d="M5381 6158 c-31 -78 -38 -108 -30 -114 9 -5 38 51 53 103 9 29 -12
40 -23 11z"/>
<path d="M5694 5983 c-3 -10 -13 -39 -24 -65 -10 -28 -14 -50 -9 -54 9 -5 59
90 59 113 0 20 -20 25 -26 6z"/>
<path d="M4962 6031 c-40 -50 -26 -62 18 -16 23 24 31 38 24 45 -7 7 -21 -2
-42 -29z"/>
<path d="M5986 5908 c-4 -11 -19 -115 -21 -143 0 -5 -4 -16 -8 -22 -5 -7 -5
-13 -1 -13 3 0 1 -6 -5 -14 -8 -10 -9 -16 -1 -21 5 -3 11 -4 11 -1 4 16 7 26
9 31 1 3 3 8 5 13 1 4 7 20 13 35 18 43 26 133 13 141 -6 4 -13 1 -15 -6z"/>
<path d="M5920 5651 c-6 -12 -6 -22 -1 -26 6 -3 15 3 21 14 6 12 6 22 1 26 -6
3 -15 -3 -21 -14z"/>
<path d="M5247 5748 c-46 -75 -66 -117 -58 -122 9 -6 44 42 74 101 20 37 5 56
-16 21z"/>
<path d="M5517 5388 c-31 -53 -97 -120 -134 -137 -16 -7 -35 -17 -44 -21 -9
-5 -20 -5 -25 -1 -20 16 -64 30 -69 21 -7 -11 52 -43 65 -35 5 3 11 1 14 -4 9
-14 62 4 106 34 38 26 84 84 114 142 24 48 1 49 -27 1z"/>
<path d="M5883 5407 c-16 -21 -32 -87 -22 -93 8 -5 39 52 45 83 3 18 -12 25
-23 10z"/>
<path d="M6574 4756 c-29 -13 -32 -19 -39 -75 -7 -65 -20 -72 -31 -16 -3 19
-12 39 -20 46 -17 14 -73 2 -81 -18 -5 -13 58 -235 78 -275 7 -14 14 -15 45
-5 46 14 50 25 30 84 l-16 48 49 -49 c49 -48 49 -48 87 -36 63 20 63 26 0 89
l-59 60 15 75 c19 94 12 102 -58 72z"/>
<path d="M6225 4650 c-73 -30 -90 -118 -43 -221 43 -94 128 -113 204 -47 30
26 34 36 34 79 0 62 -34 153 -67 179 -27 21 -90 26 -128 10z m86 -135 c19 -55
16 -75 -11 -75 -21 0 -56 90 -46 116 12 30 41 10 57 -41z"/>
<path d="M5971 4569 c-28 -11 -27 -21 16 -157 35 -112 58 -137 121 -128 63 8
95 31 86 59 -11 38 -23 46 -59 40 l-33 -5 -28 88 c-38 121 -44 127 -103 103z"/>
<path d="M5793 4517 c-67 -25 -68 -29 -50 -183 9 -75 20 -141 25 -146 4 -4 25
-2 48 5 33 12 39 18 39 43 0 37 39 47 62 15 11 -16 21 -20 41 -15 68 17 68 15
1 142 -81 155 -94 165 -166 139z m61 -168 c-9 -16 -24 10 -23 41 l0 25 15 -28
c8 -15 12 -32 8 -38z"/>
<path d="M5283 4433 c-10 -10 -28 -17 -40 -15 -12 2 -32 -2 -44 -9 l-23 -12
27 -23 c27 -23 28 -23 75 -6 44 17 78 54 66 74 -9 14 -43 9 -61 -9z"/>
<path d="M5480 4417 c-48 -20 -55 -26 -53 -48 3 -45 74 -260 88 -265 7 -3 29
1 48 10 l36 15 -16 46 c-20 61 -13 65 27 15 33 -42 56 -49 104 -30 35 13 33
30 -8 69 -32 32 -34 35 -29 90 10 112 -68 151 -197 98z m107 -84 c2 -6 -5 -17
-17 -23 -25 -13 -25 -13 -35 18 -6 21 -4 23 21 20 15 -2 29 -8 31 -15z"/>
<path d="M5273 4351 c-45 -14 -85 -29 -88 -32 -3 -4 1 -23 9 -44 13 -31 19
-35 38 -30 61 18 60 18 55 -2 -39 -128 -42 -198 -12 -209 16 -7 182 42 190 56
3 5 -1 25 -9 44 -14 34 -16 35 -48 26 -18 -6 -36 -10 -39 -10 -4 0 3 37 14 83
18 73 18 86 6 112 -18 37 -20 37 -116 6z"/>
<path d="M5010 4187 c-43 -22 -56 -58 -42 -114 25 -94 64 -125 132 -104 57 17
76 56 60 123 -23 93 -80 130 -150 95z m70 -92 c7 -20 9 -43 6 -52 -10 -25 -35
5 -43 50 -8 50 21 51 37 2z"/>
<path d="M6262 4177 c-18 -21 -1 -172 18 -172 8 0 16 10 18 23 5 31 28 38 53
16 34 -30 44 -4 19 47 -48 94 -80 120 -108 86z"/>
<path d="M4791 4120 c-25 -12 -41 -25 -38 -32 2 -7 16 -53 31 -101 16 -52 33
-90 43 -94 26 -10 48 12 46 47 l-1 32 27 -26 c30 -29 38 -31 77 -16 l27 11
-31 32 c-27 28 -30 37 -25 72 11 85 -59 119 -156 75z m82 -65 c1 -5 -6 -11
-15 -13 -11 -2 -18 3 -18 13 0 17 30 18 33 0z"/>
<path d="M6104 4125 c-4 -9 -4 -42 -1 -73 l6 -57 -24 46 c-29 56 -51 77 -67
61 -16 -16 60 -146 88 -150 38 -5 47 20 38 105 -9 74 -26 104 -40 68z"/>
<path d="M4683 4085 c-30 -13 -32 -16 -23 -41 6 -15 9 -33 6 -41 -10 -24 -33
-13 -43 20 -8 27 -14 32 -38 30 -45 -3 -46 -13 -12 -123 31 -98 35 -105 58
-102 45 5 48 8 38 47 -6 19 -7 40 -4 45 12 20 32 9 41 -22 11 -36 38 -47 66
-26 16 12 15 20 -13 113 -17 55 -34 103 -38 107 -3 4 -21 0 -38 -7z"/>
<path d="M5840 4045 c-14 -17 -7 -152 9 -168 13 -13 31 1 31 23 0 28 29 33 49
9 14 -18 19 -19 29 -7 10 12 5 28 -26 84 -39 72 -66 90 -92 59z"/>
<path d="M4470 4023 c-60 -22 -77 -90 -41 -170 27 -59 80 -80 132 -53 39 21
12 79 -31 65 -17 -5 -23 0 -36 30 -18 43 -13 65 15 65 27 0 33 13 21 44 -9 25
-27 31 -60 19z"/>
<path d="M4316 3967 c-17 -12 -18 -18 -8 -47 7 -18 12 -35 12 -38 0 -2 -18 12
-39 31 -27 25 -46 34 -60 30 -40 -10 -41 -25 -11 -123 35 -111 40 -118 76
-101 26 12 27 21 8 78 -4 11 9 3 33 -20 29 -28 45 -36 59 -31 43 16 43 21 10
127 -33 105 -45 120 -80 94z"/>
<path d="M5616 3972 c-8 -14 32 -136 49 -148 18 -14 60 -7 76 12 15 18 4 29
-29 29 -23 0 -28 6 -42 55 -15 51 -39 75 -54 52z"/>
<path d="M5444 3926 c-17 -8 -34 -22 -38 -31 -10 -26 20 -65 54 -72 37 -7 39
-26 4 -42 -33 -15 -26 -37 12 -33 84 10 85 96 2 116 -37 8 -35 19 3 33 27 11
30 15 19 28 -15 18 -16 18 -56 1z"/>
<path d="M4113 3910 c-19 -8 -23 -17 -23 -52 l0 -43 -21 33 c-22 33 -46 40
-80 22 -18 -10 -17 -14 22 -65 23 -30 45 -55 49 -55 5 0 15 -19 23 -42 12 -36
18 -43 37 -40 42 5 50 19 36 60 -9 25 -10 45 -4 62 11 31 6 123 -7 126 -5 1
-20 -1 -32 -6z"/>
<path d="M5254 3857 c-7 -19 39 -160 54 -165 22 -7 25 29 7 91 -24 82 -47 110
-61 74z"/>
<path d="M3873 3835 c-76 -33 -64 -108 22 -137 49 -16 49 -17 0 -33 -50 -15
-19 -70 33 -60 110 21 123 127 20 156 l-43 12 35 12 c19 6 35 14 34 16 -8 53
-36 62 -101 34z"/>
<path d="M5080 3811 c-47 -17 -60 -44 -24 -49 15 -2 24 -12 28 -32 3 -16 12
-46 21 -66 14 -35 17 -36 31 -22 15 15 15 21 -3 75 -20 58 -20 58 0 73 35 28
1 41 -53 21z"/>
<path d="M4862 3738 c-15 -15 -16 -174 -2 -183 15 -9 40 14 40 35 0 27 22 30
46 8 18 -16 23 -17 33 -4 10 12 5 28 -29 85 -41 71 -62 85 -88 59z"/>
<path d="M4622 3670 c-33 -14 -36 -32 -17 -97 24 -83 33 -97 51 -82 10 8 13
22 8 43 l-6 31 29 -27 c29 -28 57 -36 67 -19 3 4 -5 18 -19 31 -19 18 -22 29
-18 56 10 59 -34 88 -95 64z m53 -40 c10 -16 -16 -43 -28 -31 -11 11 -2 41 12
41 5 0 13 -5 16 -10z"/>
<path d="M4397 3597 c-50 -12 -51 -18 -24 -107 25 -83 35 -90 91 -66 43 18 57
57 31 86 -9 10 -14 23 -11 29 10 15 -11 58 -31 63 -10 2 -35 0 -56 -5z m43
-51 c0 -8 -7 -16 -15 -20 -8 -3 -15 -4 -15 -2 0 3 -3 11 -6 20 -4 12 0 16 15
16 12 0 21 -6 21 -14z m24 -61 c3 -8 -3 -19 -13 -25 -23 -12 -40 18 -19 32 19
11 25 10 32 -7z"/>
</g>
</svg>
