<svg role="img" aria-label="SYNCHRO ŽRALOK BRATISLAVA" version="1.0" xmlns="http://www.w3.org/2000/svg"
 width="100%" height="100%" viewBox="0 0 3829.000000 2172.000000"
 preserveAspectRatio="xMidYMid meet">

<g transform="translate(0.000000,2172.000000) scale(0.100000,-0.100000)"
fill="currentColor" stroke="none">
<path d="M0 16120 l0 -5600 38 -18 c20 -11 55 -23 77 -27 22 -5 32 -10 23 -12
-9 -2 -40 3 -69 11 -29 9 -56 16 -61 16 -4 0 -8 -2360 -8 -5245 l0 -5245 8391
0 8390 0 -15 22 c-17 24 -21 58 -7 58 13 0 29 -22 36 -53 l7 -27 10744 0
10744 0 0 6970 c0 6189 -2 6970 -15 6970 -8 0 -15 5 -15 10 0 6 7 10 15 10 13
0 15 438 15 3880 l0 3880 -19145 0 -19145 0 0 -5600z m10716 4413 c3 -10 18
-44 34 -75 28 -54 40 -105 21 -94 -12 8 -81 152 -81 170 0 22 19 20 26 -1z
m3471 -1925 c-7 -227 -27 -402 -51 -425 -9 -10 -7 12 14 139 10 65 20 173 21
240 2 154 10 288 17 288 3 0 2 -109 -1 -242z m-1090 -918 c75 -45 74 -103 -5
-275 -32 -71 -69 -146 -80 -165 -12 -19 -22 -41 -22 -49 0 -19 -72 -203 -137
-351 -31 -69 -66 -153 -79 -187 -13 -35 -37 -90 -54 -123 -16 -32 -30 -64 -30
-70 0 -13 -130 -286 -202 -425 -32 -60 -83 -159 -113 -220 -62 -124 -129 -249
-186 -347 -21 -36 -39 -70 -39 -75 0 -4 -46 -53 -103 -108 -88 -86 -176 -147
-244 -170 -8 -3 -51 -342 -77 -605 -31 -305 -38 -413 -42 -675 -3 -148 -10
-286 -15 -306 -17 -67 -76 -99 -179 -94 -25 1 -205 5 -400 9 -350 8 -356 9
-407 33 -80 38 -84 49 -84 221 1 207 10 426 22 496 6 32 9 101 8 155 -1 57 3
108 11 126 6 17 10 53 8 82 -3 29 -1 50 3 47 4 -2 10 10 13 28 5 36 18 148 20
188 1 14 5 39 9 55 8 33 12 51 31 145 8 36 17 73 21 82 5 13 -5 25 -42 50
-123 82 -230 225 -308 408 -15 36 -42 97 -60 135 -18 39 -53 120 -78 180 -67
162 -93 215 -102 207 -5 -4 -5 -2 -1 5 3 6 -17 65 -45 130 -28 65 -76 177
-105 248 -30 72 -63 148 -73 170 -11 22 -25 58 -32 80 -6 22 -25 67 -40 99
-16 33 -29 68 -29 78 0 11 -10 38 -22 61 -43 84 -49 98 -54 122 -2 13 -20 61
-39 107 -19 45 -35 86 -35 90 0 5 -10 29 -23 56 -63 132 -69 217 -19 272 31
34 39 35 542 45 151 3 300 8 332 11 100 10 145 -25 187 -146 12 -36 33 -94 46
-130 12 -36 30 -90 39 -120 9 -30 27 -82 41 -115 13 -33 43 -114 66 -180 23
-66 45 -124 49 -130 5 -5 13 -26 18 -45 6 -19 23 -66 37 -105 15 -38 30 -82
35 -96 4 -14 14 -37 20 -50 7 -13 17 -37 21 -54 4 -16 17 -55 29 -85 12 -30
35 -89 50 -131 15 -41 35 -91 44 -110 9 -19 20 -48 25 -64 28 -88 68 -179 84
-189 38 -24 102 49 137 159 6 22 36 90 66 150 30 61 54 114 54 117 0 3 28 64
62 135 48 100 62 137 61 170 -1 24 3 45 8 48 5 4 9 -2 10 -12 0 -12 5 -8 13
12 6 17 24 56 40 87 15 32 28 71 28 88 1 16 4 27 8 25 11 -7 42 74 34 88 -4 7
-4 9 1 5 8 -8 55 83 55 106 0 16 60 164 109 269 22 49 41 94 41 100 0 7 7 25
15 41 72 138 88 159 126 171 11 4 19 10 19 14 0 4 12 6 28 4 15 -2 119 1 232
5 400 17 611 15 647 -8z m1395 4 c268 -5 309 -8 354 -25 88 -35 146 -119 343
-504 20 -39 45 -84 57 -100 12 -17 42 -73 68 -125 26 -52 52 -100 58 -107 12
-15 25 -38 79 -140 20 -37 60 -108 89 -158 29 -49 72 -124 95 -165 24 -41 66
-113 94 -160 28 -47 65 -112 82 -145 17 -33 47 -84 65 -112 19 -29 50 -83 69
-120 19 -38 47 -88 62 -113 43 -73 114 -201 141 -255 14 -27 28 -52 32 -55 3
-3 16 -25 28 -50 13 -25 35 -67 51 -95 15 -27 44 -79 63 -115 70 -131 67 -156
69 637 1 389 3 744 5 788 2 44 7 276 10 515 7 475 8 480 67 524 28 21 36 21
405 18 419 -4 439 -7 464 -65 23 -56 9 -2029 -22 -3107 -5 -179 -12 -433 -15
-565 -7 -321 -12 -369 -40 -425 -50 -98 -128 -130 -300 -124 -175 6 -423 24
-479 35 -27 5 -63 9 -81 9 -90 0 -181 80 -268 236 -56 102 -171 313 -231 424
-22 41 -47 81 -55 88 -13 11 -13 12 -1 6 11 -6 10 -2 -2 13 -10 11 -18 22 -18
25 0 5 -93 173 -191 343 -64 112 -233 415 -287 515 -58 109 -186 333 -337 590
-17 30 -51 89 -73 130 -50 89 -69 116 -78 107 -4 -4 -11 -111 -15 -239 -4
-128 -17 -420 -28 -648 -12 -228 -23 -491 -25 -585 -3 -93 -7 -251 -10 -350
-4 -99 -8 -263 -11 -364 -6 -209 -12 -229 -88 -272 l-39 -22 -307 12 c-470 18
-455 16 -502 67 -45 49 -52 90 -45 268 3 88 8 233 11 321 3 88 10 203 15 255
12 123 28 390 36 605 13 345 14 399 18 820 3 237 8 495 11 575 3 80 8 267 10
415 12 813 13 823 86 900 15 17 28 34 28 40 0 5 5 11 12 14 7 2 9 -1 4 -9 -6
-9 -3 -9 14 -1 11 7 21 16 21 21 0 12 38 19 87 14 23 -2 178 -6 345 -10z
m-6192 -60 c41 -3 109 -9 150 -15 83 -11 107 -14 230 -29 161 -20 256 -48 303
-89 20 -17 19 -84 -3 -238 -5 -40 -14 -103 -20 -140 -5 -38 -14 -104 -20 -148
-18 -134 -26 -149 -86 -174 -43 -17 -443 6 -749 43 -195 24 -671 41 -770 28
-132 -18 -270 -108 -300 -196 -26 -74 -9 -129 57 -192 33 -31 77 -63 97 -71
20 -8 45 -23 56 -33 11 -10 70 -44 130 -76 61 -31 131 -69 157 -83 193 -106
388 -211 468 -253 117 -62 208 -116 236 -141 12 -10 29 -19 37 -21 9 -1 24 -9
34 -18 10 -8 33 -24 52 -34 18 -10 67 -50 108 -89 41 -38 83 -75 92 -81 106
-75 265 -367 301 -554 35 -179 37 -260 14 -480 -14 -129 -21 -166 -64 -306
-90 -293 -294 -538 -569 -684 -240 -127 -464 -182 -787 -194 -144 -6 -565 10
-649 25 -33 5 -103 14 -155 19 -88 9 -250 36 -345 59 -22 5 -65 14 -95 21 -30
7 -71 16 -90 20 -112 25 -178 73 -190 139 -10 58 -1 565 12 631 15 77 32 107
67 115 37 8 106 9 118 2 5 -3 38 -7 74 -7 35 -1 78 -6 94 -10 17 -5 68 -11
115 -14 170 -11 479 -36 630 -51 231 -23 465 -14 549 21 81 34 150 103 151
152 0 9 7 26 15 36 8 11 15 39 15 62 0 24 4 46 10 49 11 7 3 117 -9 125 -4 3
-13 19 -20 37 -17 42 -101 130 -176 184 -66 48 -71 51 -206 127 -52 30 -123
71 -159 93 -36 21 -76 44 -90 50 -14 6 -32 16 -40 24 -8 7 -37 25 -65 40 -27
15 -70 41 -95 58 -56 37 -228 137 -236 137 -4 0 -39 22 -78 48 -39 27 -85 56
-103 65 -34 18 -153 107 -184 138 -11 11 -23 19 -28 19 -6 0 -29 21 -53 46
-24 25 -58 62 -75 81 -18 19 -33 39 -33 45 0 6 -14 26 -31 46 -32 36 -77 126
-110 221 -64 182 46 554 225 764 37 42 62 77 56 77 -6 0 -8 5 -5 10 4 6 10 8
15 5 5 -3 30 18 57 46 86 92 224 190 393 276 58 30 109 59 115 64 5 5 16 9 26
9 9 0 49 14 89 30 40 17 81 30 92 30 11 0 29 5 41 12 12 7 27 13 32 14 6 1 53
12 105 25 52 12 127 25 166 29 38 3 74 9 80 12 5 4 70 9 143 12 74 3 137 9
140 12 6 6 409 -3 541 -12z m11875 -48 c116 -3 219 -7 230 -9 119 -24 131 -26
210 -33 39 -4 75 -10 80 -14 6 -4 24 -10 41 -13 65 -12 144 -55 155 -84 8 -19
11 -117 10 -308 -3 -449 -3 -440 -30 -469 -44 -47 -67 -51 -260 -38 -718 47
-842 43 -997 -33 -174 -85 -279 -268 -323 -565 -21 -141 -37 -615 -35 -1010 1
-274 38 -444 130 -600 36 -61 139 -164 176 -175 12 -4 30 -13 38 -19 55 -45
236 -64 505 -55 116 4 320 6 455 5 364 -2 344 21 348 -391 4 -311 -1 -353 -43
-381 -37 -24 -165 -51 -330 -69 -82 -9 -168 -20 -190 -24 -22 -5 -49 -9 -60
-9 -46 -1 -171 -13 -184 -17 -25 -9 -455 -5 -506 4 -326 60 -492 120 -690 250
-115 75 -251 205 -315 301 -13 19 -27 37 -32 40 -24 17 -139 230 -176 325 -8
22 -19 44 -24 50 -4 5 -8 16 -8 24 0 9 -9 38 -19 66 -23 58 -53 195 -78 350
-44 269 -10 1407 49 1630 11 44 24 96 29 115 23 103 33 133 71 220 106 245
202 394 347 537 46 46 89 83 96 83 7 0 18 7 25 15 13 15 140 89 195 113 17 7
53 24 80 38 28 13 62 27 78 30 15 3 30 10 33 15 3 5 16 9 30 9 14 0 35 5 46
11 11 6 55 18 97 26 42 8 96 19 121 24 111 24 349 49 400 42 8 -1 110 -4 225
-7z m2319 3 c272 0 271 2 268 -339 -5 -553 -14 -993 -23 -1070 -5 -47 -9 -120
-9 -162 0 -94 -24 -86 260 -93 452 -10 879 -24 971 -31 65 -5 98 -3 103 4 24
40 96 1122 96 1445 0 142 10 180 56 216 30 24 73 24 274 1 47 -6 126 -12 175
-14 82 -4 261 -20 343 -32 34 -5 77 -43 94 -84 13 -31 12 -452 -1 -640 -6 -74
-13 -276 -16 -449 -3 -173 -8 -341 -10 -375 -3 -34 -9 -137 -15 -231 -6 -93
-15 -240 -21 -325 -23 -311 -16 -1108 11 -1430 17 -209 25 -632 11 -657 -6
-12 -28 -35 -48 -50 l-36 -28 -381 3 c-210 2 -392 6 -406 8 -115 24 -119 38
-136 418 -8 171 -17 532 -21 803 -5 439 -8 493 -22 498 -9 4 -149 11 -311 16
-162 5 -385 14 -495 19 -110 6 -264 13 -343 16 l-143 7 4 -819 c5 -878 6 -857
-45 -911 -34 -36 -109 -50 -303 -57 -99 -3 -260 -9 -358 -13 -158 -5 -181 -4
-217 12 -50 23 -80 69 -85 133 -3 41 -20 2007 -17 2052 8 156 29 1185 36 1780
2 146 7 233 14 247 7 12 9 28 6 36 -8 22 22 74 52 90 20 11 79 13 272 10 136
-2 323 -4 416 -4z m5145 -194 c6 -3 45 -6 86 -6 43 0 90 -6 110 -15 19 -7 50
-14 68 -14 43 0 254 -71 304 -102 21 -12 55 -32 75 -43 49 -26 153 -118 181
-160 12 -18 45 -66 73 -106 48 -71 124 -215 124 -236 0 -5 15 -39 34 -74 18
-35 39 -91 46 -124 8 -33 17 -64 21 -70 85 -116 173 -939 120 -1130 -54 -197
-243 -392 -488 -507 -46 -22 -87 -46 -90 -53 -2 -8 43 -112 102 -232 59 -120
117 -238 129 -263 11 -25 24 -46 29 -48 4 -2 7 -12 7 -22 0 -10 9 -35 20 -57
11 -21 56 -114 101 -208 44 -93 84 -172 89 -175 4 -3 19 -27 34 -55 52 -98
111 -187 139 -206 5 -4 26 -34 46 -67 20 -33 61 -93 92 -134 83 -110 96 -150
58 -184 -20 -18 -44 -19 -453 -22 -333 -2 -437 0 -456 10 -18 10 -59 80 -155
269 -196 387 -221 434 -372 694 -36 61 -69 119 -75 130 -44 79 -126 217 -148
250 -15 22 -44 73 -65 112 -47 87 -52 89 -220 99 -66 3 -139 12 -163 20 -23 8
-45 14 -47 14 -8 0 -6 -39 4 -99 24 -140 32 -204 37 -306 10 -226 11 -357 3
-442 -7 -74 -13 -177 -33 -528 -4 -62 -39 -131 -78 -152 -31 -17 -60 -18 -403
-15 -440 4 -451 6 -494 89 -11 22 -9 546 4 948 6 181 5 942 -1 1005 -2 25 -7
295 -11 600 -16 1341 -11 1433 77 1511 84 74 201 93 631 101 92 2 162 6 156
10 -7 4 158 5 365 3 207 -2 382 -6 387 -10z m3836 -185 c197 -22 334 -50 360
-72 5 -4 18 -8 30 -8 51 0 302 -112 375 -168 19 -15 50 -37 69 -50 50 -34 261
-252 261 -270 0 -5 9 -17 20 -27 11 -10 20 -25 20 -33 0 -9 9 -25 19 -36 24
-26 101 -171 101 -190 0 -7 8 -31 17 -52 31 -71 74 -199 80 -234 3 -19 9 -39
13 -45 4 -5 8 -37 9 -70 0 -33 5 -71 10 -85 9 -23 28 -313 22 -335 -1 -5 -4
-57 -6 -115 -2 -58 -11 -166 -20 -240 -9 -74 -18 -175 -21 -225 -3 -49 -9
-117 -14 -150 -5 -33 -12 -91 -15 -130 -3 -38 -10 -101 -16 -140 -5 -38 -14
-104 -19 -146 -5 -41 -14 -87 -19 -101 -5 -14 -7 -29 -4 -32 4 -3 1 -6 -5 -6
-7 0 -12 -17 -12 -42 0 -24 -9 -63 -20 -87 -11 -24 -20 -50 -20 -59 0 -21 -41
-144 -52 -157 -4 -5 -8 -16 -8 -24 0 -22 -86 -205 -151 -321 -123 -220 -361
-441 -571 -532 -446 -192 -1145 -161 -1523 69 -107 64 -315 246 -315 275 0 4
-15 24 -32 44 -60 67 -240 418 -290 564 -41 119 -86 272 -92 315 -3 22 -10 62
-16 89 -49 236 -75 1200 -41 1491 33 270 77 413 192 620 53 95 218 315 237
315 4 0 34 25 67 56 289 270 836 406 1380 344z m-22087 -4675 c3 -52 -7 -72
-88 -180 -17 -22 -41 -54 -53 -71 -60 -86 -182 -240 -198 -252 -11 -7 -19 -19
-19 -25 0 -12 -43 -70 -109 -147 -16 -19 -45 -56 -63 -82 -155 -218 -201 -270
-255 -285 -16 -5 -417 -8 -893 -8 l-865 0 -51 27 c-29 15 -61 40 -73 55 -12
15 -37 48 -56 73 -19 25 -45 64 -57 88 -12 23 -25 42 -29 42 -4 0 -23 24 -43
53 -20 28 -51 70 -69 93 -18 22 -47 60 -64 85 -18 24 -49 64 -68 89 -20 25
-60 77 -90 115 -30 39 -75 95 -99 126 -84 107 -95 155 -49 210 l27 32 335 -7
c185 -4 461 -9 614 -12 332 -5 309 2 452 -144 55 -56 133 -131 174 -167 l73
-64 107 105 c58 58 124 118 146 134 22 17 63 52 91 79 75 73 77 73 418 73 241
-1 543 7 553 14 1 0 68 1 150 1 l148 0 3 -50z m3387 -1238 c189 -14 616 -75
634 -90 8 -7 15 -10 15 -8 4 17 298 -68 419 -121 120 -52 264 -125 296 -149
15 -11 67 -49 117 -84 147 -103 315 -298 396 -460 69 -136 128 -291 128 -333
0 -13 5 -33 11 -44 51 -95 75 -776 35 -968 -79 -377 -245 -682 -480 -878 -71
-60 -198 -152 -210 -152 -2 0 -29 -12 -60 -26 l-57 -26 18 -26 c29 -45 108
-194 245 -462 71 -140 133 -257 137 -260 4 -3 21 -34 38 -70 18 -36 51 -99 74
-140 23 -41 62 -113 87 -160 25 -47 55 -101 67 -120 11 -19 32 -60 44 -90 13
-30 29 -62 36 -70 7 -8 38 -62 68 -120 203 -387 201 -382 169 -453 -27 -60
-54 -81 -110 -83 -26 -1 -245 -5 -487 -8 -242 -3 -514 -9 -605 -12 -298 -9
-485 -12 -513 -6 -61 11 -94 61 -267 397 -51 99 -132 257 -180 350 -49 94
-118 228 -154 299 -37 72 -71 135 -75 140 -5 6 -48 88 -95 181 -80 158 -115
223 -202 382 l-35 62 -109 0 -110 -1 0 -31 c0 -18 -4 -144 -10 -282 -5 -137
-11 -437 -14 -665 -10 -726 -14 -770 -72 -821 -41 -36 -78 -38 -848 -39 l-759
-1 -53 36 c-30 19 -58 35 -63 35 -5 0 -12 35 -16 78 -13 134 -5 1062 10 1208
23 216 44 1168 25 1179 -5 3 -6 15 -1 28 10 27 7 947 -5 1312 -4 149 -8 450
-8 670 -1 408 5 497 39 562 8 15 15 33 15 39 0 19 58 86 113 132 104 85 263
122 604 141 89 5 166 12 171 15 5 3 75 6 154 7 79 0 149 4 156 8 13 8 1163 7
1277 -2z m-6700 -68 c127 -1 334 -7 460 -14 127 -7 506 -14 845 -15 338 -2
750 -3 915 -4 368 -1 930 14 1040 29 46 6 92 -20 117 -68 22 -41 22 -48 21
-392 -3 -762 -7 -816 -60 -945 -21 -49 -122 -220 -148 -250 -12 -14 -44 -58
-71 -99 -27 -40 -61 -92 -76 -115 -15 -22 -28 -47 -28 -53 0 -7 -4 -13 -10
-13 -5 0 -27 -27 -49 -59 -22 -32 -46 -65 -54 -72 -7 -8 -19 -29 -26 -47 -8
-19 -20 -40 -28 -48 -27 -27 -186 -260 -218 -321 -13 -23 -32 -54 -42 -70 -26
-36 -30 -45 -191 -373 -47 -96 -102 -195 -122 -220 -20 -25 -47 -63 -60 -85
-13 -22 -51 -72 -84 -112 -34 -40 -74 -91 -91 -113 -29 -39 -68 -88 -146 -182
-20 -24 -46 -63 -59 -87 l-22 -45 21 -17 c17 -14 57 -18 278 -23 142 -4 317
-9 388 -11 805 -28 747 -24 791 -50 56 -33 79 -81 76 -165 -1 -36 -3 -320 -4
-631 l-3 -566 -25 -39 c-53 -81 -39 -79 -530 -76 -239 1 -505 4 -590 7 -85 3
-243 7 -350 10 -648 18 -930 27 -970 30 -25 1 -119 6 -210 10 -91 4 -192 8
-225 10 -33 2 -127 7 -210 10 -82 4 -168 8 -190 10 -22 2 -106 6 -186 10 -138
8 -148 9 -176 34 -59 52 -62 63 -59 211 6 220 16 392 26 437 6 23 10 78 10
122 0 45 4 81 8 81 4 0 14 75 21 167 7 92 16 175 22 184 5 10 9 25 9 33 0 22
81 185 112 227 56 74 98 135 108 156 5 13 31 51 58 86 27 34 55 73 62 87 15
28 62 91 98 132 15 16 21 31 17 39 -5 7 -4 10 2 6 6 -4 14 -1 17 6 3 6 14 24
24 38 9 15 40 62 68 105 29 44 61 88 72 99 10 11 23 31 27 45 4 14 20 39 35
55 30 32 160 242 160 259 0 5 8 19 19 30 10 12 31 46 46 76 16 30 44 80 62
111 18 31 33 66 33 78 0 11 4 21 8 21 17 0 116 225 107 240 -3 4 2 13 10 20 8
7 15 21 15 32 0 10 7 21 15 24 8 4 15 10 15 14 0 14 184 405 197 418 7 7 13
22 13 33 0 40 -45 47 -343 48 -154 1 -283 3 -286 5 -3 2 -127 7 -276 10 -492
11 -520 15 -581 84 -22 25 -55 111 -60 157 -1 11 -7 45 -12 75 -6 30 -15 84
-22 120 -6 36 -15 88 -20 115 -4 28 -14 82 -20 120 -18 108 -28 664 -12 677 6
6 12 21 12 33 0 13 14 37 30 55 17 18 30 29 30 26 0 -4 10 -1 23 6 30 16 95
27 137 23 19 -3 139 -5 265 -6z m12205 -14 c463 -61 771 -226 961 -514 27 -40
49 -78 49 -83 0 -5 13 -37 29 -71 15 -34 34 -82 41 -107 7 -25 16 -56 20 -70
5 -14 13 -54 20 -90 6 -36 15 -83 20 -105 18 -77 60 -294 70 -357 5 -35 17
-99 25 -143 8 -44 28 -154 44 -245 16 -91 41 -221 55 -290 43 -207 46 -223 51
-265 5 -39 15 -91 36 -190 5 -27 17 -93 24 -145 8 -52 19 -115 24 -140 11 -49
32 -164 55 -300 29 -167 54 -296 74 -380 12 -47 33 -137 47 -200 15 -63 44
-187 65 -275 22 -88 46 -203 55 -255 9 -52 20 -108 25 -125 13 -43 55 -244 74
-350 9 -49 35 -182 56 -295 55 -281 57 -306 31 -357 -11 -23 -25 -44 -31 -48
-5 -3 -261 -6 -567 -5 -806 1 -1034 5 -1065 18 -46 19 -84 116 -102 262 -9 69
-21 150 -26 180 -5 30 -17 111 -26 180 -27 211 -42 311 -47 317 -3 2 -248 7
-544 9 l-539 4 -23 -113 c-13 -61 -29 -148 -37 -192 -8 -44 -21 -114 -29 -155
-9 -41 -29 -145 -45 -230 -34 -179 -58 -225 -125 -249 -61 -20 -940 -6 -1473
25 l-123 7 -29 34 c-22 24 -30 44 -30 71 0 40 34 244 51 302 5 19 30 134 55
255 25 121 54 263 65 315 12 52 24 115 29 140 4 25 15 74 25 108 9 35 14 69
12 75 -2 7 1 23 8 37 7 14 20 66 29 115 10 50 24 113 32 140 23 82 55 214 80
325 13 58 34 150 47 205 14 55 28 120 32 145 4 25 13 65 21 90 15 46 72 316
105 495 10 55 28 147 39 205 11 58 29 152 40 210 11 58 24 125 30 150 6 25 15
74 20 110 5 36 16 88 24 115 8 28 24 102 36 165 11 63 29 151 40 195 10 44 30
139 44 210 98 495 137 593 316 782 210 223 499 328 990 363 176 12 596 4 740
-15z m3964 -118 c20 -16 43 -41 49 -55 12 -28 21 -603 32 -2182 3 -432 6 -958
8 -1170 3 -433 0 -415 81 -469 l41 -26 555 -2 c305 0 575 -1 599 -2 56 -1 115
-57 125 -118 21 -124 23 -1137 3 -1185 -22 -53 -113 -108 -179 -108 -18 0 -51
-5 -73 -10 -213 -48 -1094 -74 -1340 -39 -38 5 -97 12 -130 15 -70 6 -273 45
-360 68 -117 32 -326 132 -438 211 -62 43 -257 234 -257 251 0 5 -12 22 -26
37 -30 33 -122 185 -164 272 -56 117 -106 307 -130 495 -13 99 -18 593 -26
2520 l-6 1405 23 34 c56 81 21 76 572 79 271 1 497 4 502 7 6 2 121 3 256 2
l246 -2 37 -28z m3980 -107 c66 -6 123 -13 127 -15 6 -4 206 -45 239 -50 17
-2 18 -2 180 -52 299 -93 483 -188 723 -375 108 -84 276 -269 326 -358 10 -19
33 -53 50 -74 35 -44 181 -329 181 -353 0 -8 9 -32 19 -52 26 -49 77 -207 86
-266 2 -11 13 -60 25 -110 44 -182 81 -569 112 -1165 12 -244 4 -659 -16 -770
-8 -47 -24 -137 -36 -200 -11 -63 -20 -124 -20 -134 0 -25 -38 -135 -56 -161
-8 -11 -14 -29 -14 -41 0 -44 -154 -371 -204 -432 -12 -15 -43 -57 -69 -94
-51 -72 -272 -298 -292 -298 -7 0 -19 -7 -26 -17 -40 -48 -218 -154 -321 -192
-29 -11 -80 -29 -113 -41 -58 -22 -89 -30 -280 -71 -335 -72 -767 -74 -1128
-4 -72 14 -143 30 -157 35 -14 4 -78 24 -142 45 -680 211 -1120 709 -1307
1479 -37 152 -54 342 -56 636 -5 576 26 1231 65 1365 4 17 11 50 14 75 6 41
19 102 48 220 17 73 39 140 68 215 16 39 42 105 59 149 17 43 55 119 84 170
30 50 67 113 82 140 91 160 320 415 455 506 348 234 807 337 1294 290z m4183
-194 c64 -33 85 -68 93 -158 24 -253 27 -1591 4 -2000 -2 -54 -1 -98 3 -98 9
0 83 104 83 118 1 4 21 39 45 77 44 69 166 291 263 475 132 253 156 297 172
325 43 72 220 430 220 444 0 9 22 71 49 139 52 127 94 258 106 327 4 22 15 60
25 85 10 25 24 74 31 109 27 130 29 130 264 118 141 -7 691 -3 1050 9 l161 5
26 -26 c42 -42 41 -68 -8 -175 -24 -52 -51 -106 -60 -120 -26 -43 -113 -229
-120 -258 -4 -15 -12 -33 -18 -41 -6 -8 -10 -17 -10 -20 1 -3 -3 -17 -8 -31
-6 -14 -11 -29 -12 -35 -1 -5 -18 -62 -39 -125 -20 -63 -48 -155 -63 -205 -39
-134 -54 -182 -86 -270 -61 -165 -79 -211 -105 -260 -14 -27 -31 -63 -37 -80
-20 -54 -140 -273 -237 -430 -20 -33 -53 -92 -73 -130 -49 -93 -119 -210 -138
-232 -40 -46 -41 -61 -10 -116 28 -48 103 -193 260 -497 35 -69 68 -130 73
-136 5 -6 33 -60 63 -120 29 -60 71 -138 93 -174 22 -36 54 -94 72 -130 87
-174 166 -324 191 -360 9 -14 41 -70 70 -125 71 -133 74 -139 81 -145 3 -3 14
-19 23 -37 9 -18 30 -52 46 -77 17 -25 40 -66 52 -93 11 -26 40 -78 64 -116
137 -213 167 -303 120 -361 -22 -29 -27 -30 -137 -37 -63 -4 -240 -17 -394
-28 -154 -12 -354 -25 -445 -31 -91 -6 -235 -15 -320 -20 -232 -15 -319 -13
-360 8 -44 21 -81 83 -145 238 -44 110 -76 187 -198 479 -25 61 -60 142 -78
180 -17 39 -40 90 -51 115 -194 432 -540 1110 -566 1110 -4 0 -7 -262 -7 -583
0 -840 -10 -1432 -25 -1487 -8 -32 -23 -54 -50 -76 l-38 -31 -164 -6 c-136 -6
-596 -9 -1126 -7 l-113 0 -42 39 -42 40 5 213 c7 303 5 1046 -3 1218 -18 372
-19 1395 -2 1885 11 325 15 681 14 1056 l-3 566 27 46 c35 59 39 61 117 67
180 14 1340 11 1367 -4z m-24117 -6431 c288 -19 520 -83 672 -187 193 -130
237 -243 217 -551 -11 -150 -32 -236 -85 -332 -44 -80 -157 -199 -209 -221
-44 -18 -44 -19 13 -48 26 -13 58 -38 72 -56 14 -17 32 -39 41 -48 109 -120
137 -425 60 -646 -62 -176 -196 -333 -343 -401 -21 -9 -38 -21 -38 -26 0 -5
-9 -9 -20 -9 -11 0 -37 -7 -58 -16 -58 -24 -191 -50 -310 -59 -168 -13 -198
-16 -212 -15 -50 0 -271 19 -279 24 -5 3 -51 8 -102 10 -213 10 -358 56 -394
126 -26 51 -19 297 19 650 9 74 20 189 27 255 16 169 36 348 49 430 5 39 14
106 20 150 5 44 14 109 20 145 6 36 15 94 20 130 14 107 65 467 75 529 10 66
49 116 110 141 81 33 356 44 635 25z m3555 -66 c77 -5 176 -18 220 -29 44 -11
85 -20 91 -20 6 0 33 -10 60 -22 27 -12 54 -22 59 -23 58 -4 239 -158 300
-254 113 -181 121 -544 15 -777 -64 -142 -258 -324 -372 -349 -29 -7 -34 -15
-19 -30 5 -6 38 -66 74 -135 36 -69 99 -187 141 -262 42 -75 76 -139 76 -142
0 -4 19 -39 43 -79 228 -381 230 -370 -99 -380 -251 -8 -233 -14 -292 93 -20
36 -49 83 -64 104 -15 21 -28 44 -28 49 0 6 -6 18 -14 26 -8 9 -38 63 -67 121
-29 58 -56 107 -60 110 -5 3 -16 23 -26 45 -10 22 -30 58 -44 80 -14 22 -43
74 -65 115 -21 41 -51 95 -66 120 l-29 45 -169 0 -169 0 -6 -70 c-3 -38 -14
-241 -24 -450 l-18 -379 -38 -33 -38 -33 -151 -1 c-224 -1 -227 -1 -259 29
l-28 27 7 115 c3 63 7 138 9 165 1 28 5 84 8 125 17 196 25 347 32 570 3 96 7
216 10 265 4 84 10 277 20 755 8 335 15 387 63 433 49 46 150 62 462 73 91 3
167 8 169 10 6 6 135 3 286 -7z m22685 -32 c103 -46 178 -132 197 -227 3 -17
10 -33 14 -36 5 -3 9 -16 9 -30 0 -13 9 -59 21 -102 43 -156 63 -236 75 -297
3 -16 9 -39 14 -50 5 -11 24 -85 44 -165 33 -137 39 -167 53 -250 3 -19 9 -39
13 -45 9 -12 24 -67 21 -79 -1 -4 4 -14 10 -22 10 -12 22 -54 33 -114 1 -8 7
-31 13 -50 6 -19 23 -75 38 -125 15 -49 31 -94 35 -100 4 -5 10 -23 13 -40 11
-63 18 -89 36 -124 10 -20 21 -57 25 -82 4 -26 16 -71 26 -100 51 -140 33
-156 -190 -165 -233 -10 -230 -13 -287 235 -25 111 -76 281 -100 340 l-15 34
-161 -7 c-89 -3 -231 -9 -316 -13 l-153 -6 -14 -33 c-8 -18 -14 -50 -14 -70 0
-20 -7 -50 -15 -67 -13 -29 -20 -71 -45 -272 -14 -109 -35 -170 -66 -184 -14
-6 -88 -14 -164 -18 l-138 -6 -26 26 c-29 29 -34 71 -15 141 6 22 14 57 19 76
4 19 13 55 20 80 6 25 15 65 20 90 30 163 41 217 47 235 3 11 12 47 19 80 18
81 88 381 114 480 11 44 20 95 20 113 0 18 5 42 10 53 6 10 15 38 20 61 30
145 95 407 132 533 68 235 215 341 458 331 74 -3 107 -9 150 -29z m-19205 9
c173 -38 292 -168 325 -356 9 -51 47 -205 89 -365 16 -60 50 -195 76 -300 54
-223 59 -242 78 -315 54 -204 63 -236 127 -445 100 -324 150 -509 150 -551 0
-69 -16 -74 -239 -74 l-189 0 -26 30 c-14 17 -30 50 -37 73 -6 23 -24 89 -41
147 -16 58 -40 143 -53 190 -46 166 -55 186 -86 183 -13 -1 -180 -2 -372 -2
l-347 -1 -14 -33 c-8 -17 -23 -63 -34 -102 -11 -38 -31 -108 -45 -155 -13 -47
-34 -123 -47 -170 -30 -117 -37 -134 -69 -164 l-27 -26 -193 -2 c-185 -2 -194
-2 -217 19 -30 27 -32 84 -5 151 11 26 27 74 36 107 10 33 30 98 45 145 15 47
38 121 50 165 12 44 26 85 29 90 4 6 13 35 20 65 7 30 29 107 48 170 19 63 46
151 59 195 13 44 31 105 40 135 9 30 22 82 29 115 7 33 23 92 35 130 38 126
82 280 84 301 2 11 6 26 10 32 4 7 14 38 22 69 98 380 169 480 389 544 73 21
215 24 300 5z m3165 -46 c391 -12 442 -17 461 -51 19 -37 8 -319 -15 -353
l-18 -29 -212 7 c-116 4 -246 10 -289 14 -47 5 -81 4 -84 -2 -6 -10 -12 -214
-15 -566 -1 -118 -5 -305 -9 -415 -10 -284 -21 -671 -28 -942 -1 -49 -6 -67
-25 -89 l-23 -28 -183 12 c-247 15 -226 -12 -222 290 1 130 7 296 12 367 6 72
12 396 15 720 3 325 8 604 10 622 3 17 1 34 -5 38 -5 3 -137 7 -292 8 -356 2
-328 -15 -328 189 0 166 13 208 65 220 38 8 690 2 1185 -12z m14035 -42 c27
-21 27 -24 22 -92 -3 -39 -10 -91 -16 -116 -7 -25 -23 -115 -37 -200 -14 -85
-30 -173 -34 -195 -5 -22 -15 -85 -24 -140 -38 -237 -54 -326 -72 -396 -8 -30
-14 -71 -14 -91 0 -20 -9 -65 -20 -100 -29 -93 -96 -363 -109 -438 -66 -381
-83 -435 -164 -518 -85 -88 -201 -127 -337 -113 -154 15 -237 114 -300 356
-17 66 -39 147 -49 180 -63 208 -83 277 -95 337 -8 37 -17 71 -20 77 -4 5 -17
56 -30 113 -25 107 -31 135 -97 408 -47 194 -115 449 -165 615 -62 207 -55
219 145 239 153 16 169 14 195 -27 21 -31 85 -238 106 -342 7 -33 21 -91 32
-130 11 -38 31 -117 43 -175 22 -100 33 -147 75 -320 10 -41 23 -106 30 -145
6 -38 18 -92 26 -120 8 -27 25 -99 38 -160 25 -113 46 -200 66 -270 6 -22 15
-62 20 -90 25 -137 22 -130 60 -130 l35 0 18 80 c10 44 24 119 32 167 7 47 19
106 25 130 14 54 24 94 45 183 9 39 20 84 25 100 15 52 32 147 40 235 5 47 16
117 25 155 9 39 24 140 34 225 11 85 31 225 45 310 22 135 33 209 52 346 6 41
28 50 149 62 161 14 170 14 200 -10z m-11637 -31 c35 -44 33 -2327 -1 -2410
-19 -45 -20 -45 -226 -50 l-164 -4 -30 27 -30 26 1 1115 c0 680 4 1143 11
1188 14 109 19 113 188 123 76 4 149 9 163 11 30 3 75 -10 88 -26z m2557 3
c269 -17 456 -46 488 -76 30 -27 42 -121 35 -259 -7 -131 -21 -138 -228 -115
-47 5 -213 10 -370 12 l-285 3 -56 -27 c-98 -49 -135 -120 -111 -215 23 -92
75 -129 527 -378 136 -75 263 -150 290 -170 138 -105 235 -232 277 -367 29
-94 33 -340 6 -423 -74 -227 -199 -354 -430 -436 -194 -69 -637 -64 -938 11
-125 31 -130 40 -130 206 0 140 11 191 42 203 17 6 92 1 428 -28 119 -10 322
-8 392 3 89 16 168 128 168 241 0 116 -50 173 -265 300 -44 27 -102 62 -130
80 -27 18 -84 52 -125 75 -349 202 -414 255 -512 420 -130 220 -89 596 82 756
174 163 401 212 845 184z m2462 -19 c48 -30 59 -86 72 -391 13 -297 36 -724
51 -965 5 -88 12 -218 16 -290 12 -273 28 -349 86 -402 47 -44 66 -46 437 -48
l354 -2 29 -31 c26 -30 28 -38 29 -125 1 -50 2 -110 4 -132 4 -61 -7 -78 -61
-98 -71 -25 -267 -47 -444 -48 -401 -4 -573 40 -704 182 -82 88 -108 144 -156
339 -7 31 -16 145 -25 350 -15 339 -29 582 -45 810 -5 74 -14 252 -20 395 -6
143 -13 292 -16 331 -6 64 -4 73 17 98 23 26 29 27 164 35 77 4 149 9 160 10
11 0 34 -8 52 -18z m3229 -34 c125 -26 248 -130 295 -248 24 -61 48 -126 109
-304 16 -44 36 -109 45 -145 10 -36 25 -87 35 -115 29 -80 98 -305 114 -370 8
-33 27 -98 41 -145 15 -47 37 -128 51 -180 13 -52 47 -165 74 -250 27 -85 57
-184 66 -220 9 -36 23 -77 30 -92 8 -15 14 -38 14 -51 0 -13 9 -50 20 -83 58
-172 40 -206 -117 -219 -213 -16 -229 -16 -246 3 -22 24 -51 104 -71 192 -24
108 -114 395 -134 427 -6 9 -57 10 -222 3 -118 -5 -275 -10 -347 -10 -120 0
-133 -2 -133 -17 -1 -23 -15 -130 -36 -258 -8 -55 -21 -157 -28 -228 -11 -117
-14 -130 -39 -155 l-27 -27 -178 -3 c-227 -4 -228 -3 -218 127 3 47 13 111 21
141 8 30 15 73 15 95 0 22 11 105 25 185 14 80 36 217 49 305 14 88 34 205 44
260 11 55 30 156 42 225 12 69 25 141 30 160 4 19 14 64 20 100 7 36 18 94 25
130 8 36 22 112 34 170 11 58 26 128 34 155 8 28 18 75 22 105 29 245 269 394
541 337z"/>
<path d="M27170 16513 c-194 -4 -176 9 -184 -135 -8 -157 -21 -660 -21 -801
l0 -109 45 -3 c25 -2 99 -10 165 -19 436 -60 758 31 864 243 60 118 81 406 39
518 -52 141 -215 251 -415 283 -28 4 -56 11 -62 14 -12 8 -250 12 -431 9z"/>
<path d="M30998 16296 c-278 -64 -430 -245 -475 -568 -18 -132 0 -893 28
-1148 6 -52 13 -129 16 -170 5 -73 11 -95 52 -213 106 -304 370 -452 725 -407
129 16 267 108 325 218 74 139 121 411 136 787 5 122 20 459 30 675 8 181 -27
403 -82 515 -80 162 -190 256 -358 301 -80 22 -320 28 -397 10z"/>
<path d="M12055 9841 c-6 -6 -8 -91 -3 -233 4 -123 8 -310 11 -415 2 -106 6
-195 9 -198 3 -3 163 -7 354 -8 310 -2 355 0 404 16 110 35 181 93 231 187 22
42 24 56 23 200 0 227 -29 307 -134 366 -19 10 -40 24 -47 30 -13 12 -147 40
-233 48 -114 11 -605 17 -615 7z"/>
<path d="M17791 9798 c-4 -13 -13 -52 -19 -88 -50 -297 -78 -469 -107 -670
-10 -63 -21 -123 -26 -133 -5 -10 -11 -39 -14 -65 -5 -61 -34 -255 -45 -308
-5 -23 -14 -79 -20 -125 -5 -46 -14 -113 -19 -149 -5 -36 -11 -80 -13 -99 l-3
-34 318 -5 318 -4 -6 28 c-4 16 -11 43 -15 59 -10 33 -79 420 -104 580 -9 55
-27 177 -41 270 -14 94 -34 224 -45 290 -11 66 -31 193 -44 283 -14 90 -30
170 -36 178 -20 23 -69 18 -79 -8z"/>
<path d="M26095 9515 c-101 -17 -214 -94 -255 -175 -55 -109 -80 -304 -80
-636 0 -98 -7 -342 -15 -541 -8 -200 -12 -368 -10 -375 3 -7 7 -49 9 -93 23
-383 198 -575 524 -575 236 0 361 68 455 247 39 75 77 213 78 283 1 25 7 78
16 119 12 61 13 131 8 380 -9 477 -26 687 -71 858 -13 51 -24 102 -24 112 0
52 -100 220 -167 280 -111 100 -294 145 -468 116z"/>
<path d="M5972 3868 c-6 -40 -14 -98 -17 -128 -4 -30 -15 -104 -25 -165 -10
-60 -20 -144 -22 -185 l-3 -75 65 -2 c36 -2 117 -8 180 -14 234 -23 398 5 464
80 72 80 110 314 68 412 -24 55 -90 98 -162 106 -25 2 -76 10 -115 18 -38 7
-149 16 -245 20 l-176 7 -12 -74z"/>
<path d="M5856 2908 c-2 -7 -9 -49 -16 -93 -7 -44 -16 -102 -21 -130 -4 -27
-13 -117 -19 -200 -5 -82 -12 -174 -15 -202 -5 -58 -10 -53 71 -67 71 -12 365
-17 441 -8 224 26 333 147 334 369 1 108 -82 217 -208 274 -72 33 -82 35 -233
44 -52 3 -142 10 -200 15 -132 12 -130 13 -134 -2z"/>
<path d="M9392 3847 c-12 -14 -38 -614 -30 -682 3 -29 3 -29 78 -32 522 -18
696 60 728 327 19 160 -24 278 -122 332 -97 53 -142 60 -397 65 -204 3 -248 2
-257 -10z"/>
<path d="M32277 3888 c-8 -18 -18 -53 -21 -78 -4 -25 -13 -67 -21 -95 -36
-128 -55 -205 -55 -223 0 -11 -4 -22 -9 -24 -5 -1 -10 -21 -12 -43 -1 -22 -6
-48 -11 -57 -5 -10 -13 -52 -18 -93 -5 -42 -16 -91 -24 -108 -8 -18 -16 -48
-19 -67 -2 -19 -8 -43 -12 -54 -8 -19 102 -19 386 0 l86 6 -14 66 c-8 37 -29
135 -48 217 -19 83 -48 213 -66 290 -35 154 -66 263 -81 283 -18 22 -45 13
-61 -20z"/>
<path d="M13134 3845 c-9 -13 -20 -39 -24 -57 -7 -29 -85 -326 -142 -538 -11
-41 -26 -102 -33 -135 -8 -33 -21 -87 -30 -120 -10 -33 -20 -70 -22 -82 l-5
-23 276 0 c152 0 276 3 276 6 0 10 -40 178 -55 229 -8 28 -22 84 -30 125 -9
41 -22 98 -30 125 -8 28 -26 106 -40 175 -14 69 -32 145 -40 170 -7 25 -17 63
-21 85 -12 69 -49 88 -80 40z"/>
<path d="M27000 3676 c0 -33 -1 -36 -11 -63 -4 -11 -13 -57 -19 -100 -6 -44
-13 -90 -15 -104 -3 -13 -15 -82 -26 -154 -12 -71 -25 -138 -30 -147 -5 -10
-9 -30 -9 -45 -1 -16 -7 -64 -16 -108 -8 -44 -19 -105 -24 -135 -5 -30 -12
-67 -16 -83 l-6 -27 266 0 c254 1 278 3 257 25 -5 6 -13 30 -19 55 -10 46 -36
142 -73 265 -11 39 -31 108 -44 155 -49 174 -113 384 -134 440 -14 39 -21 45
-49 48 -29 3 -32 0 -32 -22z"/>
</g>
</svg>
